<svg width="612" height="726" viewBox="0 0 612 726" fill="none"
  xmlns="http://www.w3.org/2000/svg">
  <g className='bouncing-head'>
    <path
      d="M230.278 571.591C230.203 571.712 230.154 571.847 230.136 571.988L221.009 640.869C220.952 641.295 221.175 641.71 221.562 641.899C221.948 642.087 222.412 642.008 222.714 641.701L340.714 521.484C341.045 521.146 341.094 520.623 340.833 520.23L301.065 460.446C300.876 460.163 300.557 459.995 300.217 460C299.877 460.005 299.562 460.183 299.383 460.472L230.278 571.591Z"
      fill="#F8CC07" stroke="#F8CC07" stroke-width="2" stroke-linejoin="round" />
    <path fill-rule="evenodd" clip-rule="evenodd"
      d="M91.1889 425.645C40.1395 421.511 0 378.772 0 326.657C0 271.807 44.4652 227.342 99.3158 227.342C118.714 227.342 136.814 232.903 152.107 242.519C151.965 239.912 151.894 237.287 151.894 234.645C151.894 155.864 215.758 92 294.538 92C367.945 92 428.401 147.449 436.307 218.748C454.149 206.949 475.536 200.08 498.527 200.08C560.906 200.08 611.475 250.648 611.475 313.027C611.475 363.102 578.888 405.566 533.763 420.37C535.231 427.853 536 435.587 536 443.5C536 509.498 482.498 563 416.5 563C378.132 563 343.987 544.918 322.122 516.81C299.302 550.704 260.577 573.001 216.644 573.001C146.467 573.001 89.5777 516.111 89.5777 445.935C89.5777 439.029 90.1286 432.252 91.1889 425.645Z"
      fill="#71787D" />
    <ellipse cx="182.859" cy="344.04" rx="79.8594" ry="80.0403" fill="white" />
    <ellipse cx="428.859" cy="341.04" rx="79.8594" ry="80.0403" fill="white" />
    <ellipse cx="428.803" cy="340.889" rx="37.8032" ry="37.8889" fill="#083F88" />
    <ellipse cx="182.803" cy="343.889" rx="37.8032" ry="37.8889" fill="#083F88" />
    <path
      d="M256.049 227.738C255.984 228.016 256.041 228.308 256.205 228.542C256.369 228.775 256.626 228.927 256.909 228.959L353.434 239.994C353.919 240.049 354.374 239.746 354.509 239.277L379.961 151.002C380.099 150.522 379.862 150.013 379.406 149.811L328.369 127.15L361.221 27.7409C361.308 27.4763 361.281 27.1872 361.146 26.9432C361.011 26.6993 360.781 26.5228 360.51 26.4561L257.262 1.02901C256.752 0.903516 256.232 1.19331 256.071 1.69273L208.048 150.417C207.967 150.67 207.989 150.945 208.11 151.181C208.232 151.418 208.442 151.596 208.695 151.677L269.285 171.066L256.049 227.738Z"
      fill="#F8CC07" stroke="#F8CC07" stroke-width="2" stroke-linejoin="round" />
  </g>
  <path className='bouncing-shadow'
    d="M590.738 696C590.738 712.569 463.139 726 305.738 726C148.337 726 20.7383 712.569 20.7383 696C20.7383 679.431 148.337 666 305.738 666C463.139 666 590.738 679.431 590.738 696Z"
    fill="black" fill-opacity="0.5" />
</svg>