<svg width="668" height="695" viewBox="0 0 668 695" fill="none"
  xmlns="http://www.w3.org/2000/svg">
  <g className='bouncing-head'>
    <path fill-rule="evenodd" clip-rule="evenodd"
      d="M67 265C67 118.645 185.645 0 332 0C478.355 0 597 118.645 597 265V343V373C597 389.569 606.85 403 619 403H618C645.614 403 668 425.386 668 453V564.5C668 590.181 647.181 611 621.5 611C595.819 611 575 590.181 575 564.5V522C575 505.431 561.569 492 545 492C528.431 492 515 505.431 515 522C515 544.644 496.644 563 474 563C451.356 563 433 544.644 433 522V484H432.256C429.046 498.863 415.823 510 400 510C384.177 510 370.954 498.863 367.744 484H366.256C363.046 498.863 349.823 510 334 510C318.177 510 304.954 498.863 301.744 484H300.256C297.046 498.863 283.823 510 268 510C252.176 510 238.954 498.863 235.744 484H235V522C235 544.644 216.644 563 194 563C171.356 563 153 544.644 153 522C153 505.431 139.569 492 123 492C106.431 492 93 505.431 93 522V564.5C93 590.181 72.1812 611 46.5 611C20.8188 611 0 590.181 0 564.5V453C0 425.386 22.3858 403 50 403H45C57.1503 403 67 389.569 67 373V343V265Z"
      fill="#E72683" />
    <ellipse cx="208.859" cy="258.88" rx="79.8594" ry="80.0403" fill="white" />
    <ellipse cx="454.578" cy="256.04" rx="79.8594" ry="80.0403" fill="white" />
    <ellipse cx="454.108" cy="258.408" rx="37.8032" ry="37.8889" fill="#083F88" />
    <ellipse cx="208.385" cy="258.408" rx="37.8032" ry="37.8889" fill="#083F88" />
  </g>
  <ellipse className='bouncing-shadow' cx="334" cy="665" rx="310" ry="30" fill="black"
    fill-opacity="0.5" />
</svg>