<svg width="657" height="712" viewBox="0 0 657 712" fill="none"
  xmlns="http://www.w3.org/2000/svg">
  <path className='bouncing-shadow'
    d="M613 682C613 698.569 485.401 712 328 712C170.599 712 43 698.569 43 682C43 665.431 170.599 652 328 652C485.401 652 613 665.431 613 682Z"
    fill="black" fill-opacity="0.5" />
  <g className='bouncing-head'>
    <path
      d="M298.314 24.3065C310.63 -1.50366 347.37 -1.5037 359.686 24.3064L431.363 174.517C436.319 184.905 446.194 192.079 457.605 193.583L622.613 215.335C650.966 219.072 662.319 254.013 641.578 273.702L520.868 388.289C512.521 396.212 508.749 407.821 510.845 419.138L541.148 582.792C546.355 610.912 516.633 632.507 491.498 618.865L345.219 539.472C335.103 533.982 322.897 533.982 312.781 539.472L166.502 618.865C141.367 632.507 111.645 610.912 116.852 582.792L147.155 419.138C149.251 407.821 145.479 396.212 137.132 388.289L16.4221 273.702C-4.31894 254.013 7.03402 219.072 35.3868 215.335L200.395 193.583C211.806 192.079 221.681 184.905 226.637 174.517L298.314 24.3065Z"
      fill="#FFDE01" />
    <ellipse cx="206.24" cy="305.972" rx="79.3491" ry="79.5288" fill="white" />
    <ellipse cx="450.665" cy="302.992" rx="79.3491" ry="79.5288" fill="white" />
    <ellipse cx="450.612" cy="302.842" rx="37.5617" ry="37.6468" fill="#083F88" />
    <ellipse cx="206.183" cy="305.823" rx="37.5617" ry="37.6468" fill="#083F88" />
  </g>
</svg>