    <svg width="353" height="395" viewBox="0 0 353 395" fill="none" xmlns="http://www.w3.org/2000/svg" className={className}>
      <path d="M224.739 361.5C205.908 363.633 182.65 374.654 157.331 374.112C121.082 373.337 85.7983 359.463 66.7953 328.157C53.0833 305.568 61.505 279.954 52.7656 257.249C42.8687 231.537 4.17391 217.328 4.42899 188.831C4.64184 165.052 12.9391 145.832 26.6792 126.908C35.1489 115.243 50.1712 106.835 50.7927 91.1294C52.1887 55.8504 47.6621 49.2194 86.7986 29.3148C135.479 4.55636 151.218 1.13859 205.886 0.0313353C257.972 -1.02362 263.506 24.6595 289.462 61.8459C299.217 75.8219 306.221 76.9261 315.165 86.9615C352.703 129.081 327.944 153.185 318.562 197.167C315.406 211.965 316.14 220.626 321.029 235.76C330.584 265.344 357.343 280.124 343.005 314.517C331.254 342.702 302.292 366.686 271.541 370.269C256.577 372.013 242.202 359.523 224.739 361.5Z" fill="#849483"/>
      <path d="M126.935 22.8682C146.001 20.6948 169.55 9.46396 195.186 10.0156C231.888 10.8053 267.612 24.9444 286.853 56.8476C300.736 79.868 292.209 105.971 301.058 129.109C311.079 155.312 350.257 169.792 349.999 198.833C349.783 223.065 341.382 242.653 327.47 261.937C318.895 273.825 303.685 282.394 303.055 298.399C301.642 334.351 306.225 341.109 266.6 361.393C217.311 386.624 201.375 390.107 146.023 391.236C93.286 392.311 87.6832 366.137 61.4031 328.241C51.5262 313.999 44.4347 312.873 35.379 302.647C-2.62912 259.723 22.4398 235.159 31.9387 190.338C35.1349 175.257 34.3913 166.431 29.4417 151.008C19.7665 120.86 -7.32669 105.797 7.19089 70.7482C19.0879 42.0257 48.4123 17.5842 79.5479 13.932C94.6984 12.1549 109.253 24.8837 126.935 22.8682Z" stroke="#E55496" strokeWidth="6" strokeLinecap="round"/>
      <path d="M157.517 187.907C172.118 150.494 187.432 139.857 212.5 130.03" stroke="#7C4D1A" strokeWidth="12"/>
      <path d="M205.762 223.241C197.17 179.418 204.051 159.612 219.529 134.128" stroke="#9B6021" strokeWidth="12"/>
      <circle cx="152.697" cy="211.025" r="41.1712" fill="#B2161B"/>
      <circle cx="200.3" cy="243.195" r="41.1712" fill="#ED1E24"/>
      <circle cx="219.6" cy="129.971" r="12.866" fill="#9B6021"/>
    </svg>