  <svg width="348" height="393" viewBox="0 0 348 393" fill="none" xmlns="http://www.w3.org/2000/svg" className={className}>
    <path d="M125.406 31.1909C144.236 29.0582 167.495 18.0377 192.814 18.579C229.063 19.3539 264.346 33.2282 283.349 64.534C297.061 87.1233 288.64 112.737 297.379 135.442C307.276 161.155 345.971 175.363 345.716 203.86C345.503 227.639 337.205 246.86 323.465 265.783C314.996 277.448 299.973 285.857 299.352 301.562C297.956 336.841 302.482 343.472 263.346 363.377C214.666 388.135 198.927 391.553 144.258 392.66C92.1721 393.715 86.6384 368.032 60.6828 330.845C50.9278 316.87 43.9239 315.765 34.98 305.73C-2.5589 263.61 22.2005 239.507 31.5822 195.525C34.7389 180.726 34.0045 172.065 29.116 156.931C19.5602 127.347 -7.19846 112.567 7.13986 78.1743C18.89 49.9897 47.8524 26.0059 78.6035 22.4221C93.5671 20.6782 107.942 33.1687 125.406 31.1909Z" fill="#454E9E"/>
    <path d="M222.393 365.88C203.641 368.021 180.479 379.084 155.266 378.54C119.168 377.762 84.0315 363.835 65.1077 332.41C51.4529 309.734 59.8394 284.023 51.1365 261.231C41.2808 235.42 2.74723 221.158 3.00125 192.552C3.21321 168.682 11.4759 149.388 25.1587 130.393C33.5932 118.683 48.5529 110.242 49.1718 94.4772C50.562 59.0636 46.0542 52.4073 85.0276 32.4267C133.505 7.57375 149.179 4.14294 203.619 3.03145C255.488 1.97248 260.999 27.7536 286.846 65.082C296.561 79.1113 303.535 80.2197 312.442 90.2934C349.825 132.574 325.168 156.77 315.826 200.919C312.682 215.775 313.414 224.468 318.282 239.66C327.798 269.357 354.445 284.194 340.166 318.718C328.465 347.01 299.623 371.085 269 374.683C254.099 376.433 239.784 363.895 222.393 365.88Z" stroke="#E55496" strokeWidth="6" strokeLinecap="round"/>
    <path d="M105.814 205.782C105.814 171.082 133.945 142.951 168.646 142.951C203.346 142.951 231.477 171.082 231.477 205.782V213.237C231.477 226.176 220.988 236.666 208.048 236.666H129.243C116.304 236.666 105.814 226.176 105.814 213.237V205.782Z" fill="#D82900"/>
    <path d="M121.787 241.89C121.787 224.299 136.047 210.039 153.638 210.039H184.715C202.306 210.039 216.566 224.299 216.566 241.89C216.566 251.942 208.418 260.091 198.366 260.091H139.988C129.936 260.091 121.787 251.942 121.787 241.89Z" fill="#FFE9D7"/>
    <ellipse cx="169.177" cy="176.496" rx="22.8961" ry="22.8961" fill="white"/>
    <path d="M105.814 196.622C105.814 185.8 114.587 177.027 125.409 177.027C126.35 177.027 127.113 177.79 127.113 178.731V197.616C127.113 207.419 119.167 215.365 109.364 215.365H107.412C106.53 215.365 105.814 214.65 105.814 213.768V196.622Z" fill="white"/>
    <path d="M231.477 195.283C231.477 185.201 223.303 177.027 213.221 177.027C211.54 177.027 210.178 178.39 210.178 180.07V197.616C210.178 207.419 218.124 215.365 227.927 215.365H228.528C230.156 215.365 231.477 214.045 231.477 212.416V195.283Z" fill="white"/>
  </svg>