<svg width="522" height="600" viewBox="0 0 522 600" fill="none"
  xmlns="http://www.w3.org/2000/svg">
  <path
    d="M261.001 0C405.147 2.98607e-05 522 117.201 522 261.776V494H0.00195312C-0.00213673 471.023 0.0019531 305.426 0.00195312 261.776C0.00195312 117.202 116.855 0.000106759 261.001 0Z"
    fill="#26E7CE" />
  <ellipse cx="132.526" cy="238.701" rx="69.5263" ry="69.7012" fill="white" />
  <ellipse cx="346.526" cy="238.701" rx="69.5263" ry="69.7012" fill="white" />
  <ellipse cx="346.912" cy="238.995" rx="32.9119" ry="32.9947" fill="#083F88" />
  <ellipse cx="132.912" cy="238.995" rx="32.9119" ry="32.9947" fill="#083F88" />
  <path
    d="M144 494H232V556C232 580.301 212.301 600 188 600C163.699 600 144 580.301 144 556V494Z"
    fill="#26E7CE" />
  <path
    d="M289 494H377V556C377 580.301 357.301 600 333 600C308.699 600 289 580.301 289 556V494Z"
    fill="#26E7CE" />
  <path
    d="M289 551C289 535.26 276.24 522.5 260.5 522.5C244.76 522.5 232 535.26 232 551V494H289V551Z"
    fill="#26E7CE" />
  <path
    d="M434 494H522V556C522 580.301 502.301 600 478 600C453.699 600 434 580.301 434 556V494Z"
    fill="#26E7CE" />
  <path
    d="M434 550C434 534.536 421.24 522 405.5 522C389.76 522 377 534.536 377 550V494H434V550Z"
    fill="#26E7CE" />
  <path d="M0 494H88V556C88 580.301 68.3005 600 44 600C19.6995 600 0 580.301 0 556V494Z"
    fill="#26E7CE" />
  <path
    d="M144 551C144 535.26 131.464 522.5 116 522.5C100.536 522.5 88 535.26 88 551V494H144V551Z"
    fill="#26E7CE" />
</svg>
