<svg width="49" height="60" viewBox="0 0 49 60" fill="none"
  xmlns="http://www.w3.org/2000/svg">
  <path fill-rule="evenodd" clip-rule="evenodd"
    d="M33.1237 23.334H26.6289V41.5176H15.6367C14.5321 41.5176 13.6367 42.413 13.6367 43.5176V46.0124C13.6367 47.117 14.5322 48.0124 15.6367 48.0124H37.616C38.7206 48.0124 39.616 47.117 39.616 46.0124V43.5176C39.616 42.413 38.7206 41.5176 37.616 41.5176H33.1237V23.334ZM3.24609 50.0137C3.24609 48.9091 4.14152 48.0137 5.24609 48.0137H46.7098C47.8144 48.0137 48.7098 48.9091 48.7098 50.0137V57.7043C48.7098 58.8089 47.8144 59.7043 46.7098 59.7043H5.24609C4.14152 59.7043 3.24609 58.8089 3.24609 57.7043V50.0137Z"
    fill="black" />
  <path
    d="M32.9515 0L33.1236 29.1784C26.6796 25.1544 24.0308 27.23 13.4456 23.4451C2.86032 19.6602 1.69182 15.0124 0 6.4465C4.36319 8.91757 15.9549 4.52159 17.364 3.89689C18.7731 3.27219 28.2876 0.662382 32.9515 0Z"
    fill="#D34941" />
</svg>