<svg width="139" height="140" viewBox="0 0 139 140" fill="none"
  xmlns="http://www.w3.org/2000/svg">
  <rect y="94.2305" width="132" height="64" rx="32" transform="rotate(-45 0 94.2305)"
    fill="#1E342C" />
  <circle cx="45.9766" cy="93.8549" r="22" transform="rotate(45 45.9766 93.8549)"
    fill="#F7F945" />
  <path
    d="M39.7171 99.709L43.9411 88.733H46.8851L51.1091 99.709H48.5331L47.7491 97.549H42.9651L42.1811 99.709H39.7171ZM43.6531 95.629H47.0611L46.0851 92.925C46.0424 92.8077 45.9891 92.669 45.9251 92.509C45.8718 92.3383 45.8131 92.1517 45.7491 91.949C45.6851 91.7463 45.6211 91.549 45.5571 91.357C45.5038 91.1543 45.4504 90.973 45.3971 90.813H45.3011C45.2478 91.0157 45.1784 91.2557 45.0931 91.533C45.0078 91.7997 44.9224 92.061 44.8371 92.317C44.7518 92.5623 44.6824 92.765 44.6291 92.925L43.6531 95.629Z"
    fill="#0B1215" />
  <circle cx="94.2305" cy="45.599" r="22" transform="rotate(45 94.2305 45.599)"
    fill="#D82900" />
  <path
    d="M89.091 51.4531V40.4771H95.363C95.939 40.4771 96.4563 40.5891 96.915 40.8131C97.3843 41.0371 97.7523 41.3518 98.019 41.7571C98.2857 42.1625 98.419 42.6371 98.419 43.1811C98.419 43.6185 98.339 44.0078 98.179 44.3491C98.019 44.6905 97.8003 44.9731 97.523 45.1971C97.2563 45.4211 96.9523 45.5865 96.611 45.6931V45.7571C97.0163 45.8425 97.3737 46.0025 97.683 46.2371C98.003 46.4718 98.2537 46.7758 98.435 47.1491C98.627 47.5118 98.723 47.9438 98.723 48.4451C98.723 49.1065 98.5683 49.6611 98.259 50.1091C97.9603 50.5571 97.5603 50.8931 97.059 51.1171C96.5577 51.3411 95.9977 51.4531 95.379 51.4531H89.091ZM91.475 49.5011H94.915C95.3097 49.5011 95.6297 49.3891 95.875 49.1651C96.131 48.9411 96.259 48.5945 96.259 48.1251C96.259 47.8478 96.2057 47.6078 96.099 47.4051C95.9923 47.2025 95.8323 47.0478 95.619 46.9411C95.4057 46.8238 95.1337 46.7651 94.803 46.7651H91.475V49.5011ZM91.475 44.9091H94.643C94.931 44.9091 95.171 44.8558 95.363 44.7491C95.5657 44.6318 95.715 44.4825 95.811 44.3011C95.9177 44.1091 95.971 43.8905 95.971 43.6451C95.971 43.2291 95.8537 42.9145 95.619 42.7011C95.395 42.4878 95.0963 42.3811 94.723 42.3811H91.475V44.9091Z"
    fill="#0B1215" />
</svg>