<svg width="60" height="60" viewBox="0 0 60 60" fill="none" xmlns="http://www.w3.org/2000/svg">
<path fill-rule="evenodd" clip-rule="evenodd" d="M32.9827 5.1706L29.9976 0L27.035 5.13142C23.4163 5.53824 20.0326 6.72155 17.0544 8.51081L5.38444 5.38378L8.51108 17.0529C6.7205 20.0323 5.53638 23.4177 5.12949 27.0382L0 29.9998L5.16858 32.984C5.60835 36.4785 6.77311 39.7474 8.50748 42.6351L5.38444 54.2907L17.032 51.1697C19.9637 52.9352 23.2892 54.1131 26.8456 54.5405L29.9976 60L33.1737 54.4986C36.6036 54.0397 39.8122 52.8818 42.6516 51.1729L54.2874 54.2907L51.1697 42.6547C52.8783 39.8157 54.0361 36.6075 54.4951 33.1781L60 29.9998L54.537 26.8457C54.1094 23.2897 52.9314 19.9646 51.166 17.0333L54.2874 5.38378L42.6293 8.50765C39.7427 6.77443 36.4755 5.61035 32.9827 5.1706Z" fill="white"/>
</svg>
