<svg width="600" height="599" viewBox="0 0 600 599" fill="none"
  xmlns="http://www.w3.org/2000/svg">
  <path
    d="M572.414 5.43746C577.886 -0.773235 587.376 -1.37717 593.611 4.08852C599.845 9.55422 600.464 19.0198 594.992 25.2305L583.703 15.334L572.414 5.43746ZM583.703 15.334L594.992 25.2305C573.544 49.5745 554.903 66.8723 533.667 79.8193C512.39 92.7917 489.369 100.871 459.908 107.959L456.367 93.3961L452.827 78.8335C480.719 72.1231 500.404 64.964 517.974 54.2514C535.587 43.5134 551.937 28.6793 572.414 5.43746L583.703 15.334Z"
    fill="#838383" />
  <ellipse cx="300" cy="300" rx="300" ry="299" fill="#080808" />
  <path
    d="M432.744 21.296C452.303 1.80237 484.014 1.80239 503.573 21.296L571.587 89.0835C591.146 108.577 591.146 140.183 571.587 159.676L547.222 183.96L408.379 45.5801L432.744 21.296Z"
    fill="#080808" />
  <ellipse cx="186.5" cy="245" rx="74.5" ry="74" fill="white" />
  <ellipse cx="415.5" cy="245" rx="74.5" ry="74" fill="white" />
  <circle cx="415" cy="245" r="35" fill="#083F88" />
  <circle cx="186" cy="245" r="35" fill="#083F88" />
</svg>
