
<svg width="499" height="62" viewBox="0 0 499 62" fill="none" xmlns="http://www.w3.org/2000/svg">
<path fill-rule="evenodd" clip-rule="evenodd" d="M0.00195829 0C0.270622 34.2876 28.149 62 62.5 62C96.851 62 124.729 34.2876 124.998 0H0.00195829ZM125.002 0C125.268 34.2876 152.924 62 187 62C221.076 62 248.732 34.2876 248.998 0H125.002ZM249.002 0C249.271 34.2876 277.149 62 311.5 62C345.851 62 373.729 34.2876 373.998 0H249.002ZM374.002 0C374.271 34.2876 402.149 62 436.5 62C470.851 62 498.729 34.2876 498.998 0H374.002Z" fill="#F4D34B"/>
</svg>