
<svg width="396" height="18" viewBox="0 0 396 18" fill="none" xmlns="http://www.w3.org/2000/svg">
<rect x="0.5" y="1.5" width="15" height="15" rx="7.5" fill="#1E342C" stroke="#1E342C"/>
<rect x="190" y="1" width="16" height="16" rx="8" fill="#1E342C"/>
<path d="M52.596 15.204C50.6467 15.204 49.1847 14.694 48.21 13.674C47.2467 12.654 46.765 11.1467 46.765 9.152C46.765 7.81467 47.0143 6.69833 47.513 5.803C48.0117 4.90767 48.737 4.23333 49.689 3.78C50.641 3.32667 51.7913 3.1 53.14 3.1C53.956 3.1 54.721 3.19633 55.435 3.389C56.1603 3.57033 56.795 3.848 57.339 4.222C57.8943 4.58467 58.325 5.04367 58.631 5.599C58.937 6.15433 59.09 6.80033 59.09 7.537H55.503C55.503 7.28767 55.4407 7.061 55.316 6.857C55.2027 6.653 55.044 6.483 54.84 6.347C54.636 6.19967 54.398 6.092 54.126 6.024C53.8653 5.94467 53.5877 5.905 53.293 5.905C52.851 5.905 52.46 5.96733 52.12 6.092C51.78 6.20533 51.4967 6.381 51.27 6.619C51.0547 6.857 50.8903 7.14033 50.777 7.469C50.6637 7.79767 50.607 8.17733 50.607 8.608V9.696C50.607 10.2627 50.7033 10.75 50.896 11.158C51.1 11.5547 51.4003 11.8607 51.797 12.076C52.205 12.2913 52.7037 12.399 53.293 12.399C53.6897 12.399 54.0523 12.3423 54.381 12.229C54.721 12.1043 54.993 11.9287 55.197 11.702C55.401 11.4753 55.503 11.2147 55.503 10.92V10.852H52.851V8.472H59.09V15H57.152L56.778 13.844C56.4267 14.1387 56.0413 14.388 55.622 14.592C55.2027 14.796 54.7437 14.949 54.245 15.051C53.7463 15.153 53.1967 15.204 52.596 15.204ZM60.3311 15L64.5981 3.304H68.9671L73.2341 15H69.2561L68.7631 13.351H64.6661L64.1731 15H60.3311ZM65.4481 10.733H67.9981L67.4371 8.863C67.3918 8.727 67.3408 8.56267 67.2841 8.37C67.2275 8.17733 67.1708 7.97333 67.1141 7.758C67.0575 7.54267 67.0008 7.333 66.9441 7.129C66.8875 6.91367 66.8365 6.72667 66.7911 6.568H66.6551C66.6098 6.772 66.5475 7.00433 66.4681 7.265C66.4001 7.52567 66.3265 7.79767 66.2471 8.081C66.1678 8.353 66.0885 8.61367 66.0091 8.863L65.4481 10.733ZM74.6506 15V3.304H79.8866L80.9576 7.418C81.0029 7.56533 81.0652 7.809 81.1446 8.149C81.2352 8.489 81.3259 8.85733 81.4166 9.254C81.5186 9.65067 81.6092 10.019 81.6886 10.359H81.8246C81.8812 10.1097 81.9492 9.815 82.0286 9.475C82.1192 9.12367 82.2099 8.76667 82.3006 8.404C82.3912 8.04133 82.4706 7.71267 82.5386 7.418L83.6096 3.304H88.6586V15H85.0716V10.784C85.0716 10.3307 85.0716 9.866 85.0716 9.39C85.0829 8.90267 85.0886 8.44367 85.0886 8.013C85.0999 7.58233 85.1056 7.22533 85.1056 6.942H84.9696C84.9356 7.16867 84.8846 7.435 84.8166 7.741C84.7599 8.047 84.6976 8.353 84.6296 8.659C84.5616 8.95367 84.4936 9.21433 84.4256 9.441L82.9126 15H80.1076L78.5776 9.441C78.5209 9.21433 78.4529 8.95367 78.3736 8.659C78.3056 8.353 78.2432 8.047 78.1866 7.741C78.1299 7.435 78.0789 7.17433 78.0336 6.959H77.8976C77.9089 7.24233 77.9202 7.59933 77.9316 8.03C77.9429 8.46067 77.9486 8.914 77.9486 9.39C77.9599 9.866 77.9656 10.3307 77.9656 10.784V15H74.6506ZM91.2201 15V3.304H101.335V6.109H94.9771V7.724H100.417V10.41H94.9771V12.195H101.454V15H91.2201ZM111.949 15.204C110.748 15.204 109.711 14.983 108.838 14.541C107.977 14.0877 107.314 13.4133 106.849 12.518C106.385 11.6227 106.152 10.5063 106.152 9.169C106.152 7.82033 106.385 6.704 106.849 5.82C107.314 4.92467 107.977 4.256 108.838 3.814C109.711 3.36067 110.748 3.134 111.949 3.134C113.162 3.134 114.199 3.36067 115.06 3.814C115.933 4.256 116.596 4.92467 117.049 5.82C117.514 6.704 117.746 7.82033 117.746 9.169C117.746 10.5063 117.514 11.6227 117.049 12.518C116.596 13.4133 115.933 14.0877 115.06 14.541C114.199 14.983 113.162 15.204 111.949 15.204ZM111.949 14.048C112.618 14.048 113.224 13.963 113.768 13.793C114.312 13.6117 114.777 13.3283 115.162 12.943C115.548 12.5577 115.842 12.0703 116.046 11.481C116.262 10.8917 116.369 10.1833 116.369 9.356V8.999C116.369 8.16033 116.262 7.44633 116.046 6.857C115.842 6.26767 115.548 5.78033 115.162 5.395C114.777 5.00967 114.312 4.732 113.768 4.562C113.224 4.38067 112.618 4.29 111.949 4.29C111.281 4.29 110.674 4.38067 110.13 4.562C109.598 4.732 109.139 5.00967 108.753 5.395C108.368 5.78033 108.068 6.26767 107.852 6.857C107.648 7.44633 107.546 8.16033 107.546 8.999V9.356C107.546 10.1833 107.648 10.8917 107.852 11.481C108.068 12.0703 108.368 12.5577 108.753 12.943C109.139 13.3283 109.598 13.6117 110.13 13.793C110.674 13.963 111.281 14.048 111.949 14.048ZM123.055 15L118.652 3.338H120.097L123.208 11.702C123.276 11.8833 123.35 12.093 123.429 12.331C123.509 12.5577 123.588 12.7843 123.667 13.011C123.747 13.2263 123.815 13.4247 123.871 13.606H123.99C124.047 13.436 124.115 13.2433 124.194 13.028C124.274 12.8013 124.353 12.5747 124.432 12.348C124.512 12.11 124.585 11.9003 124.653 11.719L127.73 3.338H129.141L124.721 15H123.055ZM130.854 15V3.338H139.779V4.494H132.197V8.438H139.031V9.611H132.197V13.844H139.881V15H130.854ZM142.392 15V3.338H148.512C149.282 3.338 149.917 3.48533 150.416 3.78C150.926 4.06333 151.305 4.45433 151.555 4.953C151.815 5.45167 151.946 6.01833 151.946 6.653C151.946 7.48033 151.753 8.183 151.368 8.761C150.994 9.32767 150.495 9.73 149.872 9.968L152.354 15H150.875L148.546 10.206H143.735V15H142.392ZM143.735 9.05H148.376C149.067 9.05 149.611 8.84033 150.008 8.421C150.404 7.99033 150.603 7.401 150.603 6.653C150.603 6.19967 150.518 5.81433 150.348 5.497C150.178 5.17967 149.928 4.936 149.6 4.766C149.271 4.58467 148.863 4.494 148.376 4.494H143.735V9.05Z" fill="#1E342C"/>
<path d="M253.208 15.192C251.373 15.192 249.997 14.712 249.08 13.752C248.173 12.792 247.72 11.3733 247.72 9.496C247.72 8.23733 247.955 7.18667 248.424 6.344C248.893 5.50133 249.576 4.86667 250.472 4.44C251.368 4.01333 252.451 3.8 253.72 3.8C254.488 3.8 255.208 3.89067 255.88 4.072C256.563 4.24267 257.16 4.504 257.672 4.856C258.195 5.19733 258.6 5.62933 258.888 6.152C259.176 6.67467 259.32 7.28267 259.32 7.976H255.944C255.944 7.74133 255.885 7.528 255.768 7.336C255.661 7.144 255.512 6.984 255.32 6.856C255.128 6.71733 254.904 6.616 254.648 6.552C254.403 6.47733 254.141 6.44 253.864 6.44C253.448 6.44 253.08 6.49867 252.76 6.616C252.44 6.72267 252.173 6.888 251.96 7.112C251.757 7.336 251.603 7.60267 251.496 7.912C251.389 8.22133 251.336 8.57867 251.336 8.984V10.008C251.336 10.5413 251.427 11 251.608 11.384C251.8 11.7573 252.083 12.0453 252.456 12.248C252.84 12.4507 253.309 12.552 253.864 12.552C254.237 12.552 254.579 12.4987 254.888 12.392C255.208 12.2747 255.464 12.1093 255.656 11.896C255.848 11.6827 255.944 11.4373 255.944 11.16V11.096H253.448V8.856H259.32V15H257.496L257.144 13.912C256.813 14.1893 256.451 14.424 256.056 14.616C255.661 14.808 255.229 14.952 254.76 15.048C254.291 15.144 253.773 15.192 253.208 15.192ZM260.488 15L264.504 3.992H268.616L272.632 15H268.888L268.424 13.448H264.568L264.104 15H260.488ZM265.304 10.984H267.704L267.176 9.224C267.133 9.096 267.085 8.94133 267.032 8.76C266.979 8.57867 266.925 8.38667 266.872 8.184C266.819 7.98133 266.765 7.784 266.712 7.592C266.659 7.38933 266.611 7.21333 266.568 7.064H266.44C266.397 7.256 266.339 7.47467 266.264 7.72C266.2 7.96533 266.131 8.22133 266.056 8.488C265.981 8.744 265.907 8.98933 265.832 9.224L265.304 10.984ZM273.965 15V3.992H278.893L279.901 7.864C279.944 8.00267 280.003 8.232 280.077 8.552C280.163 8.872 280.248 9.21867 280.333 9.592C280.429 9.96533 280.515 10.312 280.589 10.632H280.717C280.771 10.3973 280.835 10.12 280.909 9.8C280.995 9.46933 281.08 9.13333 281.165 8.792C281.251 8.45067 281.325 8.14133 281.389 7.864L282.397 3.992H287.149V15H283.773V11.032C283.773 10.6053 283.773 10.168 283.773 9.72C283.784 9.26133 283.789 8.82933 283.789 8.424C283.8 8.01867 283.805 7.68267 283.805 7.416H283.677C283.645 7.62933 283.597 7.88 283.533 8.168C283.48 8.456 283.421 8.744 283.357 9.032C283.293 9.30933 283.229 9.55467 283.165 9.768L281.741 15H279.101L277.661 9.768C277.608 9.55467 277.544 9.30933 277.469 9.032C277.405 8.744 277.347 8.456 277.293 8.168C277.24 7.88 277.192 7.63467 277.149 7.432H277.021C277.032 7.69867 277.043 8.03467 277.053 8.44C277.064 8.84533 277.069 9.272 277.069 9.72C277.08 10.168 277.085 10.6053 277.085 11.032V15H273.965ZM289.56 15V3.992H299.08V6.632H293.096V8.152H298.216V10.68H293.096V12.36H299.192V15H289.56ZM309.07 15.192C307.939 15.192 306.963 14.984 306.142 14.568C305.331 14.1413 304.707 13.5067 304.27 12.664C303.833 11.8213 303.614 10.7707 303.614 9.512C303.614 8.24267 303.833 7.192 304.27 6.36C304.707 5.51733 305.331 4.888 306.142 4.472C306.963 4.04533 307.939 3.832 309.07 3.832C310.211 3.832 311.187 4.04533 311.998 4.472C312.819 4.888 313.443 5.51733 313.87 6.36C314.307 7.192 314.526 8.24267 314.526 9.512C314.526 10.7707 314.307 11.8213 313.87 12.664C313.443 13.5067 312.819 14.1413 311.998 14.568C311.187 14.984 310.211 15.192 309.07 15.192ZM309.07 14.104C309.699 14.104 310.27 14.024 310.782 13.864C311.294 13.6933 311.731 13.4267 312.094 13.064C312.457 12.7013 312.734 12.2427 312.926 11.688C313.129 11.1333 313.23 10.4667 313.23 9.688V9.352C313.23 8.56267 313.129 7.89067 312.926 7.336C312.734 6.78133 312.457 6.32267 312.094 5.96C311.731 5.59733 311.294 5.336 310.782 5.176C310.27 5.00533 309.699 4.92 309.07 4.92C308.441 4.92 307.87 5.00533 307.358 5.176C306.857 5.336 306.425 5.59733 306.062 5.96C305.699 6.32267 305.417 6.78133 305.214 7.336C305.022 7.89067 304.926 8.56267 304.926 9.352V9.688C304.926 10.4667 305.022 11.1333 305.214 11.688C305.417 12.2427 305.699 12.7013 306.062 13.064C306.425 13.4267 306.857 13.6933 307.358 13.864C307.87 14.024 308.441 14.104 309.07 14.104ZM319.523 15L315.379 4.024H316.739L319.667 11.896C319.731 12.0667 319.8 12.264 319.875 12.488C319.949 12.7013 320.024 12.9147 320.099 13.128C320.173 13.3307 320.237 13.5173 320.291 13.688H320.403C320.456 13.528 320.52 13.3467 320.595 13.144C320.669 12.9307 320.744 12.7173 320.819 12.504C320.893 12.28 320.963 12.0827 321.027 11.912L323.923 4.024H325.251L321.091 15H319.523ZM326.862 15V4.024H335.262V5.112H328.126V8.824H334.558V9.928H328.126V13.912H335.358V15H326.862ZM337.722 15V4.024H343.482C344.207 4.024 344.804 4.16267 345.274 4.44C345.754 4.70667 346.111 5.07467 346.346 5.544C346.591 6.01333 346.714 6.54667 346.714 7.144C346.714 7.92267 346.532 8.584 346.17 9.128C345.818 9.66133 345.348 10.04 344.762 10.264L347.098 15H345.706L343.514 10.488H338.986V15H337.722ZM338.986 9.4H343.354C344.004 9.4 344.516 9.20267 344.89 8.808C345.263 8.40267 345.45 7.848 345.45 7.144C345.45 6.71733 345.37 6.35467 345.21 6.056C345.05 5.75733 344.815 5.528 344.506 5.368C344.196 5.19733 343.812 5.112 343.354 5.112H338.986V9.4Z" fill="#1E342C"/>
</svg>
