<svg width="131" height="131" viewBox="0 0 131 131" fill="none" xmlns="http://www.w3.org/2000/svg">
<rect y="91.2305" width="128" height="56" rx="28" transform="rotate(-45 0 91.2305)" fill="#1E342C"/>
<circle cx="40.9766" cy="89.8549" r="22" transform="rotate(45 40.9766 89.8549)" fill="#F7F945"/>
<path d="M34.7171 95.709L38.9411 84.733H41.8851L46.1091 95.709H43.5331L42.7491 93.549H37.9651L37.1811 95.709H34.7171ZM38.6531 91.629H42.0611L41.0851 88.925C41.0424 88.8077 40.9891 88.669 40.9251 88.509C40.8718 88.3383 40.8131 88.1517 40.7491 87.949C40.6851 87.7463 40.6211 87.549 40.5571 87.357C40.5038 87.1543 40.4504 86.973 40.3971 86.813H40.3011C40.2478 87.0157 40.1784 87.2557 40.0931 87.533C40.0078 87.7997 39.9224 88.061 39.8371 88.317C39.7518 88.5623 39.6824 88.765 39.6291 88.925L38.6531 91.629Z" fill="#0B1215"/>
<circle cx="89.2305" cy="41.599" r="22" transform="rotate(45 89.2305 41.599)" fill="#D82900"/>
<path d="M84.091 47.4531V36.4771H90.363C90.939 36.4771 91.4563 36.5891 91.915 36.8131C92.3843 37.0371 92.7523 37.3518 93.019 37.7571C93.2857 38.1625 93.419 38.6371 93.419 39.1811C93.419 39.6185 93.339 40.0078 93.179 40.3491C93.019 40.6905 92.8003 40.9731 92.523 41.1971C92.2563 41.4211 91.9523 41.5865 91.611 41.6931V41.7571C92.0163 41.8425 92.3737 42.0025 92.683 42.2371C93.003 42.4718 93.2537 42.7758 93.435 43.1491C93.627 43.5118 93.723 43.9438 93.723 44.4451C93.723 45.1065 93.5683 45.6611 93.259 46.1091C92.9603 46.5571 92.5603 46.8931 92.059 47.1171C91.5577 47.3411 90.9977 47.4531 90.379 47.4531H84.091ZM86.475 45.5011H89.915C90.3097 45.5011 90.6297 45.3891 90.875 45.1651C91.131 44.9411 91.259 44.5945 91.259 44.1251C91.259 43.8478 91.2057 43.6078 91.099 43.4051C90.9923 43.2025 90.8323 43.0478 90.619 42.9411C90.4057 42.8238 90.1337 42.7651 89.803 42.7651H86.475V45.5011ZM86.475 40.9091H89.643C89.931 40.9091 90.171 40.8558 90.363 40.7491C90.5657 40.6318 90.715 40.4825 90.811 40.3011C90.9177 40.1091 90.971 39.8905 90.971 39.6451C90.971 39.2291 90.8537 38.9145 90.619 38.7011C90.395 38.4878 90.0963 38.3811 89.723 38.3811H86.475V40.9091Z" fill="#0B1215"/>
</svg>
