<svg width="395" height="18" viewBox="0 0 395 18" fill="none" xmlns="http://www.w3.org/2000/svg">
<rect x="0.5" y="1.5" width="15" height="15" rx="7.5" fill="#1E342C" stroke="#1E342C"/>
<rect x="193" y="1" width="16" height="16" rx="8" fill="#1E342C"/>
<path d="M46.596 15.204C44.6467 15.204 43.1847 14.694 42.21 13.674C41.2467 12.654 40.765 11.1467 40.765 9.152C40.765 7.81467 41.0143 6.69833 41.513 5.803C42.0117 4.90767 42.737 4.23333 43.689 3.78C44.641 3.32667 45.7913 3.1 47.14 3.1C47.956 3.1 48.721 3.19633 49.435 3.389C50.1603 3.57033 50.795 3.848 51.339 4.222C51.8943 4.58467 52.325 5.04367 52.631 5.599C52.937 6.15433 53.09 6.80033 53.09 7.537H49.503C49.503 7.28767 49.4407 7.061 49.316 6.857C49.2027 6.653 49.044 6.483 48.84 6.347C48.636 6.19967 48.398 6.092 48.126 6.024C47.8653 5.94467 47.5877 5.905 47.293 5.905C46.851 5.905 46.46 5.96733 46.12 6.092C45.78 6.20533 45.4967 6.381 45.27 6.619C45.0547 6.857 44.8903 7.14033 44.777 7.469C44.6637 7.79767 44.607 8.17733 44.607 8.608V9.696C44.607 10.2627 44.7033 10.75 44.896 11.158C45.1 11.5547 45.4003 11.8607 45.797 12.076C46.205 12.2913 46.7037 12.399 47.293 12.399C47.6897 12.399 48.0523 12.3423 48.381 12.229C48.721 12.1043 48.993 11.9287 49.197 11.702C49.401 11.4753 49.503 11.2147 49.503 10.92V10.852H46.851V8.472H53.09V15H51.152L50.778 13.844C50.4267 14.1387 50.0413 14.388 49.622 14.592C49.2027 14.796 48.7437 14.949 48.245 15.051C47.7463 15.153 47.1967 15.204 46.596 15.204ZM54.3311 15L58.5981 3.304H62.9671L67.2341 15H63.2561L62.7631 13.351H58.6661L58.1731 15H54.3311ZM59.4481 10.733H61.9981L61.4371 8.863C61.3918 8.727 61.3408 8.56267 61.2841 8.37C61.2275 8.17733 61.1708 7.97333 61.1141 7.758C61.0575 7.54267 61.0008 7.333 60.9441 7.129C60.8875 6.91367 60.8365 6.72667 60.7911 6.568H60.6551C60.6098 6.772 60.5475 7.00433 60.4681 7.265C60.4001 7.52567 60.3265 7.79767 60.2471 8.081C60.1678 8.353 60.0885 8.61367 60.0091 8.863L59.4481 10.733ZM68.6506 15V3.304H73.8866L74.9576 7.418C75.0029 7.56533 75.0652 7.809 75.1446 8.149C75.2352 8.489 75.3259 8.85733 75.4166 9.254C75.5186 9.65067 75.6092 10.019 75.6886 10.359H75.8246C75.8812 10.1097 75.9492 9.815 76.0286 9.475C76.1192 9.12367 76.2099 8.76667 76.3006 8.404C76.3912 8.04133 76.4706 7.71267 76.5386 7.418L77.6096 3.304H82.6586V15H79.0716V10.784C79.0716 10.3307 79.0716 9.866 79.0716 9.39C79.0829 8.90267 79.0886 8.44367 79.0886 8.013C79.0999 7.58233 79.1056 7.22533 79.1056 6.942H78.9696C78.9356 7.16867 78.8846 7.435 78.8166 7.741C78.7599 8.047 78.6976 8.353 78.6296 8.659C78.5616 8.95367 78.4936 9.21433 78.4256 9.441L76.9126 15H74.1076L72.5776 9.441C72.5209 9.21433 72.4529 8.95367 72.3736 8.659C72.3056 8.353 72.2432 8.047 72.1866 7.741C72.1299 7.435 72.0789 7.17433 72.0336 6.959H71.8976C71.9089 7.24233 71.9202 7.59933 71.9316 8.03C71.9429 8.46067 71.9486 8.914 71.9486 9.39C71.9599 9.866 71.9656 10.3307 71.9656 10.784V15H68.6506ZM85.2201 15V3.304H95.3351V6.109H88.9771V7.724H94.4171V10.41H88.9771V12.195H95.4541V15H85.2201ZM100.781 15V3.338H102.124V13.827H107.887V15H100.781ZM114.267 15.204C113.065 15.204 112.028 14.983 111.156 14.541C110.294 14.0877 109.631 13.4133 109.167 12.518C108.702 11.6227 108.47 10.5063 108.47 9.169C108.47 7.82033 108.702 6.704 109.167 5.82C109.631 4.92467 110.294 4.256 111.156 3.814C112.028 3.36067 113.065 3.134 114.267 3.134C115.479 3.134 116.516 3.36067 117.378 3.814C118.25 4.256 118.913 4.92467 119.367 5.82C119.831 6.704 120.064 7.82033 120.064 9.169C120.064 10.5063 119.831 11.6227 119.367 12.518C118.913 13.4133 118.25 14.0877 117.378 14.541C116.516 14.983 115.479 15.204 114.267 15.204ZM114.267 14.048C114.935 14.048 115.542 13.963 116.086 13.793C116.63 13.6117 117.094 13.3283 117.48 12.943C117.865 12.5577 118.16 12.0703 118.364 11.481C118.579 10.8917 118.687 10.1833 118.687 9.356V8.999C118.687 8.16033 118.579 7.44633 118.364 6.857C118.16 6.26767 117.865 5.78033 117.48 5.395C117.094 5.00967 116.63 4.732 116.086 4.562C115.542 4.38067 114.935 4.29 114.267 4.29C113.598 4.29 112.992 4.38067 112.448 4.562C111.915 4.732 111.456 5.00967 111.071 5.395C110.685 5.78033 110.385 6.26767 110.17 6.857C109.966 7.44633 109.864 8.16033 109.864 8.999V9.356C109.864 10.1833 109.966 10.8917 110.17 11.481C110.385 12.0703 110.685 12.5577 111.071 12.943C111.456 13.3283 111.915 13.6117 112.448 13.793C112.992 13.963 113.598 14.048 114.267 14.048ZM120.936 15L125.577 3.338H127.379L132.037 15H130.592L129.368 11.923H123.52L122.313 15H120.936ZM123.979 10.767H128.909L127.379 6.874C127.345 6.78333 127.294 6.64733 127.226 6.466C127.158 6.28467 127.078 6.08067 126.988 5.854C126.908 5.616 126.823 5.378 126.733 5.14C126.653 4.902 126.574 4.68667 126.495 4.494H126.376C126.308 4.70933 126.217 4.96433 126.104 5.259C126.002 5.55367 125.894 5.84833 125.781 6.143C125.679 6.42633 125.588 6.67 125.509 6.874L123.979 10.767ZM133.719 15V3.338H137.918C139.165 3.338 140.219 3.542 141.08 3.95C141.953 4.34667 142.616 4.97567 143.069 5.837C143.534 6.687 143.766 7.79767 143.766 9.169C143.766 10.5177 143.534 11.6227 143.069 12.484C142.616 13.3453 141.953 13.98 141.08 14.388C140.219 14.796 139.165 15 137.918 15H133.719ZM135.062 13.844H137.867C138.558 13.844 139.182 13.7647 139.737 13.606C140.292 13.436 140.768 13.1753 141.165 12.824C141.562 12.4613 141.862 11.9967 142.066 11.43C142.27 10.8633 142.372 10.1777 142.372 9.373V9.016C142.372 8.18867 142.27 7.49167 142.066 6.925C141.862 6.347 141.562 5.88233 141.165 5.531C140.78 5.16833 140.309 4.90767 139.754 4.749C139.199 4.579 138.57 4.494 137.867 4.494H135.062V13.844ZM146.253 15V3.338H155.178V4.494H147.596V8.438H154.43V9.611H147.596V13.844H155.28V15H146.253ZM157.791 15V3.338H161.99C163.237 3.338 164.291 3.542 165.152 3.95C166.025 4.34667 166.688 4.97567 167.141 5.837C167.606 6.687 167.838 7.79767 167.838 9.169C167.838 10.5177 167.606 11.6227 167.141 12.484C166.688 13.3453 166.025 13.98 165.152 14.388C164.291 14.796 163.237 15 161.99 15H157.791ZM159.134 13.844H161.939C162.63 13.844 163.254 13.7647 163.809 13.606C164.364 13.436 164.84 13.1753 165.237 12.824C165.634 12.4613 165.934 11.9967 166.138 11.43C166.342 10.8633 166.444 10.1777 166.444 9.373V9.016C166.444 8.18867 166.342 7.49167 166.138 6.925C165.934 6.347 165.634 5.88233 165.237 5.531C164.852 5.16833 164.381 4.90767 163.826 4.749C163.271 4.579 162.642 4.494 161.939 4.494H159.134V13.844Z" fill="#1E342C"/>
<path d="M239.208 15.192C237.373 15.192 235.997 14.712 235.08 13.752C234.173 12.792 233.72 11.3733 233.72 9.496C233.72 8.23733 233.955 7.18667 234.424 6.344C234.893 5.50133 235.576 4.86667 236.472 4.44C237.368 4.01333 238.451 3.8 239.72 3.8C240.488 3.8 241.208 3.89067 241.88 4.072C242.563 4.24267 243.16 4.504 243.672 4.856C244.195 5.19733 244.6 5.62933 244.888 6.152C245.176 6.67467 245.32 7.28267 245.32 7.976H241.944C241.944 7.74133 241.885 7.528 241.768 7.336C241.661 7.144 241.512 6.984 241.32 6.856C241.128 6.71733 240.904 6.616 240.648 6.552C240.403 6.47733 240.141 6.44 239.864 6.44C239.448 6.44 239.08 6.49867 238.76 6.616C238.44 6.72267 238.173 6.888 237.96 7.112C237.757 7.336 237.603 7.60267 237.496 7.912C237.389 8.22133 237.336 8.57867 237.336 8.984V10.008C237.336 10.5413 237.427 11 237.608 11.384C237.8 11.7573 238.083 12.0453 238.456 12.248C238.84 12.4507 239.309 12.552 239.864 12.552C240.237 12.552 240.579 12.4987 240.888 12.392C241.208 12.2747 241.464 12.1093 241.656 11.896C241.848 11.6827 241.944 11.4373 241.944 11.16V11.096H239.448V8.856H245.32V15H243.496L243.144 13.912C242.813 14.1893 242.451 14.424 242.056 14.616C241.661 14.808 241.229 14.952 240.76 15.048C240.291 15.144 239.773 15.192 239.208 15.192ZM246.488 15L250.504 3.992H254.616L258.632 15H254.888L254.424 13.448H250.568L250.104 15H246.488ZM251.304 10.984H253.704L253.176 9.224C253.133 9.096 253.085 8.94133 253.032 8.76C252.979 8.57867 252.925 8.38667 252.872 8.184C252.819 7.98133 252.765 7.784 252.712 7.592C252.659 7.38933 252.611 7.21333 252.568 7.064H252.44C252.397 7.256 252.339 7.47467 252.264 7.72C252.2 7.96533 252.131 8.22133 252.056 8.488C251.981 8.744 251.907 8.98933 251.832 9.224L251.304 10.984ZM259.965 15V3.992H264.893L265.901 7.864C265.944 8.00267 266.003 8.232 266.077 8.552C266.163 8.872 266.248 9.21867 266.333 9.592C266.429 9.96533 266.515 10.312 266.589 10.632H266.717C266.771 10.3973 266.835 10.12 266.909 9.8C266.995 9.46933 267.08 9.13333 267.165 8.792C267.251 8.45067 267.325 8.14133 267.389 7.864L268.397 3.992H273.149V15H269.773V11.032C269.773 10.6053 269.773 10.168 269.773 9.72C269.784 9.26133 269.789 8.82933 269.789 8.424C269.8 8.01867 269.805 7.68267 269.805 7.416H269.677C269.645 7.62933 269.597 7.88 269.533 8.168C269.48 8.456 269.421 8.744 269.357 9.032C269.293 9.30933 269.229 9.55467 269.165 9.768L267.741 15H265.101L263.661 9.768C263.608 9.55467 263.544 9.30933 263.469 9.032C263.405 8.744 263.347 8.456 263.293 8.168C263.24 7.88 263.192 7.63467 263.149 7.432H263.021C263.032 7.69867 263.043 8.03467 263.053 8.44C263.064 8.84533 263.069 9.272 263.069 9.72C263.08 10.168 263.085 10.6053 263.085 11.032V15H259.965ZM275.56 15V3.992H285.08V6.632H279.096V8.152H284.216V10.68H279.096V12.36H285.192V15H275.56ZM290.206 15V4.024H291.47V13.896H296.894V15H290.206ZM302.898 15.192C301.767 15.192 300.791 14.984 299.97 14.568C299.159 14.1413 298.535 13.5067 298.098 12.664C297.661 11.8213 297.442 10.7707 297.442 9.512C297.442 8.24267 297.661 7.192 298.098 6.36C298.535 5.51733 299.159 4.888 299.97 4.472C300.791 4.04533 301.767 3.832 302.898 3.832C304.039 3.832 305.015 4.04533 305.826 4.472C306.647 4.888 307.271 5.51733 307.698 6.36C308.135 7.192 308.354 8.24267 308.354 9.512C308.354 10.7707 308.135 11.8213 307.698 12.664C307.271 13.5067 306.647 14.1413 305.826 14.568C305.015 14.984 304.039 15.192 302.898 15.192ZM302.898 14.104C303.527 14.104 304.098 14.024 304.61 13.864C305.122 13.6933 305.559 13.4267 305.922 13.064C306.285 12.7013 306.562 12.2427 306.754 11.688C306.957 11.1333 307.058 10.4667 307.058 9.688V9.352C307.058 8.56267 306.957 7.89067 306.754 7.336C306.562 6.78133 306.285 6.32267 305.922 5.96C305.559 5.59733 305.122 5.336 304.61 5.176C304.098 5.00533 303.527 4.92 302.898 4.92C302.269 4.92 301.698 5.00533 301.186 5.176C300.685 5.336 300.253 5.59733 299.89 5.96C299.527 6.32267 299.245 6.78133 299.042 7.336C298.85 7.89067 298.754 8.56267 298.754 9.352V9.688C298.754 10.4667 298.85 11.1333 299.042 11.688C299.245 12.2427 299.527 12.7013 299.89 13.064C300.253 13.4267 300.685 13.6933 301.186 13.864C301.698 14.024 302.269 14.104 302.898 14.104ZM309.175 15L313.543 4.024H315.239L319.623 15H318.263L317.111 12.104H311.607L310.471 15H309.175ZM312.039 11.016H316.679L315.239 7.352C315.207 7.26667 315.159 7.13867 315.095 6.968C315.031 6.79733 314.956 6.60533 314.871 6.392C314.796 6.168 314.716 5.944 314.631 5.72C314.556 5.496 314.482 5.29333 314.407 5.112H314.295C314.231 5.31467 314.146 5.55467 314.039 5.832C313.943 6.10933 313.842 6.38667 313.735 6.664C313.639 6.93067 313.554 7.16 313.479 7.352L312.039 11.016ZM321.206 15V4.024H325.158C326.331 4.024 327.323 4.216 328.134 4.6C328.955 4.97333 329.579 5.56533 330.006 6.376C330.443 7.176 330.662 8.22133 330.662 9.512C330.662 10.7813 330.443 11.8213 330.006 12.632C329.579 13.4427 328.955 14.04 328.134 14.424C327.323 14.808 326.331 15 325.158 15H321.206ZM322.47 13.912H325.11C325.761 13.912 326.347 13.8373 326.87 13.688C327.393 13.528 327.841 13.2827 328.214 12.952C328.587 12.6107 328.87 12.1733 329.062 11.64C329.254 11.1067 329.35 10.4613 329.35 9.704V9.368C329.35 8.58933 329.254 7.93333 329.062 7.4C328.87 6.856 328.587 6.41867 328.214 6.088C327.851 5.74667 327.409 5.50133 326.886 5.352C326.363 5.192 325.771 5.112 325.11 5.112H322.47V13.912ZM333.003 15V4.024H341.403V5.112H334.267V8.824H340.699V9.928H334.267V13.912H341.499V15H333.003ZM343.862 15V4.024H347.814C348.988 4.024 349.98 4.216 350.79 4.6C351.612 4.97333 352.236 5.56533 352.662 6.376C353.1 7.176 353.318 8.22133 353.318 9.512C353.318 10.7813 353.1 11.8213 352.662 12.632C352.236 13.4427 351.612 14.04 350.79 14.424C349.98 14.808 348.988 15 347.814 15H343.862ZM345.126 13.912H347.766C348.417 13.912 349.004 13.8373 349.526 13.688C350.049 13.528 350.497 13.2827 350.87 12.952C351.244 12.6107 351.526 12.1733 351.718 11.64C351.91 11.1067 352.006 10.4613 352.006 9.704V9.368C352.006 8.58933 351.91 7.93333 351.718 7.4C351.526 6.856 351.244 6.41867 350.87 6.088C350.508 5.74667 350.065 5.50133 349.542 5.352C349.02 5.192 348.428 5.112 347.766 5.112H345.126V13.912Z" fill="#1E342C"/>
</svg>
