
<svg width="127" height="131" viewBox="0 0 127 131" fill="none" xmlns="http://www.w3.org/2000/svg">
<rect x="0.945312" y="91.2305" width="128" height="56" rx="28" transform="rotate(-45 0.945312 91.2305)" fill="#959595"/>
<circle cx="43.9219" cy="87.8549" r="22" transform="rotate(45 43.9219 87.8549)" fill="#F8D441"/>
<path d="M37.6624 93.709L41.8864 82.733H44.8304L49.0544 93.709H46.4784L45.6944 91.549H40.9104L40.1264 93.709H37.6624ZM41.5984 89.629H45.0064L44.0304 86.925C43.9877 86.8077 43.9344 86.669 43.8704 86.509C43.8171 86.3383 43.7584 86.1517 43.6944 85.949C43.6304 85.7463 43.5664 85.549 43.5024 85.357C43.4491 85.1543 43.3957 84.973 43.3424 84.813H43.2464C43.1931 85.0157 43.1237 85.2557 43.0384 85.533C42.9531 85.7997 42.8677 86.061 42.7824 86.317C42.6971 86.5623 42.6277 86.765 42.5744 86.925L41.5984 89.629Z" fill="#1E342C"/>
<circle cx="89.1758" cy="42.599" r="22" transform="rotate(45 89.1758 42.599)" fill="#ED1C24"/>
<path d="M84.0363 48.4531V37.4771H90.3083C90.8843 37.4771 91.4016 37.5891 91.8603 37.8131C92.3296 38.0371 92.6976 38.3518 92.9643 38.7571C93.231 39.1625 93.3643 39.6371 93.3643 40.1811C93.3643 40.6185 93.2843 41.0078 93.1243 41.3491C92.9643 41.6905 92.7456 41.9731 92.4683 42.1971C92.2016 42.4211 91.8976 42.5865 91.5563 42.6931V42.7571C91.9616 42.8425 92.319 43.0025 92.6283 43.2371C92.9483 43.4718 93.199 43.7758 93.3803 44.1491C93.5723 44.5118 93.6683 44.9438 93.6683 45.4451C93.6683 46.1065 93.5136 46.6611 93.2043 47.1091C92.9056 47.5571 92.5056 47.8931 92.0043 48.1171C91.503 48.3411 90.943 48.4531 90.3243 48.4531H84.0363ZM86.4203 46.5011H89.8603C90.255 46.5011 90.575 46.3891 90.8203 46.1651C91.0763 45.9411 91.2043 45.5945 91.2043 45.1251C91.2043 44.8478 91.151 44.6078 91.0443 44.4051C90.9376 44.2025 90.7776 44.0478 90.5643 43.9411C90.351 43.8238 90.079 43.7651 89.7483 43.7651H86.4203V46.5011ZM86.4203 41.9091H89.5883C89.8763 41.9091 90.1163 41.8558 90.3083 41.7491C90.511 41.6318 90.6603 41.4825 90.7563 41.3011C90.863 41.1091 90.9163 40.8905 90.9163 40.6451C90.9163 40.2291 90.799 39.9145 90.5643 39.7011C90.3403 39.4878 90.0416 39.3811 89.6683 39.3811H86.4203V41.9091Z" fill="#1E342C"/>
</svg>
