<svg width="395" height="18" viewBox="0 0 395 18" fill="none" xmlns="http://www.w3.org/2000/svg">
<rect x="0.5" y="1.5" width="15" height="15" rx="7.5" fill="#1E342C" stroke="#1E342C"/>
<rect x="201" y="1" width="16" height="16" rx="8" fill="#1E342C"/>
<path d="M47.258 15V3.304H51.015V15H47.258ZM53.5334 15V3.304H56.7294L60.3674 7.503C60.4694 7.61633 60.6054 7.78067 60.7754 7.996C60.9454 8.21133 61.1154 8.43233 61.2854 8.659C61.4667 8.87433 61.6027 9.05 61.6934 9.186L61.7784 9.152C61.7671 8.83467 61.7614 8.523 61.7614 8.217C61.7614 7.89967 61.7614 7.66167 61.7614 7.503V3.304H65.1784V15H61.9994L57.9024 10.325C57.7097 10.0983 57.5454 9.89433 57.4094 9.713C57.2734 9.52033 57.1431 9.339 57.0184 9.169L56.9334 9.203C56.9447 9.41833 56.9504 9.63367 56.9504 9.849C56.9504 10.0643 56.9504 10.223 56.9504 10.325V15H53.5334ZM72.9475 15.204C72.1429 15.204 71.3892 15.1417 70.6865 15.017C69.9952 14.9037 69.3832 14.7053 68.8505 14.422C68.3292 14.1273 67.9155 13.725 67.6095 13.215C67.3149 12.6937 67.1675 12.042 67.1675 11.26C67.1675 11.2373 67.1675 11.209 67.1675 11.175C67.1675 11.1297 67.1732 11.0843 67.1845 11.039H70.7375C70.7262 11.0843 70.7205 11.1297 70.7205 11.175C70.7205 11.209 70.7205 11.243 70.7205 11.277C70.7205 11.617 70.7999 11.8777 70.9585 12.059C71.1172 12.2403 71.3382 12.365 71.6215 12.433C71.9162 12.4897 72.2449 12.518 72.6075 12.518C72.7435 12.518 72.8852 12.518 73.0325 12.518C73.1912 12.5067 73.3385 12.4897 73.4745 12.467C73.6219 12.433 73.7522 12.3877 73.8655 12.331C73.9902 12.2743 74.0865 12.2007 74.1545 12.11C74.2225 12.008 74.2565 11.8833 74.2565 11.736C74.2565 11.5207 74.1602 11.3507 73.9675 11.226C73.7749 11.1013 73.5142 10.9937 73.1855 10.903C72.8569 10.8123 72.4885 10.7273 72.0805 10.648C71.6725 10.5687 71.2475 10.478 70.8055 10.376C70.3635 10.2627 69.9385 10.121 69.5305 9.951C69.1225 9.781 68.7542 9.56567 68.4255 9.305C68.0969 9.033 67.8362 8.69867 67.6435 8.302C67.4509 7.894 67.3545 7.40667 67.3545 6.84C67.3545 6.16 67.4962 5.582 67.7795 5.106C68.0629 4.63 68.4482 4.24467 68.9355 3.95C69.4342 3.65533 69.9952 3.44 70.6185 3.304C71.2532 3.168 71.9162 3.1 72.6075 3.1C73.3102 3.1 73.9675 3.17367 74.5795 3.321C75.2029 3.457 75.7525 3.67233 76.2285 3.967C76.7045 4.26167 77.0785 4.63567 77.3505 5.089C77.6225 5.54233 77.7642 6.08067 77.7755 6.704V6.908H74.2565V6.84C74.2565 6.636 74.2055 6.44333 74.1035 6.262C74.0015 6.08067 73.8372 5.93333 73.6105 5.82C73.3952 5.70667 73.1062 5.65 72.7435 5.65C72.4035 5.65 72.1145 5.684 71.8765 5.752C71.6499 5.82 71.4799 5.91633 71.3665 6.041C71.2532 6.15433 71.1965 6.279 71.1965 6.415C71.1965 6.63033 71.2929 6.806 71.4855 6.942C71.6782 7.078 71.9389 7.19133 72.2675 7.282C72.5962 7.37267 72.9645 7.45767 73.3725 7.537C73.7805 7.61633 74.2055 7.707 74.6475 7.809C75.0895 7.89967 75.5145 8.02433 75.9225 8.183C76.3305 8.34167 76.6989 8.55133 77.0275 8.812C77.3562 9.06133 77.6169 9.373 77.8095 9.747C78.0022 10.121 78.0985 10.58 78.0985 11.124C78.0985 12.0873 77.8719 12.8693 77.4185 13.47C76.9765 14.0707 76.3645 14.5127 75.5825 14.796C74.8119 15.068 73.9335 15.204 72.9475 15.204ZM80.0141 15V3.304H90.1291V6.109H83.7711V7.724H89.2111V10.41H83.7711V12.195H90.2481V15H80.0141ZM92.2316 15V3.304H99.5586C100.431 3.304 101.157 3.47967 101.735 3.831C102.324 4.18233 102.766 4.64133 103.061 5.208C103.355 5.77467 103.503 6.38667 103.503 7.044C103.503 7.792 103.327 8.46067 102.976 9.05C102.624 9.628 102.148 10.0927 101.548 10.444L103.843 15H99.6266L97.8416 11.073H95.9886V15H92.2316ZM95.9886 8.472H98.6236C98.9183 8.472 99.1676 8.35867 99.3716 8.132C99.5756 7.894 99.6776 7.58233 99.6776 7.197C99.6776 6.959 99.6323 6.74933 99.5416 6.568C99.451 6.38667 99.3263 6.245 99.1676 6.143C99.009 6.02967 98.8276 5.973 98.6236 5.973H95.9886V8.472ZM108.272 15V6.296H104.43V3.304H115.854V6.296H112.029V15H108.272ZM125.805 15.204C124.615 15.204 123.607 14.983 122.779 14.541C121.963 14.099 121.34 13.4303 120.909 12.535C120.49 11.6397 120.28 10.5177 120.28 9.169C120.28 7.15167 120.768 5.64433 121.742 4.647C122.717 3.63833 124.083 3.134 125.839 3.134C126.848 3.134 127.732 3.29833 128.491 3.627C129.262 3.94433 129.863 4.426 130.293 5.072C130.735 5.70667 130.956 6.517 130.956 7.503H129.596C129.596 6.76633 129.443 6.16567 129.137 5.701C128.831 5.225 128.395 4.87367 127.828 4.647C127.273 4.409 126.604 4.29 125.822 4.29C124.984 4.29 124.253 4.45433 123.629 4.783C123.006 5.11167 122.524 5.62733 122.184 6.33C121.844 7.02133 121.674 7.928 121.674 9.05V9.407C121.674 10.5063 121.844 11.396 122.184 12.076C122.524 12.756 123.006 13.2547 123.629 13.572C124.253 13.8893 124.989 14.048 125.839 14.048C126.621 14.048 127.296 13.9347 127.862 13.708C128.429 13.47 128.865 13.1187 129.171 12.654C129.477 12.178 129.63 11.5717 129.63 10.835H130.956C130.956 11.8323 130.73 12.654 130.276 13.3C129.834 13.946 129.228 14.4277 128.457 14.745C127.687 15.051 126.803 15.204 125.805 15.204ZM138.528 15.204C137.327 15.204 136.29 14.983 135.417 14.541C134.556 14.0877 133.893 13.4133 133.428 12.518C132.964 11.6227 132.731 10.5063 132.731 9.169C132.731 7.82033 132.964 6.704 133.428 5.82C133.893 4.92467 134.556 4.256 135.417 3.814C136.29 3.36067 137.327 3.134 138.528 3.134C139.741 3.134 140.778 3.36067 141.639 3.814C142.512 4.256 143.175 4.92467 143.628 5.82C144.093 6.704 144.325 7.82033 144.325 9.169C144.325 10.5063 144.093 11.6227 143.628 12.518C143.175 13.4133 142.512 14.0877 141.639 14.541C140.778 14.983 139.741 15.204 138.528 15.204ZM138.528 14.048C139.197 14.048 139.803 13.963 140.347 13.793C140.891 13.6117 141.356 13.3283 141.741 12.943C142.127 12.5577 142.421 12.0703 142.625 11.481C142.841 10.8917 142.948 10.1833 142.948 9.356V8.999C142.948 8.16033 142.841 7.44633 142.625 6.857C142.421 6.26767 142.127 5.78033 141.741 5.395C141.356 5.00967 140.891 4.732 140.347 4.562C139.803 4.38067 139.197 4.29 138.528 4.29C137.86 4.29 137.253 4.38067 136.709 4.562C136.177 4.732 135.718 5.00967 135.332 5.395C134.947 5.78033 134.647 6.26767 134.431 6.857C134.227 7.44633 134.125 8.16033 134.125 8.999V9.356C134.125 10.1833 134.227 10.8917 134.431 11.481C134.647 12.0703 134.947 12.5577 135.332 12.943C135.718 13.3283 136.177 13.6117 136.709 13.793C137.253 13.963 137.86 14.048 138.528 14.048ZM146.808 15V3.338H148.151V15H146.808ZM151.224 15V3.338H152.533L158.5 11.396C158.568 11.4753 158.647 11.583 158.738 11.719C158.84 11.855 158.936 11.9967 159.027 12.144C159.129 12.28 159.214 12.4047 159.282 12.518H159.367C159.367 12.3253 159.367 12.1383 159.367 11.957C159.367 11.7643 159.367 11.5773 159.367 11.396V3.338H160.676V15H159.503L153.417 6.772C153.337 6.65867 153.213 6.483 153.043 6.245C152.873 5.99567 152.725 5.786 152.601 5.616H152.533C152.533 5.80867 152.533 6.00133 152.533 6.194C152.533 6.37533 152.533 6.568 152.533 6.772V15H151.224Z" fill="#1E342C"/>
<path d="M248.184 15V3.992H251.72V15H248.184ZM254.09 15V3.992H257.098L260.522 7.944C260.618 8.05067 260.746 8.20533 260.906 8.408C261.066 8.61067 261.226 8.81867 261.386 9.032C261.557 9.23467 261.685 9.4 261.77 9.528L261.85 9.496C261.84 9.19733 261.834 8.904 261.834 8.616C261.834 8.31733 261.834 8.09333 261.834 7.944V3.992H265.05V15H262.058L258.202 10.6C258.021 10.3867 257.866 10.1947 257.738 10.024C257.61 9.84267 257.488 9.672 257.37 9.512L257.29 9.544C257.301 9.74667 257.306 9.94933 257.306 10.152C257.306 10.3547 257.306 10.504 257.306 10.6V15H254.09ZM272.362 15.192C271.605 15.192 270.896 15.1333 270.234 15.016C269.584 14.9093 269.008 14.7227 268.506 14.456C268.016 14.1787 267.626 13.8 267.338 13.32C267.061 12.8293 266.922 12.216 266.922 11.48C266.922 11.4587 266.922 11.432 266.922 11.4C266.922 11.3573 266.928 11.3147 266.938 11.272H270.282C270.272 11.3147 270.266 11.3573 270.266 11.4C270.266 11.432 270.266 11.464 270.266 11.496C270.266 11.816 270.341 12.0613 270.49 12.232C270.64 12.4027 270.848 12.52 271.114 12.584C271.392 12.6373 271.701 12.664 272.042 12.664C272.17 12.664 272.304 12.664 272.442 12.664C272.592 12.6533 272.73 12.6373 272.858 12.616C272.997 12.584 273.12 12.5413 273.226 12.488C273.344 12.4347 273.434 12.3653 273.498 12.28C273.562 12.184 273.594 12.0667 273.594 11.928C273.594 11.7253 273.504 11.5653 273.322 11.448C273.141 11.3307 272.896 11.2293 272.586 11.144C272.277 11.0587 271.93 10.9787 271.546 10.904C271.162 10.8293 270.762 10.744 270.346 10.648C269.93 10.5413 269.53 10.408 269.146 10.248C268.762 10.088 268.416 9.88533 268.106 9.64C267.797 9.384 267.552 9.06933 267.37 8.696C267.189 8.312 267.098 7.85333 267.098 7.32C267.098 6.68 267.232 6.136 267.498 5.688C267.765 5.24 268.128 4.87733 268.586 4.6C269.056 4.32267 269.584 4.12 270.17 3.992C270.768 3.864 271.392 3.8 272.042 3.8C272.704 3.8 273.322 3.86933 273.898 4.008C274.485 4.136 275.002 4.33867 275.45 4.616C275.898 4.89333 276.25 5.24533 276.506 5.672C276.762 6.09867 276.896 6.60533 276.906 7.192V7.384H273.594V7.32C273.594 7.128 273.546 6.94667 273.45 6.776C273.354 6.60533 273.2 6.46667 272.986 6.36C272.784 6.25333 272.512 6.2 272.17 6.2C271.85 6.2 271.578 6.232 271.354 6.296C271.141 6.36 270.981 6.45067 270.874 6.568C270.768 6.67467 270.714 6.792 270.714 6.92C270.714 7.12267 270.805 7.288 270.986 7.416C271.168 7.544 271.413 7.65067 271.722 7.736C272.032 7.82133 272.378 7.90133 272.762 7.976C273.146 8.05067 273.546 8.136 273.962 8.232C274.378 8.31733 274.778 8.43467 275.162 8.584C275.546 8.73333 275.893 8.93067 276.202 9.176C276.512 9.41067 276.757 9.704 276.938 10.056C277.12 10.408 277.21 10.84 277.21 11.352C277.21 12.2587 276.997 12.9947 276.57 13.56C276.154 14.1253 275.578 14.5413 274.842 14.808C274.117 15.064 273.29 15.192 272.362 15.192ZM279.013 15V3.992H288.533V6.632H282.549V8.152H287.669V10.68H282.549V12.36H288.645V15H279.013ZM290.512 15V3.992H297.408C298.229 3.992 298.912 4.15733 299.456 4.488C300.011 4.81867 300.427 5.25067 300.704 5.784C300.981 6.31733 301.12 6.89333 301.12 7.512C301.12 8.216 300.955 8.84533 300.624 9.4C300.293 9.944 299.845 10.3813 299.28 10.712L301.44 15H297.472L295.792 11.304H294.048V15H290.512ZM294.048 8.856H296.528C296.805 8.856 297.04 8.74933 297.232 8.536C297.424 8.312 297.52 8.01867 297.52 7.656C297.52 7.432 297.477 7.23467 297.392 7.064C297.307 6.89333 297.189 6.76 297.04 6.664C296.891 6.55733 296.72 6.504 296.528 6.504H294.048V8.856ZM305.609 15V6.808H301.993V3.992H312.745V6.808H309.145V15H305.609ZM322.111 15.192C320.991 15.192 320.042 14.984 319.263 14.568C318.495 14.152 317.908 13.5227 317.503 12.68C317.108 11.8373 316.911 10.7813 316.911 9.512C316.911 7.61333 317.37 6.19467 318.287 5.256C319.204 4.30667 320.49 3.832 322.143 3.832C323.092 3.832 323.924 3.98667 324.639 4.296C325.364 4.59467 325.93 5.048 326.335 5.656C326.751 6.25333 326.959 7.016 326.959 7.944H325.679C325.679 7.25067 325.535 6.68533 325.247 6.248C324.959 5.8 324.548 5.46933 324.015 5.256C323.492 5.032 322.863 4.92 322.127 4.92C321.338 4.92 320.65 5.07467 320.063 5.384C319.476 5.69333 319.023 6.17867 318.703 6.84C318.383 7.49067 318.223 8.344 318.223 9.4V9.736C318.223 10.7707 318.383 11.608 318.703 12.248C319.023 12.888 319.476 13.3573 320.063 13.656C320.65 13.9547 321.343 14.104 322.143 14.104C322.879 14.104 323.514 13.9973 324.047 13.784C324.58 13.56 324.991 13.2293 325.279 12.792C325.567 12.344 325.711 11.7733 325.711 11.08H326.959C326.959 12.0187 326.746 12.792 326.319 13.4C325.903 14.008 325.332 14.4613 324.607 14.76C323.882 15.048 323.05 15.192 322.111 15.192ZM334.086 15.192C332.955 15.192 331.979 14.984 331.158 14.568C330.347 14.1413 329.723 13.5067 329.286 12.664C328.848 11.8213 328.63 10.7707 328.63 9.512C328.63 8.24267 328.848 7.192 329.286 6.36C329.723 5.51733 330.347 4.888 331.158 4.472C331.979 4.04533 332.955 3.832 334.086 3.832C335.227 3.832 336.203 4.04533 337.014 4.472C337.835 4.888 338.459 5.51733 338.886 6.36C339.323 7.192 339.542 8.24267 339.542 9.512C339.542 10.7707 339.323 11.8213 338.886 12.664C338.459 13.5067 337.835 14.1413 337.014 14.568C336.203 14.984 335.227 15.192 334.086 15.192ZM334.086 14.104C334.715 14.104 335.286 14.024 335.798 13.864C336.31 13.6933 336.747 13.4267 337.11 13.064C337.472 12.7013 337.75 12.2427 337.942 11.688C338.144 11.1333 338.246 10.4667 338.246 9.688V9.352C338.246 8.56267 338.144 7.89067 337.942 7.336C337.75 6.78133 337.472 6.32267 337.11 5.96C336.747 5.59733 336.31 5.336 335.798 5.176C335.286 5.00533 334.715 4.92 334.086 4.92C333.456 4.92 332.886 5.00533 332.374 5.176C331.872 5.336 331.44 5.59733 331.078 5.96C330.715 6.32267 330.432 6.78133 330.23 7.336C330.038 7.89067 329.942 8.56267 329.942 9.352V9.688C329.942 10.4667 330.038 11.1333 330.23 11.688C330.432 12.2427 330.715 12.7013 331.078 13.064C331.44 13.4267 331.872 13.6933 332.374 13.864C332.886 14.024 333.456 14.104 334.086 14.104ZM341.878 15V4.024H343.142V15H341.878ZM346.034 15V4.024H347.266L352.882 11.608C352.946 11.6827 353.021 11.784 353.106 11.912C353.202 12.04 353.293 12.1733 353.378 12.312C353.474 12.44 353.554 12.5573 353.618 12.664H353.698C353.698 12.4827 353.698 12.3067 353.698 12.136C353.698 11.9547 353.698 11.7787 353.698 11.608V4.024H354.93V15H353.826L348.098 7.256C348.023 7.14933 347.906 6.984 347.746 6.76C347.586 6.52533 347.447 6.328 347.33 6.168H347.266C347.266 6.34933 347.266 6.53067 347.266 6.712C347.266 6.88267 347.266 7.064 347.266 7.256V15H346.034Z" fill="#1E342C"/>
</svg>
