
<svg width="3000" height="134" viewBox="0 0 3000 134" fill="none" xmlns="http://www.w3.org/2000/svg">
<g id="Group 336">
<g id="star">
<g id="Group 124">
<g id="Union">
<mask id="path-1-inside-1_1274_834" fill="white">
<path fill-rule="evenodd" clip-rule="evenodd" d="M1630.22 63.7554C1624.07 60.2086 1616.2 62.3158 1612.65 68.4621L1609.22 74.389L1603.28 70.9617C1597.14 67.4165 1589.28 69.5228 1585.73 75.6661C1582.18 81.8094 1584.28 89.6634 1590.43 93.2085L1596.37 96.6359L1592.94 102.563C1589.39 108.71 1591.5 116.567 1597.65 120.114C1603.79 123.661 1611.66 121.554 1615.21 115.407L1618.64 109.48L1624.58 112.909C1630.73 116.454 1638.59 114.348 1642.14 108.205C1645.69 102.061 1643.58 94.2075 1637.44 90.6623L1631.49 87.2332L1634.92 81.3063C1638.47 75.1601 1636.36 67.3023 1630.22 63.7554Z"/>
</mask>
<path d="M1612.65 68.4621L1619.58 72.465L1619.58 72.465L1612.65 68.4621ZM1630.22 63.7554L1634.21 56.8256L1634.21 56.8256L1630.22 63.7554ZM1609.22 74.389L1605.23 81.3189L1612.15 85.3126L1616.15 78.3919L1609.22 74.389ZM1603.28 70.9617L1607.28 64.0318L1603.28 70.9617ZM1585.73 75.6661L1592.65 79.669L1585.73 75.6661ZM1590.43 93.2085L1594.42 86.2786L1594.42 86.2786L1590.43 93.2085ZM1596.37 96.6359L1603.29 100.639L1607.3 93.7064L1600.36 89.706L1596.37 96.6359ZM1592.94 102.563L1586.02 98.5604L1586.02 98.5604L1592.94 102.563ZM1597.65 120.114L1593.65 127.044L1593.65 127.044L1597.65 120.114ZM1615.21 115.407L1608.28 111.405L1608.28 111.405L1615.21 115.407ZM1618.64 109.48L1622.63 102.55L1615.71 98.5564L1611.71 105.477L1618.64 109.48ZM1624.58 112.909L1628.58 105.979L1628.58 105.979L1624.58 112.909ZM1642.14 108.205L1635.21 104.202L1635.21 104.202L1642.14 108.205ZM1637.44 90.6623L1633.44 97.5922L1633.44 97.5922L1637.44 90.6623ZM1631.49 87.2332L1624.57 83.2303L1620.56 90.1627L1627.5 94.1631L1631.49 87.2332ZM1634.92 81.3063L1641.84 85.3092L1641.84 85.3092L1634.92 81.3063ZM1619.58 72.465C1620.92 70.1419 1623.89 69.3447 1626.22 70.6853L1634.21 56.8256C1624.24 51.0725 1611.48 54.4898 1605.72 64.4592L1619.58 72.465ZM1616.15 78.3919L1619.58 72.465L1605.72 64.4592L1602.3 70.3861L1616.15 78.3919ZM1599.29 77.8915L1605.23 81.3189L1613.22 67.4591L1607.28 64.0318L1599.29 77.8915ZM1592.65 79.669C1593.99 77.3488 1596.96 76.5526 1599.29 77.8915L1607.28 64.0318C1597.31 58.2804 1584.56 61.6967 1578.8 71.6632L1592.65 79.669ZM1594.42 86.2786C1592.11 84.9424 1591.31 81.9846 1592.65 79.669L1578.8 71.6632C1573.04 81.6341 1576.45 94.3844 1586.43 100.138L1594.42 86.2786ZM1600.36 89.706L1594.42 86.2786L1586.43 100.138L1592.37 103.566L1600.36 89.706ZM1599.87 106.566L1603.29 100.639L1589.44 92.633L1586.02 98.5604L1599.87 106.566ZM1601.64 113.184C1599.32 111.846 1598.53 108.885 1599.87 106.566L1586.02 98.5604C1580.25 108.534 1583.67 121.288 1593.65 127.044L1601.64 113.184ZM1608.28 111.405C1606.94 113.728 1603.97 114.525 1601.64 113.184L1593.65 127.044C1603.62 132.797 1616.38 129.38 1622.14 119.41L1608.28 111.405ZM1611.71 105.477L1608.28 111.405L1622.14 119.41L1625.56 113.483L1611.71 105.477ZM1628.58 105.979L1622.63 102.55L1614.64 116.41L1620.58 119.839L1628.58 105.979ZM1635.21 104.202C1633.87 106.522 1630.9 107.318 1628.58 105.979L1620.58 119.839C1630.56 125.59 1643.31 122.174 1649.06 112.208L1635.21 104.202ZM1633.44 97.5922C1635.76 98.9285 1636.55 101.886 1635.21 104.202L1649.06 112.208C1654.83 102.237 1651.41 89.4864 1641.44 83.7325L1633.44 97.5922ZM1627.5 94.1631L1633.44 97.5922L1641.44 83.7325L1635.49 80.3034L1627.5 94.1631ZM1627.99 77.3035L1624.57 83.2303L1638.42 91.2361L1641.84 85.3092L1627.99 77.3035ZM1626.22 70.6853C1628.54 72.0233 1629.33 74.9849 1627.99 77.3035L1641.84 85.3092C1647.61 75.3353 1644.19 62.5812 1634.21 56.8256L1626.22 70.6853Z" fill="#E55496" mask="url(#path-1-inside-1_1274_834)"/>
</g>
</g>
<g id="Group 114">
<rect id="Rectangle 221" width="25.707" height="65.0932" rx="12.8535" transform="matrix(0.866234 0.499639 -0.500361 0.865817 1645.8 37)" fill="#1E342C"/>
<rect id="Rectangle 222" width="25.6947" height="65.1245" rx="12.8473" transform="matrix(-0.500362 0.865817 -0.866234 -0.499639 1675.29 76.748)" fill="#1E342C"/>
</g>
</g>
<g id="star_2">
<g id="Group 125">
<g id="Union_2">
<mask id="path-5-inside-2_1274_834" fill="white">
<path fill-rule="evenodd" clip-rule="evenodd" d="M2385.59 52.3567C2379.99 47.997 2371.91 49.0011 2367.54 54.5995L2363.33 59.9991L2357.92 55.7866C2352.32 51.4289 2344.25 52.4326 2339.88 58.0284C2335.52 63.6242 2336.52 71.6931 2342.12 76.0508L2347.53 80.2633L2343.32 85.6619C2338.95 91.2603 2339.96 99.333 2345.56 103.693C2351.16 108.052 2359.24 107.048 2363.6 101.45L2367.81 96.0512L2373.23 100.266C2378.83 104.624 2386.9 103.62 2391.27 98.0245C2395.63 92.4287 2394.63 84.3598 2389.03 80.0021L2383.62 75.787L2387.83 70.3874C2392.19 64.789 2391.19 56.7164 2385.59 52.3567Z"/>
</mask>
<path d="M2367.54 54.5995L2361.24 49.6812L2361.24 49.6812L2367.54 54.5995ZM2385.59 52.3567L2380.68 58.6698L2380.68 58.6698L2385.59 52.3567ZM2363.33 59.9991L2358.42 66.3122L2364.73 71.2215L2369.64 64.9174L2363.33 59.9991ZM2357.92 55.7866L2353.01 62.0997L2353.01 62.0997L2357.92 55.7866ZM2339.88 58.0284L2346.19 62.9467L2346.19 62.9467L2339.88 58.0284ZM2342.12 76.0508L2337.2 82.3639L2337.2 82.3639L2342.12 76.0508ZM2347.53 80.2633L2353.84 85.1816L2358.76 78.8673L2352.45 73.9502L2347.53 80.2633ZM2343.32 85.6619L2349.63 90.5802L2343.32 85.6619ZM2345.56 103.693L2340.64 110.006L2340.64 110.006L2345.56 103.693ZM2363.6 101.45L2357.3 96.5316L2357.3 96.5316L2363.6 101.45ZM2367.81 96.0512L2372.73 89.7381L2366.42 84.8288L2361.51 91.1329L2367.81 96.0512ZM2373.23 100.266L2368.31 106.579L2368.31 106.579L2373.23 100.266ZM2391.27 98.0245L2397.58 102.943L2397.58 102.943L2391.27 98.0245ZM2389.03 80.0021L2384.12 86.3152L2384.12 86.3152L2389.03 80.0021ZM2383.62 75.787L2377.31 70.8687L2372.38 77.183L2378.7 82.1001L2383.62 75.787ZM2387.83 70.3874L2381.52 65.4691L2381.52 65.4691L2387.83 70.3874ZM2373.85 59.5178C2375.5 57.4019 2378.56 57.022 2380.68 58.6698L2390.51 46.0435C2381.42 38.9719 2368.32 40.6003 2361.24 49.6812L2373.85 59.5178ZM2369.64 64.9174L2373.85 59.5178L2361.24 49.6812L2357.02 55.0808L2369.64 64.9174ZM2353.01 62.0997L2358.42 66.3122L2368.25 53.686L2362.84 49.4735L2353.01 62.0997ZM2346.19 62.9467C2347.84 60.8334 2350.89 60.454 2353.01 62.0997L2362.84 49.4735C2353.75 42.4038 2340.65 44.0318 2333.57 53.1101L2346.19 62.9467ZM2347.03 69.7377C2344.92 68.095 2344.55 65.056 2346.19 62.9467L2333.57 53.1101C2326.49 62.1923 2328.12 75.2912 2337.2 82.3639L2347.03 69.7377ZM2352.45 73.9502L2347.03 69.7377L2337.2 82.3639L2342.62 86.5764L2352.45 73.9502ZM2349.63 90.5802L2353.84 85.1816L2341.22 75.345L2337.01 80.7436L2349.63 90.5802ZM2350.47 97.3796C2348.36 95.7349 2347.98 92.6922 2349.63 90.5802L2337.01 80.7436C2329.93 89.8285 2331.55 102.931 2340.64 110.006L2350.47 97.3796ZM2357.3 96.5316C2355.65 98.6475 2352.59 99.0273 2350.47 97.3796L2340.64 110.006C2349.73 117.077 2362.83 115.449 2369.91 106.368L2357.3 96.5316ZM2361.51 91.1329L2357.3 96.5316L2369.91 106.368L2374.12 100.97L2361.51 91.1329ZM2378.14 93.9532L2372.73 89.7381L2362.9 102.364L2368.31 106.579L2378.14 93.9532ZM2384.96 93.1062C2383.31 95.2195 2380.26 95.5989 2378.14 93.9532L2368.31 106.579C2377.4 113.649 2390.5 112.021 2397.58 102.943L2384.96 93.1062ZM2384.12 86.3152C2386.23 87.9579 2386.6 90.9968 2384.96 93.1062L2397.58 102.943C2404.66 93.8605 2403.03 80.7617 2393.95 73.6889L2384.12 86.3152ZM2378.7 82.1001L2384.12 86.3152L2393.95 73.6889L2388.53 69.4739L2378.7 82.1001ZM2381.52 65.4691L2377.31 70.8687L2389.93 80.7053L2394.14 75.3057L2381.52 65.4691ZM2380.68 58.6698C2382.79 60.3145 2383.17 63.3572 2381.52 65.4691L2394.14 75.3057C2401.22 66.2209 2399.6 53.1183 2390.51 46.0435L2380.68 58.6698Z" fill="#E55496" mask="url(#path-5-inside-2_1274_834)"/>
</g>
</g>
<g id="Group 112">
<rect id="Rectangle 221_2" width="25.7068" height="65.0938" rx="12.8534" transform="matrix(0.789042 0.614154 -0.615031 0.788647 2346.95 57.502)" fill="#1E342C"/>
<rect id="Rectangle 222_2" width="25.6949" height="65.1239" rx="12.8475" transform="matrix(-0.615031 0.788647 -0.789042 -0.614154 2370.67 100.93)" fill="#1E342C"/>
</g>
</g>
<g id="star_3">
<g id="Group 125_2">
<g id="Union_3">
<mask id="path-9-inside-3_1274_834" fill="white">
<path fill-rule="evenodd" clip-rule="evenodd" d="M3032.35 6.72223C3026.2 3.17539 3018.33 5.28264 3014.78 11.4289L3011.36 17.3558L3005.41 13.9284C2999.27 10.3833 2991.41 12.4896 2987.86 18.6329C2984.31 24.7762 2986.41 32.6302 2992.56 36.1753L2998.5 39.6027L2995.07 45.5301C2991.52 51.6763 2993.63 59.5341 2999.78 63.081C3005.93 66.6278 3013.79 64.5206 3017.34 58.3743L3020.77 52.4469L3026.71 55.876C3032.86 59.4211 3040.72 57.3149 3044.27 51.1716C3047.82 45.0283 3045.72 37.1743 3039.57 33.6291L3033.62 30.2L3037.05 24.2731C3040.6 18.1269 3038.5 10.2691 3032.35 6.72223Z"/>
</mask>
<path d="M3014.78 11.4289L3021.71 15.4318L3021.71 15.4318L3014.78 11.4289ZM3032.35 6.72223L3036.34 -0.20764L3036.34 -0.207641L3032.35 6.72223ZM3011.36 17.3558L3007.36 24.2857L3014.28 28.2794L3018.28 21.3587L3011.36 17.3558ZM3005.41 13.9284L3009.41 6.99858L3005.41 13.9284ZM2987.86 18.6329L2994.78 22.6358L2987.86 18.6329ZM2992.56 36.1753L2996.55 29.2454L2996.55 29.2454L2992.56 36.1753ZM2998.5 39.6027L3005.43 43.6056L3009.43 36.6732L3002.5 32.6728L2998.5 39.6027ZM2995.07 45.5301L2988.15 41.5272L2988.15 41.5272L2995.07 45.5301ZM2999.78 63.081L2995.78 70.0108L2995.78 70.0108L2999.78 63.081ZM3017.34 58.3743L3010.42 54.3714L3010.42 54.3714L3017.34 58.3743ZM3020.77 52.4469L3024.76 45.517L3017.84 41.5232L3013.84 48.444L3020.77 52.4469ZM3026.71 55.876L3030.71 48.9461L3030.71 48.9461L3026.71 55.876ZM3044.27 51.1716L3037.34 47.1687L3037.34 47.1687L3044.27 51.1716ZM3039.57 33.6291L3035.57 40.559L3035.57 40.559L3039.57 33.6291ZM3033.62 30.2L3026.7 26.1971L3022.69 33.1295L3029.63 37.1299L3033.62 30.2ZM3037.05 24.2731L3043.98 28.276L3043.98 28.276L3037.05 24.2731ZM3021.71 15.4318C3023.05 13.1087 3026.02 12.3115 3028.35 13.6521L3036.34 -0.207641C3026.37 -5.96072 3013.62 -2.54341 3007.85 7.42602L3021.71 15.4318ZM3018.28 21.3587L3021.71 15.4318L3007.85 7.42602L3004.43 13.3529L3018.28 21.3587ZM3001.42 20.8583L3007.36 24.2857L3015.35 10.4259L3009.41 6.99858L3001.42 20.8583ZM2994.78 22.6358C2996.12 20.3156 2999.09 19.5194 3001.42 20.8583L3009.41 6.99858C2999.44 1.24721 2986.69 4.66351 2980.93 14.63L2994.78 22.6358ZM2996.55 29.2454C2994.24 27.9092 2993.44 24.9514 2994.78 22.6358L2980.93 14.63C2975.17 24.6009 2978.58 37.3512 2988.56 43.1052L2996.55 29.2454ZM3002.5 32.6728L2996.55 29.2454L2988.56 43.1052L2994.5 46.5325L3002.5 32.6728ZM3002 49.533L3005.43 43.6056L2991.57 35.5998L2988.15 41.5272L3002 49.533ZM3003.77 56.1511C3001.45 54.8131 3000.66 51.8515 3002 49.533L2988.15 41.5272C2982.38 51.5011 2985.8 64.2552 2995.78 70.0108L3003.77 56.1511ZM3010.42 54.3714C3009.07 56.6945 3006.1 57.4917 3003.77 56.1511L2995.78 70.0108C3005.75 75.7639 3018.51 72.3466 3024.27 62.3772L3010.42 54.3714ZM3013.84 48.444L3010.42 54.3714L3024.27 62.3772L3027.69 56.4498L3013.84 48.444ZM3030.71 48.9461L3024.76 45.517L3016.77 59.3768L3022.72 62.8059L3030.71 48.9461ZM3037.34 47.1687C3036 49.4888 3033.03 50.285 3030.71 48.9461L3022.72 62.8059C3032.69 68.5573 3045.44 65.1409 3051.2 55.1745L3037.34 47.1687ZM3035.57 40.559C3037.89 41.8953 3038.68 44.8531 3037.34 47.1687L3051.2 55.1745C3056.96 45.2035 3053.54 32.4532 3043.57 26.6993L3035.57 40.559ZM3029.63 37.1299L3035.57 40.559L3043.57 26.6993L3037.62 23.2702L3029.63 37.1299ZM3030.12 20.2703L3026.7 26.1971L3040.55 34.2029L3043.98 28.276L3030.12 20.2703ZM3028.35 13.6521C3030.67 14.9901 3031.46 17.9517 3030.12 20.2703L3043.98 28.276C3049.74 18.3021 3046.32 5.54804 3036.34 -0.20764L3028.35 13.6521Z" fill="#E55496" mask="url(#path-9-inside-3_1274_834)"/>
</g>
</g>
<g id="Group 112_2">
<rect id="Rectangle 221_3" width="25.707" height="65.0932" rx="12.8535" transform="matrix(0.866234 0.499639 -0.500361 0.865817 2994.78 17.1387)" fill="#1E342C"/>
<rect id="Rectangle 222_3" width="25.6947" height="65.1245" rx="12.8473" transform="matrix(-0.500362 0.865817 -0.866234 -0.499639 3024.27 56.8867)" fill="#1E342C"/>
</g>
</g>
<g id="circle">
<path id="Ellipse 61" d="M1339.03 30C1339.03 25.1739 1334.91 21 1329.51 21C1324.11 21 1320 25.1739 1320 30C1320 34.8261 1324.11 39 1329.51 39C1334.91 39 1339.03 34.8261 1339.03 30Z" stroke="#E55496" stroke-width="8"/>
<ellipse id="Ellipse 53" cx="13.0125" cy="13.5" rx="13.0125" ry="13.5" transform="matrix(1 1.74677e-07 1.75014e-07 -1 1330.01 52)" fill="#1E342C"/>
</g>
<g id="circle_2">
<path id="Ellipse 61_2" d="M2130.03 27C2130.03 31.8261 2125.91 36 2120.51 36C2115.11 36 2111 31.8261 2111 27C2111 22.1739 2115.11 18 2120.51 18C2125.91 18 2130.03 22.1739 2130.03 27Z" stroke="#E55496" stroke-width="8"/>
<ellipse id="Ellipse 53_2" cx="2134.03" cy="18.5" rx="13.0125" ry="13.5" fill="#1E342C"/>
</g>
<g id="circle_3">
<path id="Ellipse 61_3" d="M2752.03 73C2752.03 77.8261 2747.91 82 2742.51 82C2737.11 82 2733 77.8261 2733 73C2733 68.1739 2737.11 64 2742.51 64C2747.91 64 2752.03 68.1739 2752.03 73Z" stroke="#E55496" stroke-width="8"/>
<ellipse id="Ellipse 53_3" cx="2756.03" cy="64.5" rx="13.0125" ry="13.5" fill="#1E342C"/>
</g>
<g id="star_4">
<g id="Group 124_2">
<g id="Union_4">
<mask id="path-19-inside-4_1274_834" fill="white">
<path fill-rule="evenodd" clip-rule="evenodd" d="M807.119 56.5199C808.956 49.668 804.888 42.6256 798.033 40.7904L791.404 39.016L793.177 32.4073C795.015 25.5525 790.946 18.5072 784.087 16.6712C777.228 14.8352 770.178 18.9038 768.34 25.7587L766.567 32.3673L759.939 30.593C753.083 28.7578 746.036 32.8247 744.198 39.6767C742.36 46.5286 746.428 53.571 753.284 55.4062L759.912 57.1805L758.138 63.7951C756.299 70.65 760.369 77.6952 767.228 79.5312C774.086 81.3672 781.136 77.2986 782.975 70.4438L784.749 63.8292L791.378 65.6036C798.233 67.4388 805.281 63.3719 807.119 56.5199Z"/>
</mask>
<path d="M798.033 40.7904L795.966 48.5172L795.966 48.5172L798.033 40.7904ZM807.119 56.5199L799.391 54.4452L799.391 54.4452L807.119 56.5199ZM791.404 39.016L783.676 36.9413L781.603 44.6722L789.338 46.7428L791.404 39.016ZM793.177 32.4073L800.905 34.482L800.905 34.482L793.177 32.4073ZM784.087 16.6712L782.021 24.398L782.021 24.398L784.087 16.6712ZM768.34 25.7587L760.612 23.6839L760.612 23.684L768.34 25.7587ZM766.567 32.3673L764.501 40.0941L772.225 42.1618L774.295 34.442L766.567 32.3673ZM759.939 30.593L757.872 38.3198L757.872 38.3198L759.939 30.593ZM744.198 39.6767L736.47 37.6019L736.47 37.6019L744.198 39.6767ZM753.284 55.4062L751.217 63.133L751.217 63.133L753.284 55.4062ZM759.912 57.1805L767.64 59.2552L769.714 51.5243L761.978 49.4537L759.912 57.1805ZM758.138 63.7951L765.866 65.8698L765.866 65.8698L758.138 63.7951ZM767.228 79.5312L769.294 71.8044L769.294 71.8044L767.228 79.5312ZM782.975 70.4438L775.247 68.3691L775.247 68.3691L782.975 70.4438ZM784.749 63.8292L786.815 56.1024L779.092 54.0347L777.021 61.7544L784.749 63.8292ZM791.378 65.6036L789.311 73.3304L789.311 73.3304L791.378 65.6036ZM795.966 48.5172C798.551 49.2091 800.083 51.862 799.391 54.4452L814.847 58.5946C817.829 47.4739 811.226 36.0422 800.099 33.0636L795.966 48.5172ZM789.338 46.7428L795.966 48.5172L800.099 33.0636L793.471 31.2892L789.338 46.7428ZM785.449 30.3326L783.676 36.9413L799.132 41.0907L800.905 34.482L785.449 30.3326ZM782.021 24.398C784.608 25.0907 786.142 27.7465 785.449 30.3326L800.905 34.482C803.888 23.3585 797.283 11.9237 786.153 8.94443L782.021 24.398ZM776.068 27.8334C776.762 25.2429 779.429 23.7042 782.021 24.398L786.153 8.94443C775.028 5.96629 763.594 12.5647 760.612 23.6839L776.068 27.8334ZM774.295 34.442L776.068 27.8334L760.612 23.684L758.839 30.2926L774.295 34.442ZM757.872 38.3198L764.501 40.0941L768.633 24.6405L762.005 22.8662L757.872 38.3198ZM751.926 41.7514C752.62 39.1638 755.283 37.6268 757.872 38.3198L762.005 22.8662C750.883 19.8889 739.451 26.4856 736.47 37.6019L751.926 41.7514ZM755.35 47.6794C752.766 46.9875 751.233 44.3346 751.926 41.7514L736.47 37.6019C733.487 48.7227 740.091 60.1544 751.217 63.133L755.35 47.6794ZM761.978 49.4537L755.35 47.6794L751.217 63.133L757.846 64.9073L761.978 49.4537ZM765.866 65.8698L767.64 59.2552L752.184 55.1058L750.41 61.7204L765.866 65.8698ZM769.294 71.8044C766.706 71.1118 765.172 68.4559 765.866 65.8698L750.41 61.7204C747.426 72.844 754.031 84.2787 765.161 87.258L769.294 71.8044ZM775.247 68.3691C774.552 70.9595 771.886 72.4982 769.294 71.8044L765.161 87.258C776.286 90.2362 787.721 83.6377 790.703 72.5185L775.247 68.3691ZM777.021 61.7544L775.247 68.3691L790.703 72.5185L792.477 65.9039L777.021 61.7544ZM793.444 57.8768L786.815 56.1024L782.683 71.5559L789.311 73.3304L793.444 57.8768ZM799.391 54.4452C798.697 57.0328 796.033 58.5698 793.444 57.8768L789.311 73.3304C800.434 76.3077 811.865 69.711 814.847 58.5946L799.391 54.4452Z" fill="#E55496" mask="url(#path-19-inside-4_1274_834)"/>
</g>
</g>
<g id="Group 114_2">
<rect id="Rectangle 221_4" width="25.6955" height="65.1224" rx="12.8477" transform="matrix(-0.258998 0.965662 -0.96619 -0.25864 837.02 64.6387)" fill="#1E342C"/>
<rect id="Rectangle 222_4" width="25.7062" height="65.0952" rx="12.8531" transform="matrix(-0.96619 -0.25864 0.258998 -0.965662 806.219 103.381)" fill="#1E342C"/>
</g>
</g>
<g id="star_5">
<g id="Group 124_3">
<g id="Union_5">
<mask id="path-23-inside-5_1274_834" fill="white">
<path fill-rule="evenodd" clip-rule="evenodd" d="M20.2152 46.7554C14.066 43.2086 6.20162 45.3158 2.64966 51.4621L-0.775526 57.389L-6.71757 53.9617C-12.8638 50.4165 -20.7244 52.5228 -24.2747 58.6661C-27.8249 64.8094 -25.7205 72.6634 -19.5742 76.2085L-13.6321 79.6359L-17.0576 85.5633C-20.6096 91.7095 -18.5041 99.5673 -12.3549 103.114C-6.20565 106.661 1.65872 104.554 5.21068 98.4075L8.63617 92.4801L14.5813 95.9092C20.7276 99.4543 28.5881 97.3481 32.1384 91.2048C35.6887 85.0615 33.5842 77.2075 27.4379 73.6623L21.4928 70.2332L24.918 64.3063C28.4699 58.1601 26.3644 50.3023 20.2152 46.7554Z"/>
</mask>
<path d="M2.64966 51.4621L9.57619 55.465L9.57619 55.465L2.64966 51.4621ZM20.2152 46.7554L24.2123 39.8256L24.2123 39.8256L20.2152 46.7554ZM-0.775526 57.389L-4.77264 64.3189L2.15146 68.3126L6.15101 61.3919L-0.775526 57.389ZM-6.71757 53.9617L-2.72046 47.0318L-2.72046 47.0318L-6.71757 53.9617ZM-24.2747 58.6661L-17.3481 62.669L-24.2747 58.6661ZM-19.5742 76.2085L-23.5713 83.1384L-23.5713 83.1384L-19.5742 76.2085ZM-13.6321 79.6359L-6.70561 83.6388L-2.69938 76.7064L-9.63503 72.706L-13.6321 79.6359ZM-17.0576 85.5633L-10.1311 89.5662L-10.1311 89.5662L-17.0576 85.5633ZM-12.3549 103.114L-16.352 110.044L-16.352 110.044L-12.3549 103.114ZM5.21068 98.4075L-1.71585 94.4046L-1.71585 94.4046L5.21068 98.4075ZM8.63617 92.4801L12.6333 85.5502L5.70919 81.5564L1.70964 88.4772L8.63617 92.4801ZM14.5813 95.9092L18.5784 88.9793L18.5784 88.9793L14.5813 95.9092ZM32.1384 91.2048L25.2119 87.2019L25.2119 87.2019L32.1384 91.2048ZM27.4379 73.6623L23.4408 80.5922L23.4408 80.5922L27.4379 73.6623ZM21.4928 70.2332L14.5663 66.2303L10.56 73.1627L17.4957 77.1631L21.4928 70.2332ZM24.918 64.3063L17.9914 60.3035L17.9914 60.3035L24.918 64.3063ZM9.57619 55.465C10.9187 53.1419 13.8939 52.3447 16.2181 53.6853L24.2123 39.8256C14.2381 34.0725 1.48452 37.4898 -4.27688 47.4592L9.57619 55.465ZM6.15101 61.3919L9.57619 55.465L-4.27687 47.4592L-7.70206 53.3861L6.15101 61.3919ZM-10.7147 60.8915L-4.77264 64.3189L3.22158 50.4591L-2.72046 47.0318L-10.7147 60.8915ZM-17.3481 62.669C-16.0073 60.3488 -13.0359 59.5526 -10.7147 60.8915L-2.72046 47.0318C-12.6917 41.2804 -25.4415 44.6967 -31.2012 54.6632L-17.3481 62.669ZM-15.5771 69.2786C-17.8938 67.9424 -18.6864 64.9846 -17.3481 62.669L-31.2012 54.6632C-36.9635 64.6341 -33.5471 77.3844 -23.5713 83.1384L-15.5771 69.2786ZM-9.63503 72.706L-15.5771 69.2786L-23.5713 83.1384L-17.6293 86.5657L-9.63503 72.706ZM-10.1311 89.5662L-6.70561 83.6388L-20.5587 75.633L-23.9842 81.5604L-10.1311 89.5662ZM-8.35777 96.1843C-10.6775 94.8463 -11.471 91.8847 -10.1311 89.5662L-23.9842 81.5604C-29.7482 91.5343 -26.3307 104.288 -16.352 110.044L-8.35777 96.1843ZM-1.71585 94.4046C-3.05839 96.7277 -6.03355 97.5249 -8.35777 96.1843L-16.352 110.044C-6.37776 115.797 6.37582 112.38 12.1372 102.41L-1.71585 94.4046ZM1.70964 88.4772L-1.71585 94.4046L12.1372 102.41L15.5627 96.483L1.70964 88.4772ZM18.5784 88.9793L12.6333 85.5502L4.63906 99.41L10.5842 102.839L18.5784 88.9793ZM25.2119 87.2019C23.871 89.5221 20.8997 90.3182 18.5784 88.9793L10.5842 102.839C20.5554 108.59 33.3052 105.174 39.0649 95.2077L25.2119 87.2019ZM23.4408 80.5922C25.7575 81.9285 26.5501 84.8863 25.2119 87.2019L39.0649 95.2077C44.8272 85.2367 41.4108 72.4864 31.435 66.7325L23.4408 80.5922ZM17.4957 77.1631L23.4408 80.5922L31.435 66.7325L25.4899 63.3034L17.4957 77.1631ZM17.9914 60.3035L14.5663 66.2303L28.4193 74.2361L31.8445 68.3092L17.9914 60.3035ZM16.2181 53.6853C18.5378 55.0233 19.3314 57.9849 17.9914 60.3035L31.8445 68.3092C37.6085 58.3353 34.1911 45.5812 24.2123 39.8256L16.2181 53.6853Z" fill="#E55496" mask="url(#path-23-inside-5_1274_834)"/>
</g>
</g>
<g id="Group 114_3">
<rect id="Rectangle 221_5" width="25.707" height="65.0932" rx="12.8535" transform="matrix(0.866234 0.499639 -0.500361 0.865817 35.8047 20)" fill="#1E342C"/>
<rect id="Rectangle 222_5" width="25.6947" height="65.1245" rx="12.8473" transform="matrix(-0.500362 0.865817 -0.866234 -0.499639 65.2891 59.748)" fill="#1E342C"/>
</g>
</g>
<g id="circle_4">
<path id="Ellipse 62" d="M541.038 89C541.038 93.8261 536.926 98 531.525 98C526.124 98 522.012 93.8261 522.012 89C522.012 84.1739 526.124 80 531.525 80C536.926 80 541.038 84.1739 541.038 89Z" stroke="#E55496" stroke-width="8"/>
<ellipse id="Ellipse 54" cx="519.013" cy="101.5" rx="13.0125" ry="13.5" fill="#1E342C"/>
</g>
<g id="square">
<rect id="Rectangle 229" x="2.82775" y="4.8978" width="16.2956" height="16.2753" transform="matrix(0.965988 0.258586 -0.259052 0.965863 1081.65 63.0883)" stroke="#E55496" stroke-width="8"/>
<rect id="Rectangle 238" width="24.2956" height="24.2753" transform="matrix(0.965988 0.258586 -0.259052 0.965863 1095.71 56)" fill="#1E342C"/>
</g>
<g id="square_2">
<rect id="Rectangle 229_2" x="-2.82774" y="-4.8978" width="16.2956" height="16.2753" transform="matrix(-0.965988 -0.258586 0.259052 -0.965863 293.594 42.3689)" stroke="#E55496" stroke-width="8"/>
<rect id="Rectangle 230" width="24.2956" height="24.2753" transform="matrix(-0.965988 -0.258586 0.259052 -0.965863 282.469 60.3809)" fill="#1E342C"/>
</g>
<g id="square_3">
<rect id="Rectangle 231" x="2.14341" y="-5.23295" width="16.2829" height="16.288" transform="matrix(-0.386767 -0.921924 0.92262 -0.386314 1908.66 80.6376)" stroke="#E55496" stroke-width="8"/>
<rect id="Rectangle 232" width="24.2829" height="24.288" transform="matrix(-0.386767 -0.921924 0.92262 -0.386314 1885.37 78.4219)" fill="#1E342C"/>
</g>
<g id="circle_5">
<rect id="Rectangle 231_2" x="2.08725" y="-5.25556" width="16.2831" height="16.2878" transform="matrix(-0.396623 -0.917726 0.918435 -0.396164 2562.88 43.49)" stroke="#E55496" stroke-width="8"/>
<rect id="Rectangle 232_2" width="24.2831" height="24.2878" transform="matrix(-0.396623 -0.917726 0.918435 -0.396164 2539.56 41.584)" fill="#1E342C"/>
</g>
</g>
</svg>
