<svg width="3000" height="83" viewBox="0 0 3000 83" fill="none" xmlns="http://www.w3.org/2000/svg">
<path d="M-1 24.9892C33.6533 38.7811 68.3066 52.5729 102.965 49.7995C137.618 47.025 172.272 3.68293 206.925 12.0158C241.578 20.3486 276.237 56.354 310.89 53.3659C345.543 50.3766 380.197 21.3898 414.85 19.4974C449.508 17.605 484.162 29.812 518.815 45.8842C553.468 61.9553 588.127 55.9005 622.78 34.8577C657.433 13.8137 692.087 3.77391 726.74 2.9576C761.398 2.14129 796.052 23.5457 830.705 36.8249C865.358 50.1052 900.012 42.2654 934.67 31.3128C969.323 20.359 1003.98 6.29351 1038.63 12.0158C1073.28 17.738 1107.94 43.2503 1142.59 53.3659C1177.25 63.4803 1211.9 58.2002 1246.55 47.8526C1281.21 37.5038 1315.87 28.5861 1350.52 18.5132C1385.17 8.44039 1419.83 3.70995 1454.48 7.48668C1489.14 11.2634 1523.79 23.5485 1558.44 37.8102C1593.1 52.0708 1627.76 61.8119 1662.41 58.8791C1697.06 55.9453 1731.72 33.8414 1766.38 20.2862C1801.03 6.72995 1835.68 1.72125 1870.33 6.5025C1904.99 11.2837 1939.65 25.8526 1974.3 31.3128C2008.95 36.7718 2043.61 33.1221 2078.26 25.7995C2112.92 18.4758 2147.57 7.4816 2182.22 12.0158C2216.88 16.5499 2251.53 36.6148 2286.19 47.8526C2320.84 59.0893 2355.5 61.499 2390.15 53.3659C2424.8 45.2316 2459.46 26.5535 2494.11 20.2862C2528.77 14.0179 2563.42 20.1592 2598.08 31.3128C2632.73 42.4652 2667.39 45.6337 2702.04 40.371C2736.69 35.1071 2771.35 8.41823 2806 1.77691C2840.66 -4.86326 2875.31 8.54408 2909.96 18.3179C2944.62 28.0905 2979.28 47.2256 3013.93 53.3659V80C2979.28 80 2944.62 80 2909.96 80C2875.31 80 2840.66 80 2806 80C2771.35 80 2736.69 80 2702.04 80C2667.39 80 2632.73 80 2598.08 80C2563.42 80 2528.77 80 2494.11 80C2459.46 80 2424.8 80 2390.15 80C2355.5 80 2320.84 80 2286.19 80C2251.53 80 2216.88 80 2182.22 80C2147.57 80 2112.92 80 2078.26 80C2043.61 80 2008.95 80 1974.3 80C1939.65 80 1904.99 80 1870.33 80C1835.68 80 1801.03 80 1766.38 80C1731.72 80 1697.06 80 1662.41 80C1627.76 80 1593.1 80 1558.44 80C1523.79 80 1489.14 80 1454.48 80C1419.83 80 1385.17 80 1350.52 80C1315.87 80 1281.21 80 1246.55 80C1211.9 80 1177.25 80 1142.59 80C1107.94 80 1073.28 80 1038.63 80C1003.98 80 969.323 80 934.67 80C900.012 80 865.358 80 830.705 80C796.052 80 761.398 80 726.74 80C692.087 80 657.433 80 622.78 80C588.127 80 553.468 80 518.815 80C484.162 80 449.508 80 414.85 80C380.197 80 345.543 80 310.89 80C276.237 80 241.578 80 206.925 80C172.272 80 137.618 80 102.965 80C68.3066 80 33.6533 80 -1 80V24.9892Z" fill="#E55496" fill-opacity="0.6"/>
<path d="M-1 39.8946C33.5154 52.3672 68.0307 64.8398 102.551 62.3317C137.067 59.8226 171.582 22.3307 206.097 29.8664C240.613 37.4022 275.133 69.9636 309.649 67.2613C344.164 64.5579 378.679 38.3438 413.195 36.6324C447.715 34.921 482.231 45.9604 516.746 60.4953C551.261 75.0291 585.782 69.5535 620.297 50.5235C654.813 31.4924 689.328 22.4129 723.843 21.6747C758.364 20.9365 792.879 40.2935 827.395 52.3025C861.91 64.3126 896.425 57.2226 930.946 47.3176C965.461 37.4116 999.977 24.6915 1034.49 29.8664C1069.01 35.0413 1103.53 58.1133 1138.04 67.2613C1172.56 76.4082 1207.07 71.6332 1241.59 62.2754C1276.11 52.9165 1310.63 44.8517 1345.14 35.7424C1379.66 26.633 1414.17 22.3551 1448.69 25.7706C1483.21 29.186 1517.72 40.296 1552.24 53.1936C1586.76 66.0902 1621.27 74.8994 1655.79 72.2472C1690.3 69.594 1724.82 49.6044 1759.34 37.3458C1793.86 25.0862 1828.37 20.5566 1862.89 24.8805C1897.4 29.2044 1931.92 42.3798 1966.44 47.3176C2000.95 52.2545 2035.47 48.9539 2069.98 42.3317C2104.5 35.7086 2139.02 25.766 2173.54 29.8664C2208.05 33.9669 2242.57 52.1125 2277.09 62.2754C2311.6 72.4373 2346.12 74.6164 2380.63 67.2613C2415.15 59.9051 2449.67 43.0136 2484.18 37.3458C2518.7 31.677 2553.21 37.231 2587.74 47.3176C2622.25 57.4033 2656.77 60.2687 2691.28 55.5094C2725.8 50.749 2760.32 26.613 2794.83 20.6069C2829.35 14.6019 2863.86 26.7268 2898.38 35.5657C2932.9 44.4036 2967.41 61.7084 3001.93 67.2613V83C2967.41 83 2932.9 83 2898.38 83C2863.86 83 2829.35 83 2794.83 83C2760.32 83 2725.8 83 2691.28 83C2656.77 83 2622.25 83 2587.74 83C2553.21 83 2518.7 83 2484.18 83C2449.67 83 2415.15 83 2380.63 83C2346.12 83 2311.6 83 2277.09 83C2242.57 83 2208.05 83 2173.54 83C2139.02 83 2104.5 83 2069.98 83C2035.47 83 2000.95 83 1966.44 83C1931.92 83 1897.4 83 1862.89 83C1828.37 83 1793.86 83 1759.34 83C1724.82 83 1690.3 83 1655.79 83C1621.27 83 1586.76 83 1552.24 83C1517.72 83 1483.21 83 1448.69 83C1414.17 83 1379.66 83 1345.14 83C1310.63 83 1276.11 83 1241.59 83C1207.07 83 1172.56 83 1138.04 83C1103.53 83 1069.01 83 1034.49 83C999.977 83 965.461 83 930.946 83C896.425 83 861.91 83 827.395 83C792.879 83 758.364 83 723.843 83C689.328 83 654.813 83 620.297 83C585.782 83 551.261 83 516.746 83C482.231 83 447.715 83 413.195 83C378.679 83 344.164 83 309.649 83C275.133 83 240.613 83 206.097 83C171.582 83 137.067 83 102.551 83C68.0307 83 33.5154 83 -1 83V39.8946Z" fill="#1E342C"/>
</svg>
