
<svg width="3000" height="275" viewBox="0 0 3000 275" fill="none" xmlns="http://www.w3.org/2000/svg">
<mask id="path-1-inside-1_1266_829" fill="white">
<path fill-rule="evenodd" clip-rule="evenodd" d="M1641.81 92.7554C1635.66 89.2086 1627.8 91.3159 1624.24 97.4622L1620.82 103.389L1614.88 99.9616C1608.73 96.4165 1600.87 98.5227 1597.32 104.666C1593.77 110.809 1595.87 118.663 1602.02 122.208L1607.96 125.636L1604.54 131.563C1600.98 137.709 1603.09 145.567 1609.24 149.114C1615.39 152.661 1623.25 150.554 1626.81 144.407L1630.23 138.48L1636.18 141.909C1642.32 145.454 1650.18 143.348 1653.73 137.205C1657.28 131.061 1655.18 123.207 1649.03 119.662L1643.09 116.233L1646.51 110.306C1650.07 104.16 1647.96 96.3023 1641.81 92.7554Z"/>
</mask>
<path d="M1624.24 97.4622L1617.32 93.4593L1617.32 93.4593L1624.24 97.4622ZM1641.81 92.7554L1645.81 85.8255L1645.81 85.8255L1641.81 92.7554ZM1620.82 103.389L1616.82 110.319L1623.75 114.313L1627.75 107.392L1620.82 103.389ZM1614.88 99.9616L1618.87 93.0317L1618.87 93.0317L1614.88 99.9616ZM1597.32 104.666L1604.25 108.669L1597.32 104.666ZM1602.02 122.208L1606.02 115.279L1606.02 115.279L1602.02 122.208ZM1607.96 125.636L1614.89 129.639L1618.89 122.706L1611.96 118.706L1607.96 125.636ZM1604.54 131.563L1597.61 127.56L1597.61 127.56L1604.54 131.563ZM1609.24 149.114L1605.24 156.044L1605.24 156.044L1609.24 149.114ZM1626.81 144.407L1633.73 148.41L1633.73 148.41L1626.81 144.407ZM1630.23 138.48L1634.23 131.55L1627.3 127.557L1623.3 134.477L1630.23 138.48ZM1636.18 141.909L1632.18 148.839L1632.18 148.839L1636.18 141.909ZM1653.73 137.205L1660.66 141.208L1660.66 141.208L1653.73 137.205ZM1649.03 119.662L1653.03 112.732L1653.03 112.732L1649.03 119.662ZM1643.09 116.233L1636.16 112.23L1632.15 119.163L1639.09 123.163L1643.09 116.233ZM1646.51 110.306L1653.44 114.309L1653.44 114.309L1646.51 110.306ZM1631.17 101.465C1632.51 99.1419 1635.49 98.3447 1637.81 99.6853L1645.81 85.8255C1635.83 80.0725 1623.08 83.4899 1617.32 93.4593L1631.17 101.465ZM1627.75 107.392L1631.17 101.465L1617.32 93.4593L1613.89 99.3861L1627.75 107.392ZM1610.88 106.891L1616.82 110.319L1624.82 96.4592L1618.87 93.0317L1610.88 106.891ZM1604.25 108.669C1605.59 106.349 1608.56 105.553 1610.88 106.891L1618.87 93.0317C1608.9 87.2804 1596.15 90.6967 1590.39 100.663L1604.25 108.669ZM1606.02 115.279C1603.7 113.942 1602.91 110.985 1604.25 108.669L1590.39 100.663C1584.63 110.634 1588.05 123.384 1598.02 129.138L1606.02 115.279ZM1611.96 118.706L1606.02 115.279L1598.02 129.138L1603.97 132.566L1611.96 118.706ZM1611.46 135.566L1614.89 129.639L1601.04 121.633L1597.61 127.56L1611.46 135.566ZM1613.24 142.184C1610.92 140.846 1610.12 137.885 1611.46 135.566L1597.61 127.56C1591.85 137.534 1595.26 150.288 1605.24 156.044L1613.24 142.184ZM1619.88 140.404C1618.54 142.728 1615.56 143.525 1613.24 142.184L1605.24 156.044C1615.22 161.797 1627.97 158.38 1633.73 148.41L1619.88 140.404ZM1623.3 134.477L1619.88 140.404L1633.73 148.41L1637.16 142.483L1623.3 134.477ZM1640.17 134.979L1634.23 131.55L1626.23 145.41L1632.18 148.839L1640.17 134.979ZM1646.81 133.202C1645.47 135.522 1642.49 136.318 1640.17 134.979L1632.18 148.839C1642.15 154.59 1654.9 151.174 1660.66 141.208L1646.81 133.202ZM1645.04 126.592C1647.35 127.929 1648.15 130.886 1646.81 133.202L1660.66 141.208C1666.42 131.237 1663.01 118.486 1653.03 112.732L1645.04 126.592ZM1639.09 123.163L1645.04 126.592L1653.03 112.732L1647.08 109.303L1639.09 123.163ZM1639.59 106.304L1636.16 112.23L1650.01 120.236L1653.44 114.309L1639.59 106.304ZM1637.81 99.6853C1640.13 101.023 1640.93 103.985 1639.59 106.304L1653.44 114.309C1659.2 104.335 1655.79 91.5812 1645.81 85.8255L1637.81 99.6853Z" fill="#E55496" mask="url(#path-1-inside-1_1266_829)"/>
<rect width="25.7075" height="65.0935" rx="12.8537" transform="matrix(0.866239 0.49963 -0.50037 0.865812 1657.4 66)" fill="#1E342C"/>
<rect width="25.6948" height="65.1257" rx="12.8474" transform="matrix(-0.50037 0.865812 -0.866239 -0.49963 1686.89 105.748)" fill="#1E342C"/>
<mask id="path-5-inside-2_1266_829" fill="white">
<path fill-rule="evenodd" clip-rule="evenodd" d="M2353.85 77.3567C2348.25 72.9969 2340.17 74.0012 2335.8 79.5996L2331.59 84.9991L2326.18 80.7865C2320.58 76.4288 2312.5 77.4326 2308.14 83.0284C2303.77 88.6242 2304.78 96.6931 2310.37 101.051L2315.79 105.263L2311.58 110.662C2307.21 116.26 2308.21 124.333 2313.81 128.693C2319.41 133.052 2327.49 132.048 2331.86 126.45L2336.07 121.051L2341.49 125.266C2347.08 129.624 2355.16 128.62 2359.53 123.024C2363.89 117.429 2362.89 109.36 2357.29 105.002L2351.87 100.787L2356.08 95.3876C2360.45 89.7891 2359.45 81.7164 2353.85 77.3567Z"/>
</mask>
<path d="M2335.8 79.5996L2329.49 74.6813L2329.49 74.6813L2335.8 79.5996ZM2353.85 77.3567L2358.76 71.0435L2358.76 71.0435L2353.85 77.3567ZM2331.59 84.9991L2326.67 91.3123L2332.98 96.2214L2337.9 89.9174L2331.59 84.9991ZM2326.18 80.7865L2331.09 74.4733L2331.09 74.4733L2326.18 80.7865ZM2308.14 83.0284L2301.83 78.11L2301.83 78.11L2308.14 83.0284ZM2310.37 101.051L2315.29 94.7375L2315.29 94.7375L2310.37 101.051ZM2315.79 105.263L2322.09 110.182L2327.02 103.867L2320.7 98.9501L2315.79 105.263ZM2311.58 110.662L2305.27 105.743L2305.27 105.743L2311.58 110.662ZM2313.81 128.693L2318.73 122.38L2318.73 122.38L2313.81 128.693ZM2331.86 126.45L2338.17 131.368L2338.17 131.368L2331.86 126.45ZM2336.07 121.051L2340.99 114.738L2334.68 109.829L2329.76 116.133L2336.07 121.051ZM2341.49 125.266L2336.57 131.58L2336.57 131.58L2341.49 125.266ZM2359.53 123.024L2353.22 118.106L2353.22 118.106L2359.53 123.024ZM2357.29 105.002L2352.37 111.315L2352.37 111.315L2357.29 105.002ZM2351.87 100.787L2345.57 95.8687L2340.64 102.183L2346.96 107.1L2351.87 100.787ZM2356.08 95.3876L2362.39 100.306L2362.39 100.306L2356.08 95.3876ZM2342.11 84.518C2343.76 82.4019 2346.82 82.022 2348.93 83.6698L2358.76 71.0435C2349.68 63.9719 2336.57 65.6004 2329.49 74.6813L2342.11 84.518ZM2337.9 89.9174L2342.11 84.518L2329.49 74.6813L2325.28 80.0808L2337.9 89.9174ZM2321.26 87.0997L2326.67 91.3123L2336.5 78.6859L2331.09 74.4733L2321.26 87.0997ZM2314.45 87.9467C2316.09 85.8333 2319.15 85.4539 2321.26 87.0997L2331.09 74.4733C2322.01 67.4038 2308.91 69.0318 2301.83 78.11L2314.45 87.9467ZM2315.29 94.7375C2313.18 93.0949 2312.8 90.056 2314.45 87.9467L2301.83 78.11C2294.75 87.1923 2296.37 100.291 2305.46 107.364L2315.29 94.7375ZM2320.7 98.9501L2315.29 94.7375L2305.46 107.364L2310.87 111.576L2320.7 98.9501ZM2317.88 115.58L2322.09 110.182L2309.48 100.345L2305.27 105.743L2317.88 115.58ZM2318.73 122.38C2316.61 120.735 2316.24 117.692 2317.88 115.58L2305.27 105.743C2298.18 114.828 2299.81 127.931 2308.9 135.006L2318.73 122.38ZM2325.55 121.531C2323.9 123.647 2320.85 124.027 2318.73 122.38L2308.9 135.006C2317.98 142.077 2331.09 140.449 2338.17 131.368L2325.55 121.531ZM2329.76 116.133L2325.55 121.531L2338.17 131.368L2342.38 125.97L2329.76 116.133ZM2346.4 118.953L2340.99 114.738L2331.16 127.364L2336.57 131.58L2346.4 118.953ZM2353.22 118.106C2351.57 120.22 2348.52 120.599 2346.4 118.953L2336.57 131.58C2345.65 138.649 2358.75 137.021 2365.83 127.943L2353.22 118.106ZM2352.37 111.315C2354.48 112.958 2354.86 115.997 2353.22 118.106L2365.83 127.943C2372.92 118.861 2371.29 105.762 2362.2 98.689L2352.37 111.315ZM2346.96 107.1L2352.37 111.315L2362.2 98.689L2356.79 94.4738L2346.96 107.1ZM2349.78 90.4692L2345.57 95.8687L2358.18 105.705L2362.39 100.306L2349.78 90.4692ZM2348.93 83.6698C2351.05 85.3145 2351.42 88.3572 2349.78 90.4692L2362.39 100.306C2369.48 91.221 2367.85 78.1182 2358.76 71.0435L2348.93 83.6698Z" fill="#E55496" mask="url(#path-5-inside-2_1266_829)"/>
<rect width="25.7073" height="65.0941" rx="12.8536" transform="matrix(0.789047 0.614143 -0.615042 0.788643 2315.21 82.502)" fill="#1E342C"/>
<rect width="25.6951" height="65.1251" rx="12.8475" transform="matrix(-0.615042 0.788643 -0.789047 -0.614143 2338.93 125.93)" fill="#1E342C"/>
<mask id="path-9-inside-3_1266_829" fill="white">
<path fill-rule="evenodd" clip-rule="evenodd" d="M3007.26 60.7222C3001.11 57.1754 2993.24 59.2827 2989.69 65.429L2986.26 71.3559L2980.32 67.9284C2974.18 64.3833 2966.31 66.4895 2962.76 72.6328C2959.21 78.7761 2961.32 86.6301 2967.46 90.1752L2973.41 93.6027L2969.98 99.5299C2966.43 105.676 2968.54 113.534 2974.68 117.081C2980.83 120.628 2988.7 118.52 2992.25 112.374L2995.68 106.447L3001.62 109.876C3007.77 113.421 3015.63 111.315 3019.18 105.172C3022.73 99.0283 3020.62 91.1743 3014.48 87.6292L3008.53 84.2001L3011.96 78.2733C3015.51 72.1269 3013.4 64.2691 3007.26 60.7222Z"/>
</mask>
<path d="M2989.69 65.429L2996.62 69.432L2996.62 69.432L2989.69 65.429ZM3007.26 60.7222L3011.25 53.7923L3011.25 53.7923L3007.26 60.7222ZM2986.26 71.3559L2982.27 78.2858L2989.19 82.2794L2993.19 75.3588L2986.26 71.3559ZM2980.32 67.9284L2984.32 60.9984L2984.32 60.9984L2980.32 67.9284ZM2962.76 72.6328L2969.69 76.6358L2962.76 72.6328ZM2967.46 90.1752L2971.46 83.2453L2971.46 83.2453L2967.46 90.1752ZM2973.41 93.6027L2980.33 97.6057L2984.34 90.6733L2977.4 86.6728L2973.41 93.6027ZM2969.98 99.5299L2963.06 95.5269L2963.06 95.5269L2969.98 99.5299ZM2974.68 117.081L2970.69 124.011L2970.69 124.011L2974.68 117.081ZM2992.25 112.374L2999.18 116.377L2999.18 116.377L2992.25 112.374ZM2995.68 106.447L2999.67 99.5171L2992.75 95.5234L2988.75 102.444L2995.68 106.447ZM3001.62 109.876L2997.62 116.806L2997.62 116.806L3001.62 109.876ZM3019.18 105.172L3026.11 109.175L3026.11 109.175L3019.18 105.172ZM3014.48 87.6292L3010.48 94.5591L3010.48 94.5591L3014.48 87.6292ZM3008.53 84.2001L3001.61 80.1971L2997.6 87.1296L3004.54 91.13L3008.53 84.2001ZM3011.96 78.2733L3005.03 74.2703L3005.03 74.2703L3011.96 78.2733ZM2996.62 69.432C2997.96 67.1087 3000.93 66.3115 3003.26 67.6521L3011.25 53.7923C3001.28 48.0393 2988.52 51.4567 2982.76 61.4261L2996.62 69.432ZM2993.19 75.3588L2996.62 69.432L2982.76 61.4261L2979.34 67.3529L2993.19 75.3588ZM2976.32 74.8583L2982.27 78.2858L2990.26 64.4259L2984.32 60.9984L2976.32 74.8583ZM2969.69 76.6358C2971.03 74.3156 2974 73.5194 2976.32 74.8583L2984.32 60.9984C2974.35 55.2472 2961.6 58.6635 2955.84 68.6299L2969.69 76.6358ZM2971.46 83.2453C2969.15 81.9091 2968.35 78.9514 2969.69 76.6358L2955.84 68.6299C2950.08 78.6009 2953.49 91.3512 2963.47 97.1051L2971.46 83.2453ZM2977.4 86.6728L2971.46 83.2453L2963.47 97.1051L2969.41 100.533L2977.4 86.6728ZM2976.91 103.533L2980.33 97.6057L2966.48 89.5998L2963.06 95.5269L2976.91 103.533ZM2978.68 110.151C2976.36 108.813 2975.57 105.852 2976.91 103.533L2963.06 95.5269C2957.29 105.501 2960.71 118.255 2970.69 124.011L2978.68 110.151ZM2985.32 108.371C2983.98 110.694 2981.01 111.492 2978.68 110.151L2970.69 124.011C2980.66 129.764 2993.42 126.347 2999.18 116.377L2985.32 108.371ZM2988.75 102.444L2985.32 108.371L2999.18 116.377L3002.6 110.45L2988.75 102.444ZM3005.62 102.946L2999.67 99.5171L2991.68 113.377L2997.62 116.806L3005.62 102.946ZM3012.25 101.169C3010.91 103.489 3007.94 104.285 3005.62 102.946L2997.62 116.806C3007.6 122.557 3020.35 119.141 3026.11 109.175L3012.25 101.169ZM3010.48 94.5591C3012.8 95.8954 3013.59 98.853 3012.25 101.169L3026.11 109.175C3031.87 99.2035 3028.45 86.4532 3018.48 80.6993L3010.48 94.5591ZM3004.54 91.13L3010.48 94.5591L3018.48 80.6993L3012.53 77.2702L3004.54 91.13ZM3005.03 74.2703L3001.61 80.1971L3015.46 88.2031L3018.88 82.2762L3005.03 74.2703ZM3003.26 67.6521C3005.58 68.9901 3006.37 71.9517 3005.03 74.2703L3018.88 82.2762C3024.65 72.3022 3021.23 59.548 3011.25 53.7923L3003.26 67.6521Z" fill="#E55496" mask="url(#path-9-inside-3_1266_829)"/>
<rect width="25.7075" height="65.0935" rx="12.8537" transform="matrix(0.866239 0.49963 -0.50037 0.865812 2969.7 71.1387)" fill="#1E342C"/>
<rect width="25.6948" height="65.1257" rx="12.8474" transform="matrix(-0.50037 0.865812 -0.866239 -0.49963 2999.18 110.887)" fill="#1E342C"/>
<path d="M1366.37 53C1366.37 48.174 1362.26 44 1356.86 44C1351.46 44 1347.35 48.174 1347.35 53C1347.35 57.826 1351.46 62 1356.86 62C1362.26 62 1366.37 57.826 1366.37 53Z" stroke="#E55496" stroke-width="8"/>
<ellipse cx="13.0128" cy="13.5" rx="13.0128" ry="13.5" transform="matrix(1 1.74673e-07 1.75018e-07 -1 1357.36 75)" fill="#1E342C"/>
<path d="M2071.07 107C2071.07 111.826 2066.96 116 2061.55 116C2056.15 116 2052.04 111.826 2052.04 107C2052.04 102.174 2056.15 98 2061.55 98C2066.96 98 2071.07 102.174 2071.07 107Z" stroke="#E55496" stroke-width="8"/>
<ellipse cx="2075.07" cy="98.5" rx="13.0128" ry="13.5" fill="#1E342C"/>
<path d="M2758.75 52C2758.75 56.826 2754.63 61 2749.23 61C2743.83 61 2739.72 56.826 2739.72 52C2739.72 47.174 2743.83 43 2749.23 43C2754.63 43 2758.75 47.174 2758.75 52Z" stroke="#E55496" stroke-width="8"/>
<ellipse cx="2762.75" cy="43.5" rx="13.0128" ry="13.5" fill="#1E342C"/>
<mask id="path-19-inside-4_1266_829" fill="white">
<path fill-rule="evenodd" clip-rule="evenodd" d="M529.595 110.52C531.433 103.668 527.365 96.6254 520.509 94.7902L513.881 93.016L515.654 86.4072C517.492 79.5523 513.423 72.507 506.564 70.671C499.705 68.835 492.655 72.9037 490.816 79.7585L489.044 86.3673L482.414 84.5928C475.559 82.7576 468.511 86.8245 466.673 93.6764C464.835 100.528 468.903 107.571 475.759 109.406L482.388 111.18L480.614 117.795C478.776 124.65 482.845 131.695 489.704 133.531C496.563 135.367 503.613 131.298 505.452 124.443L507.226 117.829L513.854 119.603C520.71 121.439 527.758 117.372 529.595 110.52Z"/>
</mask>
<path d="M520.509 94.7902L518.443 102.517L518.443 102.517L520.509 94.7902ZM529.595 110.52L521.867 108.445L521.867 108.445L529.595 110.52ZM513.881 93.016L506.153 90.9412L504.08 98.6722L511.815 100.743L513.881 93.016ZM515.654 86.4072L507.926 84.3324L507.926 84.3324L515.654 86.4072ZM506.564 70.671L508.63 62.9442L508.63 62.9442L506.564 70.671ZM490.816 79.7585L498.544 81.8334L498.544 81.8334L490.816 79.7585ZM489.044 86.3673L486.977 94.0941L494.701 96.1617L496.772 88.4421L489.044 86.3673ZM482.414 84.5928L480.348 92.3195L480.348 92.3195L482.414 84.5928ZM466.673 93.6764L474.401 95.7512L474.401 95.7512L466.673 93.6764ZM475.759 109.406L477.825 101.679L477.825 101.679L475.759 109.406ZM482.388 111.18L490.116 113.255L492.19 105.524L484.455 103.454L482.388 111.18ZM480.614 117.795L488.342 119.87L488.342 119.87L480.614 117.795ZM505.452 124.443L497.724 122.369L497.724 122.369L505.452 124.443ZM507.226 117.829L509.292 110.102L501.569 108.035L499.498 115.754L507.226 117.829ZM513.854 119.603L515.92 111.877L515.92 111.877L513.854 119.603ZM518.443 102.517C521.028 103.209 522.56 105.862 521.867 108.445L537.323 112.595C540.306 101.474 533.703 90.042 522.576 87.0635L518.443 102.517ZM511.815 100.743L518.443 102.517L522.576 87.0635L515.948 85.2892L511.815 100.743ZM507.926 84.3324L506.153 90.9412L521.609 95.0908L523.382 88.482L507.926 84.3324ZM504.498 78.3978C507.085 79.0904 508.619 81.7463 507.926 84.3324L523.382 88.482C526.365 77.3584 519.76 65.9235 508.63 62.9442L504.498 78.3978ZM498.544 81.8334C499.239 79.2428 501.906 77.7039 504.498 78.3978L508.63 62.9442C497.505 59.9661 486.071 66.5645 483.088 77.6837L498.544 81.8334ZM496.772 88.4421L498.544 81.8334L483.088 77.6837L481.316 84.2925L496.772 88.4421ZM480.348 92.3195L486.977 94.0941L491.11 78.6406L484.481 76.866L480.348 92.3195ZM474.401 95.7512C475.095 93.1636 477.759 91.6265 480.348 92.3195L484.481 76.866C473.358 73.8887 461.927 80.4854 458.945 91.6016L474.401 95.7512ZM477.825 101.679C475.241 100.987 473.708 98.3344 474.401 95.7512L458.945 91.6016C455.962 102.722 462.566 114.154 473.693 117.133L477.825 101.679ZM484.455 103.454L477.825 101.679L473.693 117.133L480.322 118.907L484.455 103.454ZM488.342 119.87L490.116 113.255L474.66 109.106L472.886 115.72L488.342 119.87ZM491.77 125.804C489.183 125.112 487.649 122.456 488.342 119.87L472.886 115.72C469.903 126.844 476.508 138.278 487.638 141.258L491.77 125.804ZM497.724 122.369C497.029 124.959 494.363 126.498 491.77 125.804L487.638 141.258C498.763 144.236 510.198 137.637 513.18 126.518L497.724 122.369ZM499.498 115.754L497.724 122.369L513.18 126.518L514.954 119.904L499.498 115.754ZM515.92 111.877L509.292 110.102L505.16 125.556L511.788 127.33L515.92 111.877ZM521.867 108.445C521.173 111.033 518.51 112.57 515.92 111.877L511.788 127.33C522.91 130.307 534.342 123.711 537.323 112.595L521.867 108.445Z" fill="#E55496" mask="url(#path-19-inside-4_1266_829)"/>
<rect width="25.6957" height="65.1235" rx="12.8478" transform="matrix(-0.259002 0.965655 -0.966196 -0.258636 559.498 118.639)" fill="#1E342C"/>
<rect width="25.7066" height="65.0957" rx="12.8533" transform="matrix(-0.966196 -0.258636 0.259002 -0.965655 528.697 157.381)" fill="#1E342C"/>
<mask id="path-23-inside-5_1266_829" fill="white">
<path fill-rule="evenodd" clip-rule="evenodd" d="M26.2165 37.7554C20.0672 34.2086 12.2026 36.3159 8.65047 42.4622L5.22523 48.3891L-0.717234 44.9616C-6.86357 41.4165 -14.7243 43.5227 -18.2746 49.666C-21.825 55.8093 -19.7205 63.6633 -13.5741 67.2084L-7.63168 70.6359L-11.0571 76.5631C-14.6092 82.7095 -12.5037 90.5673 -6.35434 94.1142C-0.204967 97.661 7.65962 95.5537 11.2117 89.4073L14.6371 83.4802L20.5824 86.9093C26.7287 90.4544 34.5894 88.3481 38.1398 82.2048C41.6901 76.0615 39.5856 68.2075 33.4393 64.6624L27.4941 61.2333L30.9193 55.3065C34.4714 49.1601 32.3659 41.3023 26.2165 37.7554Z"/>
</mask>
<path d="M8.65047 42.4622L15.577 46.4652L15.577 46.4652L8.65047 42.4622ZM26.2165 37.7554L30.2136 30.8255L30.2136 30.8255L26.2165 37.7554ZM5.22523 48.3891L1.22819 55.319L8.15218 59.3126L12.1517 52.392L5.22523 48.3891ZM-0.717234 44.9616L3.27981 38.0317L3.27981 38.0317L-0.717234 44.9616ZM-18.2746 49.666L-11.3481 53.669L-18.2746 49.666ZM-13.5741 67.2084L-9.57711 60.2785L-9.57711 60.2785L-13.5741 67.2084ZM-7.63168 70.6359L-0.705191 74.6389L3.30119 67.7065L-3.63464 63.706L-7.63168 70.6359ZM-11.0571 76.5631L-17.9836 72.5602L-17.9836 72.5602L-11.0571 76.5631ZM-6.35434 94.1142L-10.3514 101.044L-10.3514 101.044L-6.35434 94.1142ZM11.2117 89.4073L18.1382 93.4103L18.1382 93.4103L11.2117 89.4073ZM14.6371 83.4802L18.6342 76.5503L11.7102 72.5566L7.71066 79.4772L14.6371 83.4802ZM20.5824 86.9093L16.5853 93.8392L16.5853 93.8392L20.5824 86.9093ZM38.1398 82.2048L45.0663 86.2077L45.0663 86.2077L38.1398 82.2048ZM33.4393 64.6624L29.4422 71.5923L29.4423 71.5923L33.4393 64.6624ZM27.4941 61.2333L20.5676 57.2303L16.5612 64.1628L23.497 68.1632L27.4941 61.2333ZM30.9193 55.3065L23.9928 51.3035L23.9928 51.3035L30.9193 55.3065ZM15.577 46.4652C16.9196 44.1419 19.8951 43.3447 22.2195 44.6853L30.2136 30.8255C20.2392 25.0725 7.48551 28.4899 1.72398 38.4593L15.577 46.4652ZM12.1517 52.392L15.577 46.4652L1.72398 38.4593L-1.70126 44.3861L12.1517 52.392ZM-4.71427 51.8915L1.22819 55.319L9.22227 41.4592L3.27981 38.0317L-4.71427 51.8915ZM-11.3481 53.669C-10.0072 51.3488 -7.03564 50.5526 -4.71427 51.8915L3.27981 38.0317C-6.6915 32.2804 -19.4413 35.6967 -25.2011 45.6631L-11.3481 53.669ZM-9.57711 60.2785C-11.8939 58.9423 -12.6864 55.9846 -11.3481 53.669L-25.2011 45.6631C-30.9636 55.6341 -27.5471 68.3844 -17.5712 74.1383L-9.57711 60.2785ZM-3.63464 63.706L-9.57711 60.2785L-17.5712 74.1383L-11.6287 77.5658L-3.63464 63.706ZM-4.13063 80.5661L-0.705191 74.6389L-14.5582 66.633L-17.9836 72.5602L-4.13063 80.5661ZM-2.3573 87.1842C-4.67707 85.8462 -5.47061 82.8847 -4.13063 80.5661L-17.9836 72.5602C-23.7478 82.5342 -20.3303 95.2884 -10.3514 101.044L-2.3573 87.1842ZM4.28523 85.4044C2.94257 87.7276 -0.0329087 88.5249 -2.3573 87.1842L-10.3514 101.044C-0.377026 106.797 12.3767 103.38 18.1382 93.4103L4.28523 85.4044ZM7.71066 79.4772L4.28523 85.4044L18.1382 93.4103L21.5636 87.4831L7.71066 79.4772ZM24.5794 79.9794L18.6342 76.5503L10.6401 90.4101L16.5853 93.8392L24.5794 79.9794ZM31.2133 78.2018C29.8724 80.522 26.9008 81.3183 24.5794 79.9794L16.5853 93.8392C26.5566 99.5904 39.3065 96.1741 45.0663 86.2077L31.2133 78.2018ZM29.4423 71.5923C31.759 72.9286 32.5515 75.8862 31.2133 78.2018L45.0663 86.2077C50.8287 76.2367 47.4123 63.4864 37.4363 57.7325L29.4423 71.5923ZM23.497 68.1632L29.4422 71.5923L37.4363 57.7325L31.4911 54.3034L23.497 68.1632ZM23.9928 51.3035L20.5676 57.2303L34.4206 65.2363L37.8458 59.3094L23.9928 51.3035ZM22.2195 44.6853C24.5393 46.0233 25.3328 48.9849 23.9928 51.3035L37.8458 59.3094C43.61 49.3354 40.1925 36.5812 30.2136 30.8255L22.2195 44.6853Z" fill="#E55496" mask="url(#path-23-inside-5_1266_829)"/>
<rect width="25.7075" height="65.0935" rx="12.8537" transform="matrix(0.866239 0.49963 -0.50037 0.865812 41.8066 11)" fill="#1E342C"/>
<rect width="25.6948" height="65.1257" rx="12.8474" transform="matrix(-0.50037 0.865812 -0.866239 -0.49963 71.293 50.748)" fill="#1E342C"/>
<path d="M917.329 72.3068C921.646 70.1244 927.229 71.9111 929.664 76.7191C932.099 81.5271 930.234 87.079 925.917 89.2613C921.6 91.4437 916.017 89.657 913.582 84.849C911.146 80.041 913.012 74.4891 917.329 72.3068Z" stroke="#E55496" stroke-width="8"/>
<ellipse cx="13.0026" cy="13.5106" rx="13.0026" ry="13.5106" transform="matrix(-0.451856 -0.892091 0.89245 -0.451146 932.254 103.988)" fill="#1E342C"/>
<path d="M375.394 72C375.394 76.826 371.282 81 365.881 81C360.479 81 356.367 76.826 356.367 72C356.367 67.174 360.479 63 365.881 63C371.282 63 375.394 67.174 375.394 72Z" stroke="#E55496" stroke-width="8"/>
<ellipse cx="353.368" cy="84.5" rx="13.0128" ry="13.5" fill="#1E342C"/>
<rect x="2.82773" y="4.89777" width="16.2961" height="16.2754" transform="matrix(0.96599 0.258581 -0.259057 0.965862 1177.83 126.088)" stroke="#E55496" stroke-width="8"/>
<rect width="24.2961" height="24.2754" transform="matrix(0.96599 0.258581 -0.259057 0.965862 1191.88 119)" fill="#1E342C"/>
<rect x="-2.82773" y="-4.89777" width="16.2961" height="16.2754" transform="matrix(-0.96599 -0.258581 0.259058 -0.965862 752.323 48.369)" stroke="#E55496" stroke-width="8"/>
<rect width="24.2961" height="24.2754" transform="matrix(-0.96599 -0.258581 0.259058 -0.965862 741.197 66.3809)" fill="#1E342C"/>
<rect x="-1.46482" y="5.4614" width="16.2857" height="16.2857" transform="matrix(0.500247 0.865598 -0.866453 0.499753 182.662 13.8535)" stroke="#E55496" stroke-width="8"/>
<rect width="24.2857" height="24.2857" transform="matrix(0.500247 0.865598 -0.866453 0.499753 194.979 15.332)" fill="#1E342C"/>
<rect x="2.14342" y="-5.2329" width="16.2831" height="16.2883" transform="matrix(-0.386773 -0.921916 0.922629 -0.386308 1884.5 68.6377)" stroke="#E55496" stroke-width="8"/>
<rect width="24.2831" height="24.2883" transform="matrix(-0.386773 -0.921916 0.922629 -0.386308 1861.21 66.4219)" fill="#1E342C"/>
<rect x="2.08726" y="-5.25551" width="16.2834" height="16.2881" transform="matrix(-0.396628 -0.917718 0.918443 -0.396159 2562.39 98.4901)" stroke="#E55496" stroke-width="8"/>
<rect width="24.2834" height="24.2881" transform="matrix(-0.396628 -0.917718 0.918443 -0.396159 2539.07 96.584)" fill="#1E342C"/>
<path d="M-2.98242 99.5188C31.5333 120.694 66.049 141.87 100.57 137.612C135.086 133.352 169.601 103.655 204.117 116.449C238.633 129.243 273.154 184.524 307.67 179.936C342.185 175.347 376.701 130.841 411.217 127.936C445.738 125.03 480.253 143.772 514.769 168.449C549.285 193.124 583.806 183.828 618.322 151.519C652.837 119.209 687.353 103.794 721.869 102.541C756.39 101.288 790.905 134.151 825.421 154.54C859.937 174.93 894.453 162.893 928.974 146.077C963.489 129.258 998.005 107.663 1032.52 116.449C1067.04 125.234 1101.56 164.405 1136.07 179.936C1170.59 195.465 1205.1 187.359 1239.62 171.471C1274.14 155.582 1308.66 141.89 1343.17 126.425C1377.69 110.959 1412.2 103.696 1446.73 109.495C1481.24 115.293 1515.76 134.156 1550.27 156.053C1584.79 177.948 1619.31 192.904 1653.82 188.401C1688.34 183.896 1722.86 149.959 1757.38 129.147C1791.89 108.333 1826.41 100.643 1860.92 107.984C1895.44 115.325 1929.96 137.693 1964.48 146.077C1998.99 154.458 2033.51 148.854 2068.02 137.612C2102.55 126.367 2137.06 109.487 2171.58 116.449C2206.09 123.41 2240.61 154.217 2275.13 171.471C2309.64 188.724 2344.16 192.423 2378.68 179.936C2413.19 167.447 2447.71 138.769 2482.23 129.147C2516.74 119.523 2551.26 128.952 2585.78 146.077C2620.3 163.2 2654.81 168.064 2689.33 159.984C2723.84 151.902 2758.36 110.925 2792.88 100.728C2827.4 90.5331 2861.91 111.118 2896.43 126.125C2930.95 141.129 2965.46 170.509 2999.98 179.936V274.567C2965.46 274.567 2930.95 274.567 2896.43 274.567C2861.91 274.567 2827.4 274.567 2792.88 274.567C2758.36 274.567 2723.84 274.567 2689.33 274.567C2654.81 274.567 2620.3 274.567 2585.78 274.567C2551.26 274.567 2516.74 274.567 2482.23 274.567C2447.71 274.567 2413.19 274.567 2378.68 274.567C2344.16 274.567 2309.64 274.567 2275.13 274.567C2240.61 274.567 2206.09 274.567 2171.58 274.567C2137.06 274.567 2102.55 274.567 2068.02 274.567C2033.51 274.567 1998.99 274.567 1964.48 274.567C1929.96 274.567 1895.44 274.567 1860.92 274.567C1826.41 274.567 1791.89 274.567 1757.38 274.567C1722.86 274.567 1688.34 274.567 1653.82 274.567C1619.31 274.567 1584.79 274.567 1550.27 274.567C1515.76 274.567 1481.24 274.567 1446.73 274.567C1412.2 274.567 1377.69 274.567 1343.17 274.567C1308.66 274.567 1274.14 274.567 1239.62 274.567C1205.1 274.567 1170.59 274.567 1136.07 274.567C1101.56 274.567 1067.04 274.567 1032.52 274.567C998.005 274.567 963.489 274.567 928.974 274.567C894.453 274.567 859.937 274.567 825.421 274.567C790.905 274.567 756.39 274.567 721.869 274.567C687.353 274.567 652.837 274.567 618.322 274.567C583.806 274.567 549.285 274.567 514.769 274.567C480.253 274.567 445.738 274.567 411.217 274.567C376.701 274.567 342.185 274.567 307.67 274.567C273.154 274.567 238.633 274.567 204.117 274.567C169.601 274.567 135.086 274.567 100.57 274.567C66.049 274.567 31.5333 274.567 -2.98242 274.567V99.5188Z" fill="#1E342C"/>
</svg>
