<svg width="3000" height="193" viewBox="0 0 3000 193" fill="none" xmlns="http://www.w3.org/2000/svg">
<path d="M0 16.9932C34.4817 38.2197 68.9634 59.4462 103.45 55.1778C137.932 50.9076 172.414 21.139 206.895 33.9637C241.377 46.7885 275.864 102.203 310.346 97.6042C344.827 93.0035 379.309 48.391 413.791 45.4785C448.277 42.5659 482.759 61.3533 517.241 86.0894C551.723 110.824 586.209 101.505 620.691 69.1189C655.173 36.7309 689.654 21.279 724.136 20.0226C758.623 18.7663 793.105 51.7091 827.586 72.1466C862.068 92.5859 896.55 80.5199 931.037 63.6631C965.518 46.8045 1000 25.1568 1034.48 33.9637C1068.96 42.7706 1103.45 82.0357 1137.93 97.6042C1172.41 113.171 1206.9 105.045 1241.38 89.1189C1275.86 73.1915 1310.35 59.4665 1344.83 43.9637C1379.31 28.461 1413.79 21.1806 1448.28 26.9932C1482.76 32.8058 1517.24 51.7133 1551.72 73.6631C1586.21 95.6111 1620.69 110.603 1655.17 106.089C1689.65 101.574 1724.14 67.5547 1758.62 46.6925C1793.1 25.8285 1827.59 18.1198 1862.07 25.4785C1896.55 32.8371 1931.04 55.2595 1965.52 63.6631C2000 72.0648 2034.48 66.4477 2068.96 55.1778C2103.45 43.9062 2137.93 26.9854 2172.41 33.9637C2206.9 40.9421 2241.38 71.8232 2275.86 89.1189C2310.35 106.413 2344.83 110.122 2379.31 97.6042C2413.79 85.0851 2448.28 56.3382 2482.76 46.6925C2517.24 37.0451 2551.72 46.4971 2586.21 63.6631C2620.69 80.8273 2655.17 85.7038 2689.65 77.6042C2724.14 69.5027 2758.62 28.4269 2793.1 18.2055C2827.59 7.98583 2862.07 28.6206 2896.55 43.6631C2931.04 58.7038 2965.52 88.154 3000 97.6042V192.463C2965.52 192.463 2931.04 192.463 2896.55 192.463C2862.07 192.463 2827.59 192.463 2793.1 192.463C2758.62 192.463 2724.14 192.463 2689.65 192.463C2655.17 192.463 2620.69 192.463 2586.21 192.463C2551.72 192.463 2517.24 192.463 2482.76 192.463C2448.28 192.463 2413.79 192.463 2379.31 192.463C2344.83 192.463 2310.35 192.463 2275.86 192.463C2241.38 192.463 2206.9 192.463 2172.41 192.463C2137.93 192.463 2103.45 192.463 2068.96 192.463C2034.48 192.463 2000 192.463 1965.52 192.463C1931.04 192.463 1896.55 192.463 1862.07 192.463C1827.59 192.463 1793.1 192.463 1758.62 192.463C1724.14 192.463 1689.65 192.463 1655.17 192.463C1620.69 192.463 1586.21 192.463 1551.72 192.463C1517.24 192.463 1482.76 192.463 1448.28 192.463C1413.79 192.463 1379.31 192.463 1344.83 192.463C1310.35 192.463 1275.86 192.463 1241.38 192.463C1206.9 192.463 1172.41 192.463 1137.93 192.463C1103.45 192.463 1068.96 192.463 1034.48 192.463C1000 192.463 965.518 192.463 931.037 192.463C896.55 192.463 862.068 192.463 827.586 192.463C793.105 192.463 758.623 192.463 724.136 192.463C689.654 192.463 655.173 192.463 620.691 192.463C586.209 192.463 551.723 192.463 517.241 192.463C482.759 192.463 448.277 192.463 413.791 192.463C379.309 192.463 344.827 192.463 310.346 192.463C275.864 192.463 241.377 192.463 206.895 192.463C172.414 192.463 137.932 192.463 103.45 192.463C68.9634 192.463 34.4817 192.463 0 192.463V16.9932Z" fill="#1E342C"/>
</svg>
