
<svg width="3000" height="134" viewBox="0 0 3000 134" fill="none" xmlns="http://www.w3.org/2000/svg">
<g id="Group 336">
<g id="star">
<g id="Group 124">
<g id="Union">
<mask id="path-1-inside-1_1274_834" fill="white">
<path fill-rule="evenodd" clip-rule="evenodd" d="M1630.22 70.2446C1624.07 73.7914 1616.2 71.6842 1612.65 65.5379L1609.22 59.611L1603.28 63.0383C1597.14 66.5835 1589.28 64.4772 1585.73 58.3339C1582.18 52.1906 1584.28 44.3366 1590.43 40.7915L1596.37 37.3641L1592.94 31.4367C1589.39 25.2905 1591.5 17.4327 1597.65 13.8858C1603.79 10.339 1611.66 12.4462 1615.21 18.5925L1618.64 24.5199L1624.58 21.0908C1630.73 17.5457 1638.59 19.6519 1642.14 25.7952C1645.69 31.9385 1643.58 39.7925 1637.44 43.3377L1631.49 46.7668L1634.92 52.6937C1638.47 58.8399 1636.36 66.6977 1630.22 70.2446Z"/>
</mask>
<path d="M1612.65 65.5379L1619.58 61.535L1619.58 61.535L1612.65 65.5379ZM1630.22 70.2446L1634.21 77.1744L1634.21 77.1744L1630.22 70.2446ZM1609.22 59.611L1605.23 52.6811L1612.15 48.6874L1616.15 55.6081L1609.22 59.611ZM1603.28 63.0383L1607.28 69.9682L1607.28 69.9682L1603.28 63.0383ZM1585.73 58.3339L1592.65 54.331L1585.73 58.3339ZM1590.43 40.7915L1594.42 47.7214L1590.43 40.7915ZM1596.37 37.3641L1603.29 33.3612L1607.3 40.2936L1600.36 44.294L1596.37 37.3641ZM1592.94 31.4367L1599.87 27.4338L1599.87 27.4338L1592.94 31.4367ZM1597.65 13.8858L1593.65 6.95595L1593.65 6.95595L1597.65 13.8858ZM1615.21 18.5925L1622.14 14.5896L1622.14 14.5896L1615.21 18.5925ZM1618.64 24.5199L1622.63 31.4498L1615.71 35.4435L1611.71 28.5228L1618.64 24.5199ZM1624.58 21.0908L1628.58 28.0207L1628.58 28.0207L1624.58 21.0908ZM1642.14 25.7952L1635.21 29.7981L1635.21 29.7981L1642.14 25.7952ZM1637.44 43.3377L1633.44 36.4078L1633.44 36.4078L1637.44 43.3377ZM1631.49 46.7668L1624.57 50.7697L1620.56 43.8373L1627.5 39.8369L1631.49 46.7668ZM1634.92 52.6937L1627.99 56.6965L1634.92 52.6937ZM1619.58 61.535C1620.92 63.8581 1623.89 64.6553 1626.22 63.3147L1634.21 77.1744C1624.24 82.9275 1611.48 79.5102 1605.72 69.5408L1619.58 61.535ZM1616.15 55.6081L1619.58 61.535L1605.72 69.5408L1602.3 63.6139L1616.15 55.6081ZM1599.29 56.1085L1605.23 52.6811L1613.22 66.5409L1607.28 69.9682L1599.29 56.1085ZM1592.65 54.331C1593.99 56.6512 1596.96 57.4474 1599.29 56.1085L1607.28 69.9682C1597.31 75.7196 1584.56 72.3033 1578.8 62.3368L1592.65 54.331ZM1594.42 47.7214C1592.11 49.0576 1591.31 52.0154 1592.65 54.331L1578.8 62.3368C1573.04 52.3659 1576.45 39.6156 1586.43 33.8616L1594.42 47.7214ZM1600.36 44.294L1594.42 47.7214L1586.43 33.8616L1592.37 30.4343L1600.36 44.294ZM1599.87 27.4338L1603.29 33.3612L1589.44 41.367L1586.02 35.4396L1599.87 27.4338ZM1601.64 20.8157C1599.32 22.1537 1598.53 25.1153 1599.87 27.4338L1586.02 35.4396C1580.25 25.4657 1583.67 12.7116 1593.65 6.95595L1601.64 20.8157ZM1608.28 22.5954C1606.94 20.2723 1603.97 19.4751 1601.64 20.8157L1593.65 6.95595C1603.62 1.20288 1616.38 4.62019 1622.14 14.5896L1608.28 22.5954ZM1611.71 28.5228L1608.28 22.5954L1622.14 14.5896L1625.56 20.517L1611.71 28.5228ZM1628.58 28.0207L1622.63 31.4498L1614.64 17.59L1620.58 14.1609L1628.58 28.0207ZM1635.21 29.7981C1633.87 27.4779 1630.9 26.6818 1628.58 28.0207L1620.58 14.1609C1630.56 8.40955 1643.31 11.8259 1649.06 21.7923L1635.21 29.7981ZM1633.44 36.4078C1635.76 35.0715 1636.55 32.1137 1635.21 29.7981L1649.06 21.7923C1654.83 31.7633 1651.41 44.5136 1641.44 50.2675L1633.44 36.4078ZM1627.5 39.8369L1633.44 36.4078L1641.44 50.2675L1635.49 53.6966L1627.5 39.8369ZM1627.99 56.6965L1624.57 50.7697L1638.42 42.7639L1641.84 48.6908L1627.99 56.6965ZM1626.22 63.3147C1628.54 61.9767 1629.33 59.0151 1627.99 56.6965L1641.84 48.6908C1647.61 58.6647 1644.19 71.4188 1634.21 77.1744L1626.22 63.3147Z" fill="#E55496" mask="url(#path-1-inside-1_1274_834)"/>
</g>
</g>
<g id="Group 114">
<rect id="Rectangle 221" width="25.707" height="65.0932" rx="12.8535" transform="matrix(0.866234 -0.499639 -0.500361 -0.865817 1645.8 97)" fill="#41EAD4"/>
<rect id="Rectangle 222" width="25.6947" height="65.1245" rx="12.8473" transform="matrix(-0.500362 -0.865817 -0.866234 0.499639 1675.29 57.252)" fill="#41EAD4"/>
</g>
</g>
<g id="star_2">
<g id="Group 125">
<g id="Union_2">
<mask id="path-5-inside-2_1274_834" fill="white">
<path fill-rule="evenodd" clip-rule="evenodd" d="M2385.59 81.6433C2379.99 86.003 2371.91 84.9989 2367.54 79.4005L2363.33 74.0009L2357.92 78.2134C2352.32 82.5711 2344.25 81.5674 2339.88 75.9716C2335.52 70.3758 2336.52 62.3069 2342.12 57.9492L2347.53 53.7367L2343.32 48.3381C2338.95 42.7397 2339.96 34.667 2345.56 30.3073C2351.16 25.9476 2359.24 26.9517 2363.6 32.5501L2367.81 37.9488L2373.23 33.7337C2378.83 29.376 2386.9 30.3797 2391.27 35.9755C2395.63 41.5713 2394.63 49.6402 2389.03 53.9979L2383.62 58.213L2387.83 63.6126C2392.19 69.211 2391.19 77.2836 2385.59 81.6433Z"/>
</mask>
<path d="M2367.54 79.4005L2361.24 84.3188L2361.24 84.3188L2367.54 79.4005ZM2385.59 81.6433L2380.68 75.3302L2380.68 75.3302L2385.59 81.6433ZM2363.33 74.0009L2358.42 67.6878L2364.73 62.7785L2369.64 69.0826L2363.33 74.0009ZM2357.92 78.2134L2353.01 71.9003L2353.01 71.9003L2357.92 78.2134ZM2339.88 75.9716L2346.19 71.0533L2346.19 71.0533L2339.88 75.9716ZM2342.12 57.9492L2337.2 51.6361L2337.2 51.6361L2342.12 57.9492ZM2347.53 53.7367L2353.84 48.8184L2358.76 55.1327L2352.45 60.0498L2347.53 53.7367ZM2343.32 48.3381L2349.63 43.4198L2343.32 48.3381ZM2345.56 30.3073L2340.64 23.9942L2340.64 23.9942L2345.56 30.3073ZM2363.6 32.5501L2357.3 37.4684L2357.3 37.4684L2363.6 32.5501ZM2367.81 37.9488L2372.73 44.2619L2366.42 49.1712L2361.51 42.8671L2367.81 37.9488ZM2373.23 33.7337L2368.31 27.4206L2368.31 27.4206L2373.23 33.7337ZM2391.27 35.9755L2397.58 31.0572L2397.58 31.0572L2391.27 35.9755ZM2389.03 53.9979L2384.12 47.6848L2384.12 47.6848L2389.03 53.9979ZM2383.62 58.213L2377.31 63.1313L2372.38 56.817L2378.7 51.8999L2383.62 58.213ZM2387.83 63.6126L2381.52 68.5309L2381.52 68.5309L2387.83 63.6126ZM2373.85 74.4822C2375.5 76.5981 2378.56 76.978 2380.68 75.3302L2390.51 87.9565C2381.42 95.0281 2368.32 93.3997 2361.24 84.3188L2373.85 74.4822ZM2369.64 69.0826L2373.85 74.4822L2361.24 84.3188L2357.02 78.9192L2369.64 69.0826ZM2353.01 71.9003L2358.42 67.6878L2368.25 80.314L2362.84 84.5265L2353.01 71.9003ZM2346.19 71.0533C2347.84 73.1666 2350.89 73.546 2353.01 71.9003L2362.84 84.5265C2353.75 91.5962 2340.65 89.9682 2333.57 80.8899L2346.19 71.0533ZM2347.03 64.2623C2344.92 65.905 2344.55 68.944 2346.19 71.0533L2333.57 80.8899C2326.49 71.8077 2328.12 58.7088 2337.2 51.6361L2347.03 64.2623ZM2352.45 60.0498L2347.03 64.2623L2337.2 51.6361L2342.62 47.4236L2352.45 60.0498ZM2349.63 43.4198L2353.84 48.8184L2341.22 58.655L2337.01 53.2564L2349.63 43.4198ZM2350.47 36.6204C2348.36 38.2651 2347.98 41.3078 2349.63 43.4198L2337.01 53.2564C2329.93 44.1715 2331.55 31.0689 2340.64 23.9942L2350.47 36.6204ZM2357.3 37.4684C2355.65 35.3525 2352.59 34.9727 2350.47 36.6204L2340.64 23.9942C2349.73 16.9225 2362.83 18.5509 2369.91 27.6318L2357.3 37.4684ZM2361.51 42.8671L2357.3 37.4684L2369.91 27.6318L2374.12 33.0305L2361.51 42.8671ZM2378.14 40.0468L2372.73 44.2619L2362.9 31.6356L2368.31 27.4206L2378.14 40.0468ZM2384.96 40.8938C2383.31 38.7805 2380.26 38.4011 2378.14 40.0468L2368.31 27.4206C2377.4 20.3509 2390.5 21.9789 2397.58 31.0572L2384.96 40.8938ZM2384.12 47.6848C2386.23 46.0421 2386.6 43.0032 2384.96 40.8938L2397.58 31.0572C2404.66 40.1395 2403.03 53.2383 2393.95 60.3111L2384.12 47.6848ZM2378.7 51.8999L2384.12 47.6848L2393.95 60.3111L2388.53 64.5261L2378.7 51.8999ZM2381.52 68.5309L2377.31 63.1313L2389.93 53.2947L2394.14 58.6943L2381.52 68.5309ZM2380.68 75.3302C2382.79 73.6855 2383.17 70.6428 2381.52 68.5309L2394.14 58.6943C2401.22 67.7791 2399.6 80.8817 2390.51 87.9565L2380.68 75.3302Z" fill="#E55496" mask="url(#path-5-inside-2_1274_834)"/>
</g>
</g>
<g id="Group 112">
<rect id="Rectangle 221_2" width="25.7068" height="65.0938" rx="12.8534" transform="matrix(0.789042 -0.614154 -0.615031 -0.788647 2346.95 76.498)" fill="#41EAD4"/>
<rect id="Rectangle 222_2" width="25.6949" height="65.1239" rx="12.8475" transform="matrix(-0.615031 -0.788647 -0.789042 0.614154 2370.67 33.0703)" fill="#41EAD4"/>
</g>
</g>
<g id="star_3">
<g id="Group 125_2">
<g id="Union_3">
<mask id="path-9-inside-3_1274_834" fill="white">
<path fill-rule="evenodd" clip-rule="evenodd" d="M2988.35 122.278C2982.2 125.825 2974.33 123.717 2970.78 117.571L2967.36 111.644L2961.41 115.072C2955.27 118.617 2947.41 116.51 2943.86 110.367C2940.31 104.224 2942.41 96.3698 2948.56 92.8247L2954.5 89.3973L2951.07 83.4699C2947.52 77.3237 2949.63 69.4659 2955.78 65.919C2961.93 62.3722 2969.79 64.4794 2973.34 70.6257L2976.77 76.5531L2982.71 73.124C2988.86 69.5789 2996.72 71.6851 3000.27 77.8284C3003.82 83.9717 3001.72 91.8257 2995.57 95.3709L2989.62 98.8L2993.05 104.727C2996.6 110.873 2994.5 118.731 2988.35 122.278Z"/>
</mask>
<path d="M2970.78 117.571L2977.71 113.568L2977.71 113.568L2970.78 117.571ZM2988.35 122.278L2992.34 129.208L2992.34 129.208L2988.35 122.278ZM2967.36 111.644L2963.36 104.714L2970.28 100.721L2974.28 107.641L2967.36 111.644ZM2961.41 115.072L2965.41 122.001L2965.41 122.001L2961.41 115.072ZM2943.86 110.367L2950.78 106.364L2943.86 110.367ZM2948.56 92.8247L2952.55 99.7546L2948.56 92.8247ZM2954.5 89.3973L2961.43 85.3944L2965.43 92.3268L2958.5 96.3272L2954.5 89.3973ZM2951.07 83.4699L2958 79.467L2958 79.467L2951.07 83.4699ZM2955.78 65.919L2951.78 58.9892L2951.78 58.9892L2955.78 65.919ZM2973.34 70.6257L2980.27 66.6228L2980.27 66.6228L2973.34 70.6257ZM2976.77 76.5531L2980.76 83.483L2973.84 87.4767L2969.84 80.556L2976.77 76.5531ZM2982.71 73.124L2986.71 80.0539L2986.71 80.0539L2982.71 73.124ZM3000.27 77.8284L2993.34 81.8313L2993.34 81.8313L3000.27 77.8284ZM2995.57 95.3709L2991.57 88.441L2991.57 88.441L2995.57 95.3709ZM2989.62 98.8L2982.7 102.803L2978.69 95.8705L2985.63 91.8701L2989.62 98.8ZM2993.05 104.727L2986.12 108.73L2993.05 104.727ZM2977.71 113.568C2979.05 115.891 2982.02 116.688 2984.35 115.348L2992.34 129.208C2982.37 134.961 2969.62 131.543 2963.85 121.574L2977.71 113.568ZM2974.28 107.641L2977.71 113.568L2963.85 121.574L2960.43 115.647L2974.28 107.641ZM2957.42 108.142L2963.36 104.714L2971.35 118.574L2965.41 122.001L2957.42 108.142ZM2950.78 106.364C2952.12 108.684 2955.09 109.481 2957.42 108.142L2965.41 122.001C2955.44 127.753 2942.69 124.336 2936.93 114.37L2950.78 106.364ZM2952.55 99.7546C2950.24 101.091 2949.44 104.049 2950.78 106.364L2936.93 114.37C2931.17 104.399 2934.58 91.6488 2944.56 85.8948L2952.55 99.7546ZM2958.5 96.3272L2952.55 99.7546L2944.56 85.8948L2950.5 82.4675L2958.5 96.3272ZM2958 79.467L2961.43 85.3944L2947.57 93.4002L2944.15 87.4728L2958 79.467ZM2959.77 72.8489C2957.45 74.1869 2956.66 77.1485 2958 79.467L2944.15 87.4728C2938.38 77.4989 2941.8 64.7448 2951.78 58.9892L2959.77 72.8489ZM2966.42 74.6286C2965.07 72.3055 2962.1 71.5083 2959.77 72.8489L2951.78 58.9892C2961.75 53.2361 2974.51 56.6534 2980.27 66.6228L2966.42 74.6286ZM2969.84 80.556L2966.42 74.6286L2980.27 66.6228L2983.69 72.5502L2969.84 80.556ZM2986.71 80.0539L2980.76 83.483L2972.77 69.6232L2978.72 66.1941L2986.71 80.0539ZM2993.34 81.8313C2992 79.5112 2989.03 78.715 2986.71 80.0539L2978.72 66.1941C2988.69 60.4427 3001.44 63.8591 3007.2 73.8255L2993.34 81.8313ZM2991.57 88.441C2993.89 87.1047 2994.68 84.1469 2993.34 81.8313L3007.2 73.8255C3012.96 83.7965 3009.54 96.5468 2999.57 102.301L2991.57 88.441ZM2985.63 91.8701L2991.57 88.441L2999.57 102.301L2993.62 105.73L2985.63 91.8701ZM2986.12 108.73L2982.7 102.803L2996.55 94.7971L2999.98 100.724L2986.12 108.73ZM2984.35 115.348C2986.67 114.01 2987.46 111.048 2986.12 108.73L2999.98 100.724C3005.74 110.698 3002.32 123.452 2992.34 129.208L2984.35 115.348Z" fill="#E55496" mask="url(#path-9-inside-3_1274_834)"/>
</g>
</g>
<g id="Group 112_2">
<rect id="Rectangle 221_3" width="25.707" height="65.0932" rx="12.8535" transform="matrix(0.866234 -0.499639 -0.500361 -0.865817 2950.78 111.861)" fill="#41EAD4"/>
<rect id="Rectangle 222_3" width="25.6947" height="65.1245" rx="12.8473" transform="matrix(-0.500362 -0.865817 -0.866234 0.499639 2980.27 72.1133)" fill="#41EAD4"/>
</g>
</g>
<g id="circle">
<path id="Ellipse 61" d="M1339.03 104C1339.03 108.826 1334.91 113 1329.51 113C1324.11 113 1320 108.826 1320 104C1320 99.1739 1324.11 95 1329.51 95C1334.91 95 1339.03 99.1739 1339.03 104Z" stroke="#E55496" stroke-width="8"/>
<ellipse id="Ellipse 53" cx="1343.03" cy="95.5" rx="13.0125" ry="13.5" fill="#41EAD4"/>
</g>
<g id="circle_2">
<path id="Ellipse 61_2" d="M2130.03 107C2130.03 102.174 2125.91 98 2120.51 98C2115.11 98 2111 102.174 2111 107C2111 111.826 2115.11 116 2120.51 116C2125.91 116 2130.03 111.826 2130.03 107Z" stroke="#E55496" stroke-width="8"/>
<ellipse id="Ellipse 53_2" cx="13.0125" cy="13.5" rx="13.0125" ry="13.5" transform="matrix(1 0 0 -1 2121.01 129)" fill="#41EAD4"/>
</g>
<g id="circle_3">
<path id="Ellipse 61_3" d="M2752.03 61C2752.03 56.1739 2747.91 52 2742.51 52C2737.11 52 2733 56.1739 2733 61C2733 65.8261 2737.11 70 2742.51 70C2747.91 70 2752.03 65.8261 2752.03 61Z" stroke="#E55496" stroke-width="8"/>
<ellipse id="Ellipse 53_3" cx="13.0125" cy="13.5" rx="13.0125" ry="13.5" transform="matrix(1 0 0 -1 2743.01 83)" fill="#41EAD4"/>
</g>
<g id="star_4">
<g id="Group 124_2">
<g id="Union_4">
<mask id="path-19-inside-4_1274_834" fill="white">
<path fill-rule="evenodd" clip-rule="evenodd" d="M807.119 77.4801C808.956 84.332 804.888 91.3744 798.033 93.2096L791.404 94.984L793.177 101.593C795.015 108.448 790.946 115.493 784.087 117.329C777.228 119.165 770.178 115.096 768.34 108.241L766.567 101.633L759.939 103.407C753.083 105.242 746.036 101.175 744.198 94.3233C742.36 87.4714 746.428 80.429 753.284 78.5938L759.912 76.8195L758.138 70.2049C756.299 63.35 760.369 56.3048 767.228 54.4688C774.086 52.6328 781.136 56.7014 782.975 63.5562L784.749 70.1708L791.378 68.3964C798.233 66.5612 805.281 70.6281 807.119 77.4801Z"/>
</mask>
<path d="M798.033 93.2096L800.099 100.936L800.099 100.936L798.033 93.2096ZM807.119 77.4801L799.391 79.5548L799.391 79.5548L807.119 77.4801ZM791.404 94.984L783.676 97.0587L781.603 89.3278L789.338 87.2572L791.404 94.984ZM793.177 101.593L800.905 99.518L800.905 99.518L793.177 101.593ZM784.087 117.329L782.021 109.602L782.021 109.602L784.087 117.329ZM768.34 108.241L760.612 110.316L760.612 110.316L768.34 108.241ZM766.567 101.633L764.501 93.9059L772.225 91.8382L774.295 99.558L766.567 101.633ZM759.939 103.407L757.872 95.6802L757.872 95.6802L759.939 103.407ZM744.198 94.3233L751.926 92.2486L751.926 92.2486L744.198 94.3233ZM753.284 78.5938L755.35 86.3206L755.35 86.3206L753.284 78.5938ZM759.912 76.8195L767.64 74.7448L769.713 82.4757L761.978 84.5463L759.912 76.8195ZM758.138 70.2049L765.866 68.1302L765.866 68.1302L758.138 70.2049ZM767.228 54.4688L769.294 62.1956L769.294 62.1956L767.228 54.4688ZM782.975 63.5562L775.247 65.6309L775.247 65.6309L782.975 63.5562ZM784.749 70.1708L786.815 77.8976L779.092 79.9653L777.021 72.2456L784.749 70.1708ZM791.378 68.3964L793.444 76.1232L793.444 76.1232L791.378 68.3964ZM795.966 85.4828C798.551 84.7909 800.083 82.138 799.391 79.5548L814.847 75.4054C817.829 86.5261 811.226 97.9578 800.099 100.936L795.966 85.4828ZM789.338 87.2572L795.966 85.4828L800.099 100.936L793.471 102.711L789.338 87.2572ZM785.449 103.667L783.676 97.0587L799.132 92.9093L800.905 99.518L785.449 103.667ZM782.021 109.602C784.608 108.909 786.142 106.253 785.449 103.667L800.905 99.518C803.888 110.642 797.283 122.076 786.153 125.056L782.021 109.602ZM776.068 106.167C776.762 108.757 779.429 110.296 782.021 109.602L786.153 125.056C775.028 128.034 763.594 121.435 760.612 110.316L776.068 106.167ZM774.295 99.558L776.068 106.167L760.612 110.316L758.839 103.707L774.295 99.558ZM757.872 95.6802L764.501 93.9059L768.633 109.359L762.005 111.134L757.872 95.6802ZM751.926 92.2486C752.62 94.8362 755.283 96.3732 757.872 95.6802L762.005 111.134C750.883 114.111 739.451 107.514 736.47 96.398L751.926 92.2486ZM755.35 86.3206C752.766 87.0125 751.233 89.6654 751.926 92.2486L736.47 96.3981C733.487 85.2773 740.091 73.8456 751.217 70.867L755.35 86.3206ZM761.978 84.5463L755.35 86.3206L751.217 70.867L757.846 69.0927L761.978 84.5463ZM765.866 68.1302L767.64 74.7448L752.184 78.8942L750.41 72.2796L765.866 68.1302ZM769.294 62.1956C766.706 62.8882 765.172 65.5441 765.866 68.1302L750.41 72.2796C747.426 61.156 754.031 49.7213 765.161 46.742L769.294 62.1956ZM775.247 65.6309C774.552 63.0405 771.886 61.5018 769.294 62.1956L765.161 46.742C776.286 43.7638 787.721 50.3623 790.703 61.4815L775.247 65.6309ZM777.021 72.2456L775.247 65.6309L790.703 61.4815L792.477 68.0961L777.021 72.2456ZM793.444 76.1232L786.815 77.8976L782.683 62.4441L789.311 60.6696L793.444 76.1232ZM799.391 79.5548C798.697 76.9672 796.033 75.4302 793.444 76.1232L789.311 60.6696C800.434 57.6923 811.865 64.289 814.847 75.4054L799.391 79.5548Z" fill="#E55496" mask="url(#path-19-inside-4_1274_834)"/>
</g>
</g>
<g id="Group 114_2">
<rect id="Rectangle 221_4" width="25.6955" height="65.1224" rx="12.8477" transform="matrix(-0.258998 -0.965662 -0.96619 0.25864 837.02 69.3613)" fill="#41EAD4"/>
<rect id="Rectangle 222_4" width="25.7062" height="65.0952" rx="12.8531" transform="matrix(-0.96619 0.25864 0.258998 0.965662 806.219 30.6191)" fill="#41EAD4"/>
</g>
</g>
<g id="star_5">
<g id="Group 124_3">
<g id="Union_5">
<mask id="path-23-inside-5_1274_834" fill="white">
<path fill-rule="evenodd" clip-rule="evenodd" d="M46.2152 84.2446C40.066 87.7914 32.2016 85.6842 28.6497 79.5379L25.2245 73.611L19.2824 77.0383C13.1362 80.5835 5.27558 78.4772 1.72532 72.3339C-1.82493 66.1906 0.279542 58.3366 6.4258 54.7915L12.3679 51.3641L8.94237 45.4367C5.39041 39.2905 7.4959 31.4327 13.6451 27.8858C19.7943 24.339 27.6587 26.4462 31.2107 32.5925L34.6362 38.5199L40.5813 35.0908C46.7276 31.5457 54.5881 33.6519 58.1384 39.7952C61.6887 45.9385 59.5842 53.7925 53.4379 57.3377L47.4928 60.7668L50.918 66.6937C54.4699 72.8399 52.3645 80.6977 46.2152 84.2446Z"/>
</mask>
<path d="M28.6497 79.5379L35.5762 75.535L35.5762 75.535L28.6497 79.5379ZM46.2152 84.2446L50.2123 91.1744L50.2123 91.1744L46.2152 84.2446ZM25.2245 73.611L21.2274 66.6811L28.1515 62.6874L32.151 69.6081L25.2245 73.611ZM19.2824 77.0383L23.2795 83.9682L19.2824 77.0383ZM1.72532 72.3339L8.65186 68.331L1.72532 72.3339ZM6.4258 54.7915L10.4229 61.7214L10.4229 61.7214L6.4258 54.7915ZM12.3679 51.3641L19.2944 47.3612L23.3006 54.2936L16.365 58.294L12.3679 51.3641ZM8.94237 45.4367L2.01584 49.4396L2.01584 49.4396L8.94237 45.4367ZM13.6451 27.8858L9.64802 20.956L9.64802 20.956L13.6451 27.8858ZM31.2107 32.5925L24.2842 36.5954L24.2842 36.5954L31.2107 32.5925ZM34.6362 38.5199L38.6333 45.4498L31.7092 49.4436L27.7096 42.5228L34.6362 38.5199ZM40.5813 35.0908L44.5784 42.0207L44.5784 42.0207L40.5813 35.0908ZM58.1384 39.7952L51.2119 43.7981L51.2119 43.7981L58.1384 39.7952ZM53.4379 57.3377L49.4408 50.4078L49.4408 50.4078L53.4379 57.3377ZM47.4928 60.7668L40.5663 64.7697L36.56 57.8373L43.4957 53.8369L47.4928 60.7668ZM50.918 66.6937L57.8445 62.6908L57.8445 62.6908L50.918 66.6937ZM35.5762 75.535C36.9187 77.8581 39.8939 78.6553 42.2181 77.3147L50.2123 91.1744C40.2381 96.9275 27.4845 93.5102 21.7231 83.5408L35.5762 75.535ZM32.151 69.6081L35.5762 75.535L21.7231 83.5408L18.2979 77.6139L32.151 69.6081ZM15.2853 70.1085L21.2274 66.6811L29.2216 80.5409L23.2795 83.9682L15.2853 70.1085ZM8.65186 68.331C9.99268 70.6512 12.9641 71.4474 15.2853 70.1085L23.2795 83.9682C13.3083 89.7196 0.558478 86.3033 -5.20121 76.3368L8.65186 68.331ZM10.4229 61.7214C8.10618 63.0576 7.31364 66.0154 8.65186 68.331L-5.20121 76.3368C-10.9635 66.3659 -7.54709 53.6156 2.42869 47.8616L10.4229 61.7214ZM16.365 58.294L10.4229 61.7214L2.42869 47.8616L8.37075 44.4343L16.365 58.294ZM15.8689 41.4338L19.2944 47.3612L5.44133 55.367L2.01584 49.4396L15.8689 41.4338ZM17.6422 34.8157C15.3225 36.1537 14.529 39.1153 15.8689 41.4338L2.01584 49.4396C-3.74817 39.4657 -0.330731 26.7116 9.64802 20.956L17.6422 34.8157ZM24.2842 36.5954C22.9416 34.2723 19.9665 33.4751 17.6422 34.8157L9.64802 20.956C19.6222 15.2029 32.3758 18.6202 38.1372 28.5896L24.2842 36.5954ZM27.7096 42.5228L24.2842 36.5954L38.1372 28.5896L41.5627 34.517L27.7096 42.5228ZM44.5784 42.0207L38.6333 45.4498L30.6391 31.59L36.5842 28.1609L44.5784 42.0207ZM51.2119 43.7981C49.871 41.4779 46.8997 40.6818 44.5784 42.0207L36.5842 28.1609C46.5554 22.4095 59.3052 25.8259 65.0649 35.7923L51.2119 43.7981ZM49.4408 50.4078C51.7575 49.0715 52.5501 46.1137 51.2119 43.7981L65.0649 35.7923C70.8272 45.7633 67.4108 58.5136 57.435 64.2675L49.4408 50.4078ZM43.4957 53.8369L49.4408 50.4078L57.435 64.2675L51.4899 67.6966L43.4957 53.8369ZM43.9914 70.6965L40.5663 64.7697L54.4193 56.7639L57.8445 62.6908L43.9914 70.6965ZM42.2181 77.3147C44.5378 75.9767 45.3314 73.0151 43.9914 70.6965L57.8445 62.6908C63.6085 72.6647 60.1911 85.4188 50.2123 91.1744L42.2181 77.3147Z" fill="#E55496" mask="url(#path-23-inside-5_1274_834)"/>
</g>
</g>
<g id="Group 114_3">
<rect id="Rectangle 221_5" width="25.707" height="65.0932" rx="12.8535" transform="matrix(0.866234 -0.499639 -0.500361 -0.865817 61.8047 111)" fill="#41EAD4"/>
<rect id="Rectangle 222_5" width="25.6947" height="65.1245" rx="12.8473" transform="matrix(-0.500362 -0.865817 -0.866234 0.499639 91.2891 71.252)" fill="#41EAD4"/>
</g>
</g>
<g id="circle_4">
<path id="Ellipse 62" d="M541.038 45C541.038 40.1739 536.926 36 531.525 36C526.124 36 522.012 40.1739 522.012 45C522.012 49.8261 526.124 54 531.525 54C536.926 54 541.038 49.8261 541.038 45Z" stroke="#E55496" stroke-width="8"/>
<ellipse id="Ellipse 54" cx="13.0125" cy="13.5" rx="13.0125" ry="13.5" transform="matrix(1 0 0 -1 506 46)" fill="#41EAD4"/>
</g>
<g id="square">
<rect id="Rectangle 229" x="2.82775" y="-4.8978" width="16.2956" height="16.2753" transform="matrix(0.965988 -0.258586 -0.259052 -0.965863 1079.12 61.4505)" stroke="#E55496" stroke-width="8"/>
<rect id="Rectangle 238" width="24.2956" height="24.2753" transform="matrix(0.965988 -0.258586 -0.259052 -0.965863 1095.71 78)" fill="#41EAD4"/>
</g>
<g id="square_2">
<rect id="Rectangle 229_2" x="-2.82774" y="4.8978" width="16.2956" height="16.2753" transform="matrix(-0.965988 0.258586 0.259052 0.965863 291.057 82.1699)" stroke="#E55496" stroke-width="8"/>
<rect id="Rectangle 230" width="24.2956" height="24.2753" transform="matrix(-0.965988 0.258586 0.259052 0.965863 282.469 73.6191)" fill="#41EAD4"/>
</g>
<g id="square_3">
<rect id="Rectangle 231" x="2.14341" y="5.23295" width="16.2829" height="16.288" transform="matrix(-0.386767 0.921924 0.92262 0.386314 1899 49.3193)" stroke="#E55496" stroke-width="8"/>
<rect id="Rectangle 232" width="24.2829" height="24.288" transform="matrix(-0.386767 0.921924 0.92262 0.386314 1885.37 55.5781)" fill="#41EAD4"/>
</g>
<g id="circle_5">
<rect id="Rectangle 231_2" x="2.08725" y="5.25556" width="16.2831" height="16.2878" transform="matrix(-0.396623 0.917726 0.918435 0.396164 2553.22 86.3459)" stroke="#E55496" stroke-width="8"/>
<rect id="Rectangle 232_2" width="24.2831" height="24.2878" transform="matrix(-0.396623 0.917726 0.918435 0.396164 2539.56 92.416)" fill="#41EAD4"/>
</g>
</g>
</svg>
