
<svg width="3000" height="123" viewBox="0 0 3000 123" fill="none" xmlns="http://www.w3.org/2000/svg">
<path d="M-1 24.9892C33.6533 38.7811 68.3066 52.5729 102.965 49.7995C137.618 47.025 172.272 3.68293 206.925 12.0158C241.578 20.3486 276.237 56.354 310.89 53.3659C345.543 50.3766 380.197 21.3898 414.85 19.4974C449.508 17.605 484.162 29.812 518.815 45.8842C553.468 61.9553 588.127 55.9005 622.78 34.8577C657.433 13.8137 692.087 3.77391 726.74 2.9576C761.398 2.14129 796.052 23.5457 830.705 36.8249C865.358 50.1052 900.011 42.2654 934.67 31.3128C969.323 20.359 1003.98 6.29351 1038.63 12.0158C1073.28 17.738 1107.94 43.2503 1142.59 53.3659C1177.25 63.4803 1211.9 58.2002 1246.55 47.8526C1281.21 37.5038 1315.87 28.5861 1350.52 18.5132C1385.17 8.44039 1419.83 3.70995 1454.48 7.48668C1489.14 11.2634 1523.79 23.5485 1558.44 37.8102C1593.1 52.0708 1627.76 61.8119 1662.41 58.8791C1697.06 55.9453 1731.72 33.8414 1766.37 20.2862C1801.03 6.72995 1835.68 1.72125 1870.33 6.5025C1904.99 11.2837 1939.65 25.8526 1974.3 31.3128C2008.95 36.7718 2043.61 33.1221 2078.26 25.7995C2112.92 18.4758 2147.57 7.4816 2182.22 12.0158C2216.88 16.5499 2251.53 36.6148 2286.19 47.8526C2320.84 59.0893 2355.5 61.499 2390.15 53.3659C2424.8 45.2316 2459.46 26.5535 2494.11 20.2862C2528.77 14.0179 2563.42 20.1592 2598.08 31.3128C2632.73 42.4652 2667.39 45.6337 2702.04 40.371C2736.69 35.1071 2771.35 8.41823 2806 1.77691C2840.66 -4.86326 2875.31 8.54408 2909.96 18.3179C2944.62 28.0905 2979.28 47.2256 3013.93 53.3659V115C2979.28 115 2944.62 115 2909.96 115C2875.31 115 2840.66 115 2806 115C2771.35 115 2736.69 115 2702.04 115C2667.39 115 2632.73 115 2598.08 115C2563.42 115 2528.77 115 2494.11 115C2459.46 115 2424.8 115 2390.15 115C2355.5 115 2320.84 115 2286.19 115C2251.53 115 2216.88 115 2182.22 115C2147.57 115 2112.92 115 2078.26 115C2043.61 115 2008.95 115 1974.3 115C1939.65 115 1904.99 115 1870.33 115C1835.68 115 1801.03 115 1766.37 115C1731.72 115 1697.06 115 1662.41 115C1627.76 115 1593.1 115 1558.44 115C1523.79 115 1489.14 115 1454.48 115C1419.83 115 1385.17 115 1350.52 115C1315.87 115 1281.21 115 1246.55 115C1211.9 115 1177.25 115 1142.59 115C1107.94 115 1073.28 115 1038.63 115C1003.98 115 969.323 115 934.67 115C900.011 115 865.358 115 830.705 115C796.052 115 761.398 115 726.74 115C692.087 115 657.433 115 622.78 115C588.127 115 553.468 115 518.815 115C484.162 115 449.508 115 414.85 115C380.197 115 345.543 115 310.89 115C276.237 115 241.578 115 206.925 115C172.272 115 137.618 115 102.965 115C68.3066 115 33.6533 115 -1 115V24.9892Z" fill="#E55496" fill-opacity="0.6"/>
<path d="M-1 39.8946C33.5154 52.3672 68.0307 64.8398 102.551 62.3317C137.067 59.8226 171.582 22.3307 206.097 29.8664C240.613 37.4022 275.133 69.9636 309.649 67.2613C344.164 64.5579 378.679 38.3438 413.195 36.6324C447.715 34.921 482.231 45.9604 516.746 60.4953C551.261 75.0291 585.782 69.5535 620.297 50.5235C654.813 31.4924 689.328 22.4129 723.843 21.6747C758.364 20.9365 792.879 40.2935 827.395 52.3025C861.91 64.3126 896.425 57.2226 930.946 47.3176C965.461 37.4116 999.977 24.6915 1034.49 29.8664C1069.01 35.0413 1103.53 58.1133 1138.04 67.2613C1172.56 76.4082 1207.07 71.6332 1241.59 62.2754C1276.11 52.9165 1310.63 44.8517 1345.14 35.7424C1379.66 26.633 1414.17 22.3551 1448.69 25.7706C1483.21 29.186 1517.72 40.296 1552.24 53.1936C1586.76 66.0902 1621.27 74.8994 1655.79 72.2472C1690.3 69.594 1724.82 49.6044 1759.34 37.3458C1793.86 25.0862 1828.37 20.5566 1862.89 24.8805C1897.4 29.2044 1931.92 42.3798 1966.44 47.3176C2000.95 52.2545 2035.47 48.9539 2069.98 42.3317C2104.5 35.7086 2139.02 25.766 2173.54 29.8664C2208.05 33.9669 2242.57 52.1125 2277.09 62.2754C2311.6 72.4373 2346.12 74.6164 2380.63 67.2613C2415.15 59.9051 2449.67 43.0136 2484.18 37.3458C2518.7 31.677 2553.21 37.231 2587.74 47.3176C2622.25 57.4033 2656.77 60.2687 2691.28 55.5094C2725.8 50.749 2760.32 26.613 2794.83 20.6069C2829.35 14.6019 2863.86 26.7268 2898.38 35.5657C2932.9 44.4036 2967.41 61.7084 3001.93 67.2613V123C2967.41 123 2932.9 123 2898.38 123C2863.86 123 2829.35 123 2794.83 123C2760.32 123 2725.8 123 2691.28 123C2656.77 123 2622.25 123 2587.74 123C2553.21 123 2518.7 123 2484.18 123C2449.67 123 2415.15 123 2380.63 123C2346.12 123 2311.6 123 2277.09 123C2242.57 123 2208.05 123 2173.54 123C2139.02 123 2104.5 123 2069.98 123C2035.47 123 2000.95 123 1966.44 123C1931.92 123 1897.4 123 1862.89 123C1828.37 123 1793.86 123 1759.34 123C1724.82 123 1690.3 123 1655.79 123C1621.27 123 1586.76 123 1552.24 123C1517.72 123 1483.21 123 1448.69 123C1414.17 123 1379.66 123 1345.14 123C1310.63 123 1276.11 123 1241.59 123C1207.07 123 1172.56 123 1138.04 123C1103.53 123 1069.01 123 1034.49 123C999.977 123 965.461 123 930.946 123C896.425 123 861.91 123 827.395 123C792.879 123 758.364 123 723.843 123C689.328 123 654.813 123 620.297 123C585.782 123 551.261 123 516.746 123C482.231 123 447.715 123 413.195 123C378.679 123 344.164 123 309.649 123C275.133 123 240.613 123 206.097 123C171.582 123 137.067 123 102.551 123C68.0307 123 33.5154 123 -1 123V39.8946Z" fill="#1E342C"/>
</svg>
