
<svg width="3000" height="134" viewBox="0 0 3000 134" fill="none" xmlns="http://www.w3.org/2000/svg">
<g id="Group 336">
<g id="star">
<g id="Group 124">
<g id="Union">
<mask id="path-1-inside-1_1274_834" fill="white">
<path fill-rule="evenodd" clip-rule="evenodd" d="M1630.22 63.7554C1624.07 60.2086 1616.2 62.3158 1612.65 68.4621L1609.22 74.389L1603.28 70.9617C1597.14 67.4165 1589.28 69.5228 1585.73 75.6661C1582.18 81.8094 1584.28 89.6634 1590.43 93.2085L1596.37 96.6359L1592.94 102.563C1589.39 108.71 1591.5 116.567 1597.65 120.114C1603.79 123.661 1611.66 121.554 1615.21 115.407L1618.64 109.48L1624.58 112.909C1630.73 116.454 1638.59 114.348 1642.14 108.205C1645.69 102.061 1643.58 94.2075 1637.44 90.6623L1631.49 87.2332L1634.92 81.3063C1638.47 75.1601 1636.36 67.3023 1630.22 63.7554Z"/>
</mask>
<path d="M1612.65 68.4621L1619.58 72.465L1619.58 72.465L1612.65 68.4621ZM1630.22 63.7554L1634.21 56.8256L1634.21 56.8256L1630.22 63.7554ZM1609.22 74.389L1605.23 81.3189L1612.15 85.3126L1616.15 78.3919L1609.22 74.389ZM1603.28 70.9617L1607.28 64.0318L1607.28 64.0318L1603.28 70.9617ZM1585.73 75.6661L1592.65 79.669L1585.73 75.6661ZM1590.43 93.2085L1594.42 86.2786L1590.43 93.2085ZM1596.37 96.6359L1603.29 100.639L1607.3 93.7064L1600.36 89.706L1596.37 96.6359ZM1592.94 102.563L1599.87 106.566L1599.87 106.566L1592.94 102.563ZM1597.65 120.114L1593.65 127.044L1593.65 127.044L1597.65 120.114ZM1615.21 115.407L1622.14 119.41L1622.14 119.41L1615.21 115.407ZM1618.64 109.48L1622.63 102.55L1615.71 98.5565L1611.71 105.477L1618.64 109.48ZM1624.58 112.909L1628.58 105.979L1628.58 105.979L1624.58 112.909ZM1642.14 108.205L1635.21 104.202L1635.21 104.202L1642.14 108.205ZM1637.44 90.6623L1633.44 97.5922L1633.44 97.5922L1637.44 90.6623ZM1631.49 87.2332L1624.57 83.2303L1620.56 90.1627L1627.5 94.1631L1631.49 87.2332ZM1634.92 81.3063L1627.99 77.3035L1634.92 81.3063ZM1619.58 72.465C1620.92 70.1419 1623.89 69.3447 1626.22 70.6853L1634.21 56.8256C1624.24 51.0725 1611.48 54.4898 1605.72 64.4592L1619.58 72.465ZM1616.15 78.3919L1619.58 72.465L1605.72 64.4592L1602.3 70.3861L1616.15 78.3919ZM1599.29 77.8915L1605.23 81.3189L1613.22 67.4591L1607.28 64.0318L1599.29 77.8915ZM1592.65 79.669C1593.99 77.3488 1596.96 76.5526 1599.29 77.8915L1607.28 64.0318C1597.31 58.2804 1584.56 61.6967 1578.8 71.6632L1592.65 79.669ZM1594.42 86.2786C1592.11 84.9424 1591.31 81.9846 1592.65 79.669L1578.8 71.6632C1573.04 81.6341 1576.45 94.3844 1586.43 100.138L1594.42 86.2786ZM1600.36 89.706L1594.42 86.2786L1586.43 100.138L1592.37 103.566L1600.36 89.706ZM1599.87 106.566L1603.29 100.639L1589.44 92.633L1586.02 98.5604L1599.87 106.566ZM1601.64 113.184C1599.32 111.846 1598.53 108.885 1599.87 106.566L1586.02 98.5604C1580.25 108.534 1583.67 121.288 1593.65 127.044L1601.64 113.184ZM1608.28 111.405C1606.94 113.728 1603.97 114.525 1601.64 113.184L1593.65 127.044C1603.62 132.797 1616.38 129.38 1622.14 119.41L1608.28 111.405ZM1611.71 105.477L1608.28 111.405L1622.14 119.41L1625.56 113.483L1611.71 105.477ZM1628.58 105.979L1622.63 102.55L1614.64 116.41L1620.58 119.839L1628.58 105.979ZM1635.21 104.202C1633.87 106.522 1630.9 107.318 1628.58 105.979L1620.58 119.839C1630.56 125.59 1643.31 122.174 1649.06 112.208L1635.21 104.202ZM1633.44 97.5922C1635.76 98.9285 1636.55 101.886 1635.21 104.202L1649.06 112.208C1654.83 102.237 1651.41 89.4864 1641.44 83.7325L1633.44 97.5922ZM1627.5 94.1631L1633.44 97.5922L1641.44 83.7325L1635.49 80.3034L1627.5 94.1631ZM1627.99 77.3035L1624.57 83.2303L1638.42 91.2361L1641.84 85.3092L1627.99 77.3035ZM1626.22 70.6853C1628.54 72.0233 1629.33 74.9849 1627.99 77.3035L1641.84 85.3092C1647.61 75.3353 1644.19 62.5812 1634.21 56.8256L1626.22 70.6853Z" fill="#E55496" mask="url(#path-1-inside-1_1274_834)"/>
</g>
</g>
<g id="Group 114">
<rect id="Rectangle 221" width="25.707" height="65.0932" rx="12.8535" transform="matrix(0.866234 0.499639 -0.500361 0.865817 1645.8 37)" fill="#1E342C"/>
<rect id="Rectangle 222" width="25.6947" height="65.1245" rx="12.8473" transform="matrix(-0.500362 0.865817 -0.866234 -0.499639 1675.29 76.748)" fill="#1E342C"/>
</g>
</g>
<g id="star_2">
<g id="Group 125">
<g id="Union_2">
<mask id="path-5-inside-2_1274_834" fill="white">
<path fill-rule="evenodd" clip-rule="evenodd" d="M2385.59 52.3567C2379.99 47.997 2371.91 49.0011 2367.54 54.5995L2363.33 59.9991L2357.92 55.7866C2352.32 51.4289 2344.25 52.4326 2339.88 58.0284C2335.52 63.6242 2336.52 71.6931 2342.12 76.0508L2347.53 80.2633L2343.32 85.6619C2338.95 91.2603 2339.96 99.333 2345.56 103.693C2351.16 108.052 2359.24 107.048 2363.6 101.45L2367.81 96.0512L2373.23 100.266C2378.83 104.624 2386.9 103.62 2391.27 98.0245C2395.63 92.4287 2394.63 84.3598 2389.03 80.0021L2383.62 75.787L2387.83 70.3874C2392.19 64.789 2391.19 56.7164 2385.59 52.3567Z"/>
</mask>
<path d="M2367.54 54.5995L2361.24 49.6812L2361.24 49.6812L2367.54 54.5995ZM2385.59 52.3567L2380.68 58.6698L2380.68 58.6698L2385.59 52.3567ZM2363.33 59.9991L2358.42 66.3122L2364.73 71.2215L2369.64 64.9174L2363.33 59.9991ZM2357.92 55.7866L2353.01 62.0997L2353.01 62.0997L2357.92 55.7866ZM2339.88 58.0284L2346.19 62.9467L2346.19 62.9467L2339.88 58.0284ZM2342.12 76.0508L2337.2 82.3639L2337.2 82.3639L2342.12 76.0508ZM2347.53 80.2633L2353.84 85.1816L2358.76 78.8673L2352.45 73.9502L2347.53 80.2633ZM2343.32 85.6619L2349.63 90.5802L2343.32 85.6619ZM2345.56 103.693L2340.64 110.006L2340.64 110.006L2345.56 103.693ZM2363.6 101.45L2357.3 96.5316L2357.3 96.5316L2363.6 101.45ZM2367.81 96.0512L2372.73 89.7381L2366.42 84.8288L2361.51 91.1329L2367.81 96.0512ZM2373.23 100.266L2368.31 106.579L2368.31 106.579L2373.23 100.266ZM2391.27 98.0245L2397.58 102.943L2397.58 102.943L2391.27 98.0245ZM2389.03 80.0021L2384.12 86.3152L2384.12 86.3152L2389.03 80.0021ZM2383.62 75.787L2377.31 70.8687L2372.38 77.183L2378.7 82.1001L2383.62 75.787ZM2387.83 70.3874L2381.52 65.4691L2381.52 65.4691L2387.83 70.3874ZM2373.85 59.5178C2375.5 57.4019 2378.56 57.022 2380.68 58.6698L2390.51 46.0435C2381.42 38.9719 2368.32 40.6003 2361.24 49.6812L2373.85 59.5178ZM2369.64 64.9174L2373.85 59.5178L2361.24 49.6812L2357.02 55.0808L2369.64 64.9174ZM2353.01 62.0997L2358.42 66.3122L2368.25 53.686L2362.84 49.4735L2353.01 62.0997ZM2346.19 62.9467C2347.84 60.8334 2350.89 60.454 2353.01 62.0997L2362.84 49.4735C2353.75 42.4038 2340.65 44.0318 2333.57 53.1101L2346.19 62.9467ZM2347.03 69.7377C2344.92 68.095 2344.55 65.056 2346.19 62.9467L2333.57 53.1101C2326.49 62.1923 2328.12 75.2912 2337.2 82.3639L2347.03 69.7377ZM2352.45 73.9502L2347.03 69.7377L2337.2 82.3639L2342.62 86.5764L2352.45 73.9502ZM2349.63 90.5802L2353.84 85.1816L2341.22 75.345L2337.01 80.7436L2349.63 90.5802ZM2350.47 97.3796C2348.36 95.7349 2347.98 92.6922 2349.63 90.5802L2337.01 80.7436C2329.93 89.8285 2331.55 102.931 2340.64 110.006L2350.47 97.3796ZM2357.3 96.5316C2355.65 98.6475 2352.59 99.0273 2350.47 97.3796L2340.64 110.006C2349.73 117.077 2362.83 115.449 2369.91 106.368L2357.3 96.5316ZM2361.51 91.1329L2357.3 96.5316L2369.91 106.368L2374.12 100.97L2361.51 91.1329ZM2378.14 93.9532L2372.73 89.7381L2362.9 102.364L2368.31 106.579L2378.14 93.9532ZM2384.96 93.1062C2383.31 95.2195 2380.26 95.5989 2378.14 93.9532L2368.31 106.579C2377.4 113.649 2390.5 112.021 2397.58 102.943L2384.96 93.1062ZM2384.12 86.3152C2386.23 87.9579 2386.6 90.9968 2384.96 93.1062L2397.58 102.943C2404.66 93.8605 2403.03 80.7617 2393.95 73.6889L2384.12 86.3152ZM2378.7 82.1001L2384.12 86.3152L2393.95 73.6889L2388.53 69.4739L2378.7 82.1001ZM2381.52 65.4691L2377.31 70.8687L2389.93 80.7053L2394.14 75.3057L2381.52 65.4691ZM2380.68 58.6698C2382.79 60.3145 2383.17 63.3572 2381.52 65.4691L2394.14 75.3057C2401.22 66.2209 2399.6 53.1183 2390.51 46.0435L2380.68 58.6698Z" fill="#E55496" mask="url(#path-5-inside-2_1274_834)"/>
</g>
</g>
<g id="Group 112">
<rect id="Rectangle 221_2" width="25.7068" height="65.0938" rx="12.8534" transform="matrix(0.789042 0.614154 -0.615031 0.788647 2346.95 57.502)" fill="#1E342C"/>
<rect id="Rectangle 222_2" width="25.6949" height="65.1239" rx="12.8475" transform="matrix(-0.615031 0.788647 -0.789042 -0.614154 2370.67 100.93)" fill="#1E342C"/>
</g>
</g>
<g id="star_3">
<g id="Group 125_2">
<g id="Union_3">
<mask id="path-9-inside-3_1274_834" fill="white">
<path fill-rule="evenodd" clip-rule="evenodd" d="M2988.35 11.7222C2982.2 8.17539 2974.33 10.2826 2970.78 16.4289L2967.36 22.3558L2961.41 18.9284C2955.27 15.3833 2947.41 17.4896 2943.86 23.6329C2940.31 29.7762 2942.41 37.6302 2948.56 41.1753L2954.5 44.6027L2951.07 50.5301C2947.52 56.6763 2949.63 64.5341 2955.78 68.081C2961.93 71.6278 2969.79 69.5206 2973.34 63.3743L2976.77 57.4469L2982.71 60.876C2988.86 64.4211 2996.72 62.3149 3000.27 56.1716C3003.82 50.0283 3001.72 42.1743 2995.57 38.6291L2989.62 35.2L2993.05 29.2731C2996.6 23.1269 2994.5 15.2691 2988.35 11.7222Z"/>
</mask>
<path d="M2970.78 16.4289L2977.71 20.4318L2977.71 20.4318L2970.78 16.4289ZM2988.35 11.7222L2992.34 4.79236L2992.34 4.79236L2988.35 11.7222ZM2967.36 22.3558L2963.36 29.2857L2970.28 33.2794L2974.28 26.3587L2967.36 22.3558ZM2961.41 18.9284L2965.41 11.9986L2965.41 11.9986L2961.41 18.9284ZM2943.86 23.6329L2950.78 27.6358L2943.86 23.6329ZM2948.56 41.1753L2952.55 34.2454L2948.56 41.1753ZM2954.5 44.6027L2961.43 48.6056L2965.43 41.6732L2958.5 37.6728L2954.5 44.6027ZM2951.07 50.5301L2958 54.533L2958 54.533L2951.07 50.5301ZM2955.78 68.081L2951.78 75.0108L2951.78 75.0108L2955.78 68.081ZM2973.34 63.3743L2980.27 67.3772L2980.27 67.3772L2973.34 63.3743ZM2976.77 57.4469L2980.76 50.517L2973.84 46.5233L2969.84 53.444L2976.77 57.4469ZM2982.71 60.876L2986.71 53.9461L2986.71 53.9461L2982.71 60.876ZM3000.27 56.1716L2993.34 52.1687L2993.34 52.1687L3000.27 56.1716ZM2995.57 38.6291L2991.57 45.559L2991.57 45.559L2995.57 38.6291ZM2989.62 35.2L2982.7 31.1971L2978.69 38.1295L2985.63 42.1299L2989.62 35.2ZM2993.05 29.2731L2986.12 25.2703L2993.05 29.2731ZM2977.71 20.4318C2979.05 18.1087 2982.02 17.3115 2984.35 18.6521L2992.34 4.79236C2982.37 -0.960716 2969.62 2.45659 2963.85 12.426L2977.71 20.4318ZM2974.28 26.3587L2977.71 20.4318L2963.85 12.426L2960.43 18.3529L2974.28 26.3587ZM2957.42 25.8583L2963.36 29.2857L2971.35 15.4259L2965.41 11.9986L2957.42 25.8583ZM2950.78 27.6358C2952.12 25.3156 2955.09 24.5194 2957.42 25.8583L2965.41 11.9986C2955.44 6.24721 2942.69 9.66351 2936.93 19.63L2950.78 27.6358ZM2952.55 34.2454C2950.24 32.9092 2949.44 29.9514 2950.78 27.6358L2936.93 19.63C2931.17 29.6009 2934.58 42.3512 2944.56 48.1052L2952.55 34.2454ZM2958.5 37.6728L2952.55 34.2454L2944.56 48.1052L2950.5 51.5325L2958.5 37.6728ZM2958 54.533L2961.43 48.6056L2947.57 40.5998L2944.15 46.5272L2958 54.533ZM2959.77 61.1511C2957.45 59.8131 2956.66 56.8515 2958 54.533L2944.15 46.5272C2938.38 56.5011 2941.8 69.2552 2951.78 75.0108L2959.77 61.1511ZM2966.42 59.3714C2965.07 61.6945 2962.1 62.4917 2959.77 61.1511L2951.78 75.0108C2961.75 80.7639 2974.51 77.3466 2980.27 67.3772L2966.42 59.3714ZM2969.84 53.444L2966.42 59.3714L2980.27 67.3772L2983.69 61.4498L2969.84 53.444ZM2986.71 53.9461L2980.76 50.517L2972.77 64.3768L2978.72 67.8059L2986.71 53.9461ZM2993.34 52.1687C2992 54.4888 2989.03 55.285 2986.71 53.9461L2978.72 67.8059C2988.69 73.5573 3001.44 70.1409 3007.2 60.1745L2993.34 52.1687ZM2991.57 45.559C2993.89 46.8953 2994.68 49.8531 2993.34 52.1687L3007.2 60.1745C3012.96 50.2035 3009.54 37.4532 2999.57 31.6993L2991.57 45.559ZM2985.63 42.1299L2991.57 45.559L2999.57 31.6993L2993.62 28.2702L2985.63 42.1299ZM2986.12 25.2703L2982.7 31.1971L2996.55 39.2029L2999.98 33.276L2986.12 25.2703ZM2984.35 18.6521C2986.67 19.9901 2987.46 22.9517 2986.12 25.2703L2999.98 33.276C3005.74 23.3021 3002.32 10.548 2992.34 4.79236L2984.35 18.6521Z" fill="#E55496" mask="url(#path-9-inside-3_1274_834)"/>
</g>
</g>
<g id="Group 112_2">
<rect id="Rectangle 221_3" width="25.707" height="65.0932" rx="12.8535" transform="matrix(0.866234 0.499639 -0.500361 0.865817 2950.78 22.1387)" fill="#1E342C"/>
<rect id="Rectangle 222_3" width="25.6947" height="65.1245" rx="12.8473" transform="matrix(-0.500362 0.865817 -0.866234 -0.499639 2980.27 61.8867)" fill="#1E342C"/>
</g>
</g>
<g id="circle">
<path id="Ellipse 61" d="M1339.03 30C1339.03 25.1739 1334.91 21 1329.51 21C1324.11 21 1320 25.1739 1320 30C1320 34.8261 1324.11 39 1329.51 39C1334.91 39 1339.03 34.8261 1339.03 30Z" stroke="#E55496" stroke-width="8"/>
<ellipse id="Ellipse 53" cx="13.0125" cy="13.5" rx="13.0125" ry="13.5" transform="matrix(1 1.74677e-07 1.75014e-07 -1 1330.01 52)" fill="#1E342C"/>
</g>
<g id="circle_2">
<path id="Ellipse 61_2" d="M2130.03 27C2130.03 31.8261 2125.91 36 2120.51 36C2115.11 36 2111 31.8261 2111 27C2111 22.1739 2115.11 18 2120.51 18C2125.91 18 2130.03 22.1739 2130.03 27Z" stroke="#E55496" stroke-width="8"/>
<ellipse id="Ellipse 53_2" cx="2134.03" cy="18.5" rx="13.0125" ry="13.5" fill="#1E342C"/>
</g>
<g id="circle_3">
<path id="Ellipse 61_3" d="M2752.03 73C2752.03 77.8261 2747.91 82 2742.51 82C2737.11 82 2733 77.8261 2733 73C2733 68.1739 2737.11 64 2742.51 64C2747.91 64 2752.03 68.1739 2752.03 73Z" stroke="#E55496" stroke-width="8"/>
<ellipse id="Ellipse 53_3" cx="2756.03" cy="64.5" rx="13.0125" ry="13.5" fill="#1E342C"/>
</g>
<g id="star_4">
<g id="Group 124_2">
<g id="Union_4">
<mask id="path-19-inside-4_1274_834" fill="white">
<path fill-rule="evenodd" clip-rule="evenodd" d="M807.119 56.5199C808.956 49.668 804.888 42.6256 798.033 40.7904L791.404 39.016L793.177 32.4073C795.015 25.5525 790.946 18.5072 784.087 16.6712C777.228 14.8352 770.178 18.9038 768.34 25.7587L766.567 32.3673L759.939 30.593C753.083 28.7578 746.036 32.8247 744.198 39.6767C742.36 46.5286 746.428 53.571 753.284 55.4062L759.912 57.1805L758.138 63.7951C756.299 70.65 760.369 77.6952 767.228 79.5312C774.086 81.3672 781.136 77.2986 782.975 70.4438L784.749 63.8292L791.378 65.6036C798.233 67.4388 805.281 63.3719 807.119 56.5199Z"/>
</mask>
<path d="M798.033 40.7904L800.099 33.0636L800.099 33.0636L798.033 40.7904ZM807.119 56.5199L799.391 54.4452L799.391 54.4452L807.119 56.5199ZM791.404 39.016L783.676 36.9413L781.603 44.6722L789.338 46.7428L791.404 39.016ZM793.177 32.4073L800.905 34.482L800.905 34.482L793.177 32.4073ZM784.087 16.6712L782.021 24.398L782.021 24.398L784.087 16.6712ZM768.34 25.7587L760.612 23.6839L760.612 23.684L768.34 25.7587ZM766.567 32.3673L764.501 40.0941L772.225 42.1618L774.295 34.442L766.567 32.3673ZM759.939 30.593L757.872 38.3198L757.872 38.3198L759.939 30.593ZM744.198 39.6767L751.926 41.7514L751.926 41.7514L744.198 39.6767ZM753.284 55.4062L755.35 47.6794L755.35 47.6794L753.284 55.4062ZM759.912 57.1805L767.64 59.2552L769.713 51.5243L761.978 49.4537L759.912 57.1805ZM758.138 63.7951L765.866 65.8698L765.866 65.8698L758.138 63.7951ZM767.228 79.5312L769.294 71.8044L769.294 71.8044L767.228 79.5312ZM782.975 70.4438L775.247 68.3691L775.247 68.3691L782.975 70.4438ZM784.749 63.8292L786.815 56.1024L779.092 54.0347L777.021 61.7544L784.749 63.8292ZM791.378 65.6036L793.444 57.8768L793.444 57.8768L791.378 65.6036ZM795.966 48.5172C798.551 49.2091 800.083 51.862 799.391 54.4452L814.847 58.5946C817.829 47.4739 811.226 36.0422 800.099 33.0636L795.966 48.5172ZM789.338 46.7428L795.966 48.5172L800.099 33.0636L793.471 31.2892L789.338 46.7428ZM785.449 30.3326L783.676 36.9413L799.132 41.0907L800.905 34.482L785.449 30.3326ZM782.021 24.398C784.608 25.0907 786.142 27.7465 785.449 30.3326L800.905 34.482C803.888 23.3585 797.283 11.9237 786.153 8.94444L782.021 24.398ZM776.068 27.8334C776.762 25.2429 779.429 23.7042 782.021 24.398L786.153 8.94444C775.028 5.96629 763.594 12.5648 760.612 23.6839L776.068 27.8334ZM774.295 34.442L776.068 27.8334L760.612 23.684L758.839 30.2926L774.295 34.442ZM757.872 38.3198L764.501 40.0941L768.633 24.6405L762.005 22.8662L757.872 38.3198ZM751.926 41.7514C752.62 39.1638 755.283 37.6268 757.872 38.3198L762.005 22.8662C750.883 19.8889 739.451 26.4856 736.47 37.602L751.926 41.7514ZM755.35 47.6794C752.766 46.9875 751.233 44.3346 751.926 41.7514L736.47 37.6019C733.487 48.7227 740.091 60.1544 751.217 63.133L755.35 47.6794ZM761.978 49.4537L755.35 47.6794L751.217 63.133L757.846 64.9073L761.978 49.4537ZM765.866 65.8698L767.64 59.2552L752.184 55.1058L750.41 61.7204L765.866 65.8698ZM769.294 71.8044C766.706 71.1118 765.172 68.4559 765.866 65.8698L750.41 61.7204C747.426 72.844 754.031 84.2787 765.161 87.258L769.294 71.8044ZM775.247 68.3691C774.552 70.9595 771.886 72.4982 769.294 71.8044L765.161 87.258C776.286 90.2362 787.721 83.6377 790.703 72.5185L775.247 68.3691ZM777.021 61.7544L775.247 68.3691L790.703 72.5185L792.477 65.9039L777.021 61.7544ZM793.444 57.8768L786.815 56.1024L782.683 71.5559L789.311 73.3304L793.444 57.8768ZM799.391 54.4452C798.697 57.0328 796.033 58.5698 793.444 57.8768L789.311 73.3304C800.434 76.3077 811.865 69.711 814.847 58.5946L799.391 54.4452Z" fill="#E55496" mask="url(#path-19-inside-4_1274_834)"/>
</g>
</g>
<g id="Group 114_2">
<rect id="Rectangle 221_4" width="25.6955" height="65.1224" rx="12.8477" transform="matrix(-0.258998 0.965662 -0.96619 -0.25864 837.02 64.6387)" fill="#1E342C"/>
<rect id="Rectangle 222_4" width="25.7062" height="65.0952" rx="12.8531" transform="matrix(-0.96619 -0.25864 0.258998 -0.965662 806.219 103.381)" fill="#1E342C"/>
</g>
</g>
<g id="star_5">
<g id="Group 124_3">
<g id="Union_5">
<mask id="path-23-inside-5_1274_834" fill="white">
<path fill-rule="evenodd" clip-rule="evenodd" d="M46.2152 49.7554C40.066 46.2086 32.2016 48.3158 28.6497 54.4621L25.2245 60.389L19.2824 56.9617C13.1362 53.4165 5.27558 55.5228 1.72532 61.6661C-1.82493 67.8094 0.279542 75.6634 6.4258 79.2085L12.3679 82.6359L8.94237 88.5633C5.39041 94.7095 7.4959 102.567 13.6451 106.114C19.7943 109.661 27.6587 107.554 31.2107 101.407L34.6362 95.4801L40.5813 98.9092C46.7276 102.454 54.5881 100.348 58.1384 94.2048C61.6887 88.0615 59.5842 80.2075 53.4379 76.6623L47.4928 73.2332L50.918 67.3063C54.4699 61.1601 52.3645 53.3023 46.2152 49.7554Z"/>
</mask>
<path d="M28.6497 54.4621L35.5762 58.465L35.5762 58.465L28.6497 54.4621ZM46.2152 49.7554L50.2123 42.8256L50.2123 42.8256L46.2152 49.7554ZM25.2245 60.389L21.2274 67.3189L28.1515 71.3126L32.151 64.3919L25.2245 60.389ZM19.2824 56.9617L23.2795 50.0318L19.2824 56.9617ZM1.72532 61.6661L8.65186 65.669L1.72532 61.6661ZM6.4258 79.2085L10.4229 72.2786L10.4229 72.2786L6.4258 79.2085ZM12.3679 82.6359L19.2944 86.6388L23.3006 79.7064L16.365 75.706L12.3679 82.6359ZM8.94237 88.5633L2.01584 84.5604L2.01584 84.5604L8.94237 88.5633ZM13.6451 106.114L9.64802 113.044L9.64802 113.044L13.6451 106.114ZM31.2107 101.407L24.2842 97.4046L24.2842 97.4046L31.2107 101.407ZM34.6362 95.4801L38.6333 88.5502L31.7092 84.5564L27.7096 91.4772L34.6362 95.4801ZM40.5813 98.9092L44.5784 91.9793L44.5784 91.9793L40.5813 98.9092ZM58.1384 94.2048L51.2119 90.2019L51.2119 90.2019L58.1384 94.2048ZM53.4379 76.6623L49.4408 83.5922L49.4408 83.5922L53.4379 76.6623ZM47.4928 73.2332L40.5663 69.2303L36.56 76.1627L43.4957 80.1631L47.4928 73.2332ZM50.918 67.3063L57.8445 71.3092L57.8445 71.3092L50.918 67.3063ZM35.5762 58.465C36.9187 56.1419 39.8939 55.3447 42.2181 56.6853L50.2123 42.8256C40.2381 37.0725 27.4845 40.4898 21.7231 50.4592L35.5762 58.465ZM32.151 64.3919L35.5762 58.465L21.7231 50.4592L18.2979 56.3861L32.151 64.3919ZM15.2853 63.8915L21.2274 67.3189L29.2216 53.4591L23.2795 50.0318L15.2853 63.8915ZM8.65186 65.669C9.99268 63.3488 12.9641 62.5526 15.2853 63.8915L23.2795 50.0318C13.3083 44.2804 0.558478 47.6967 -5.20121 57.6632L8.65186 65.669ZM10.4229 72.2786C8.10618 70.9424 7.31364 67.9846 8.65186 65.669L-5.20121 57.6632C-10.9635 67.6341 -7.54709 80.3844 2.42869 86.1384L10.4229 72.2786ZM16.365 75.706L10.4229 72.2786L2.42869 86.1384L8.37075 89.5657L16.365 75.706ZM15.8689 92.5662L19.2944 86.6388L5.44133 78.633L2.01584 84.5604L15.8689 92.5662ZM17.6422 99.1843C15.3225 97.8463 14.529 94.8847 15.8689 92.5662L2.01584 84.5604C-3.74817 94.5343 -0.330731 107.288 9.64802 113.044L17.6422 99.1843ZM24.2842 97.4046C22.9416 99.7277 19.9665 100.525 17.6422 99.1843L9.64802 113.044C19.6222 118.797 32.3758 115.38 38.1372 105.41L24.2842 97.4046ZM27.7096 91.4772L24.2842 97.4046L38.1372 105.41L41.5627 99.483L27.7096 91.4772ZM44.5784 91.9793L38.6333 88.5502L30.6391 102.41L36.5842 105.839L44.5784 91.9793ZM51.2119 90.2019C49.871 92.5221 46.8997 93.3182 44.5784 91.9793L36.5842 105.839C46.5554 111.59 59.3052 108.174 65.0649 98.2077L51.2119 90.2019ZM49.4408 83.5922C51.7575 84.9285 52.5501 87.8863 51.2119 90.2019L65.0649 98.2077C70.8272 88.2367 67.4108 75.4864 57.435 69.7325L49.4408 83.5922ZM43.4957 80.1631L49.4408 83.5922L57.435 69.7325L51.4899 66.3034L43.4957 80.1631ZM43.9914 63.3035L40.5663 69.2303L54.4193 77.2361L57.8445 71.3092L43.9914 63.3035ZM42.2181 56.6853C44.5378 58.0233 45.3314 60.9849 43.9914 63.3035L57.8445 71.3092C63.6085 61.3353 60.1911 48.5812 50.2123 42.8256L42.2181 56.6853Z" fill="#E55496" mask="url(#path-23-inside-5_1274_834)"/>
</g>
</g>
<g id="Group 114_3">
<rect id="Rectangle 221_5" width="25.707" height="65.0932" rx="12.8535" transform="matrix(0.866234 0.499639 -0.500361 0.865817 61.8047 23)" fill="#1E342C"/>
<rect id="Rectangle 222_5" width="25.6947" height="65.1245" rx="12.8473" transform="matrix(-0.500362 0.865817 -0.866234 -0.499639 91.2891 62.748)" fill="#1E342C"/>
</g>
</g>
<g id="circle_4">
<path id="Ellipse 62" d="M541.038 89C541.038 93.8261 536.926 98 531.525 98C526.124 98 522.012 93.8261 522.012 89C522.012 84.1739 526.124 80 531.525 80C536.926 80 541.038 84.1739 541.038 89Z" stroke="#E55496" stroke-width="8"/>
<ellipse id="Ellipse 54" cx="519.013" cy="101.5" rx="13.0125" ry="13.5" fill="#1E342C"/>
</g>
<g id="square">
<rect id="Rectangle 229" x="2.82775" y="4.8978" width="16.2956" height="16.2753" transform="matrix(0.965988 0.258586 -0.259052 0.965863 1081.65 63.0883)" stroke="#E55496" stroke-width="8"/>
<rect id="Rectangle 238" width="24.2956" height="24.2753" transform="matrix(0.965988 0.258586 -0.259052 0.965863 1095.71 56)" fill="#1E342C"/>
</g>
<g id="square_2">
<rect id="Rectangle 229_2" x="-2.82774" y="-4.8978" width="16.2956" height="16.2753" transform="matrix(-0.965988 -0.258586 0.259052 -0.965863 293.594 42.3689)" stroke="#E55496" stroke-width="8"/>
<rect id="Rectangle 230" width="24.2956" height="24.2753" transform="matrix(-0.965988 -0.258586 0.259052 -0.965863 282.469 60.3809)" fill="#1E342C"/>
</g>
<g id="square_3">
<rect id="Rectangle 231" x="2.14341" y="-5.23295" width="16.2829" height="16.288" transform="matrix(-0.386767 -0.921924 0.92262 -0.386314 1908.66 80.6376)" stroke="#E55496" stroke-width="8"/>
<rect id="Rectangle 232" width="24.2829" height="24.288" transform="matrix(-0.386767 -0.921924 0.92262 -0.386314 1885.37 78.4219)" fill="#1E342C"/>
</g>
<g id="circle_5">
<rect id="Rectangle 231_2" x="2.08725" y="-5.25556" width="16.2831" height="16.2878" transform="matrix(-0.396623 -0.917726 0.918435 -0.396164 2562.88 43.49)" stroke="#E55496" stroke-width="8"/>
<rect id="Rectangle 232_2" width="24.2831" height="24.2878" transform="matrix(-0.396623 -0.917726 0.918435 -0.396164 2539.56 41.584)" fill="#1E342C"/>
</g>
</g>
</svg>
