
<svg width="3000" height="83" viewBox="0 0 3000 83" fill="none" xmlns="http://www.w3.org/2000/svg">
<path d="M-1 58.0108C33.6533 44.2189 68.3066 30.4271 102.965 33.2005C137.618 35.975 172.272 79.3171 206.925 70.9842C241.578 62.6514 276.237 26.646 310.89 29.6341C345.543 32.6234 380.197 61.6102 414.85 63.5026C449.508 65.395 484.162 53.188 518.815 37.1158C553.468 21.0447 588.127 27.0995 622.78 48.1423C657.433 69.1863 692.087 79.2261 726.74 80.0424C761.398 80.8587 796.052 59.4543 830.705 46.1751C865.358 32.8948 900.012 40.7346 934.67 51.6872C969.323 62.641 1003.98 76.7065 1038.63 70.9842C1073.28 65.262 1107.94 39.7497 1142.59 29.6341C1177.25 19.5197 1211.9 24.7998 1246.55 35.1474C1281.21 45.4962 1315.87 54.4139 1350.52 64.4868C1385.17 74.5596 1419.83 79.2901 1454.48 75.5133C1489.14 71.7366 1523.79 59.4515 1558.44 45.1898C1593.1 30.9292 1627.76 21.1881 1662.41 24.1209C1697.06 27.0547 1731.72 49.1586 1766.38 62.7138C1801.03 76.2701 1835.68 81.2788 1870.33 76.4975C1904.99 71.7163 1939.65 57.1474 1974.3 51.6872C2008.95 46.2282 2043.61 49.8779 2078.26 57.2005C2112.92 64.5242 2147.57 75.5184 2182.22 70.9842C2216.88 66.4501 2251.53 46.3852 2286.19 35.1474C2320.84 23.9107 2355.5 21.501 2390.15 29.6341C2424.8 37.7684 2459.46 56.4465 2494.11 62.7138C2528.77 68.9821 2563.42 62.8408 2598.08 51.6872C2632.73 40.5348 2667.39 37.3663 2702.04 42.629C2736.69 47.8929 2771.35 74.5818 2806 81.2231C2840.66 87.8633 2875.31 74.4559 2909.96 64.6821C2944.62 54.9095 2979.28 35.7744 3013.93 29.6341V3C2979.28 3 2944.62 3 2909.96 3C2875.31 3 2840.66 3 2806 3C2771.35 3 2736.69 3 2702.04 3C2667.39 3 2632.73 3 2598.08 3C2563.42 3 2528.77 3 2494.11 3C2459.46 3 2424.8 3 2390.15 3C2355.5 3 2320.84 3 2286.19 3C2251.53 3 2216.88 3 2182.22 3C2147.57 3 2112.92 3 2078.26 3C2043.61 3 2008.95 3 1974.3 3C1939.65 3 1904.99 3 1870.33 3C1835.68 3 1801.03 3 1766.38 3C1731.72 3 1697.06 3 1662.41 3C1627.76 3 1593.1 3 1558.44 3C1523.79 3 1489.14 3 1454.48 3C1419.83 3 1385.17 3 1350.52 3C1315.87 3 1281.21 3 1246.55 3C1211.9 3 1177.25 3 1142.59 3C1107.94 3 1073.28 3 1038.63 3C1003.98 3 969.323 3 934.67 3C900.012 3 865.358 3 830.705 3C796.052 3 761.398 3 726.74 3C692.087 3 657.433 3 622.78 3C588.127 3 553.468 3 518.815 3C484.162 3 449.508 3 414.85 3C380.197 3 345.543 3 310.89 3C276.237 3 241.578 3 206.925 3C172.272 3 137.618 3 102.965 3C68.3066 3 33.6533 3 -1 3V58.0108Z" fill="#E55496" fill-opacity="0.6"/>
<path d="M-1 43.1054C33.5154 30.6328 68.0307 18.1602 102.551 20.6683C137.067 23.1774 171.582 60.6693 206.097 53.1336C240.613 45.5978 275.133 13.0364 309.649 15.7387C344.164 18.4421 378.679 44.6562 413.195 46.3676C447.715 48.079 482.231 37.0396 516.746 22.5047C551.261 7.97089 585.782 13.4465 620.297 32.4765C654.813 51.5076 689.328 60.5871 723.843 61.3253C758.364 62.0635 792.879 42.7065 827.395 30.6975C861.91 18.6874 896.425 25.7774 930.946 35.6824C965.461 45.5884 999.977 58.3085 1034.49 53.1336C1069.01 47.9587 1103.53 24.8867 1138.04 15.7387C1172.56 6.59176 1207.07 11.3668 1241.59 20.7246C1276.11 30.0835 1310.63 38.1483 1345.14 47.2576C1379.66 56.367 1414.17 60.6449 1448.69 57.2294C1483.21 53.814 1517.72 42.704 1552.24 29.8064C1586.76 16.9098 1621.27 8.10058 1655.79 10.7528C1690.3 13.406 1724.82 33.3956 1759.34 45.6542C1793.86 57.9138 1828.37 62.4434 1862.89 58.1195C1897.4 53.7956 1931.92 40.6202 1966.44 35.6824C2000.95 30.7455 2035.47 34.0461 2069.98 40.6683C2104.5 47.2914 2139.02 57.234 2173.54 53.1336C2208.05 49.0331 2242.57 30.8875 2277.09 20.7246C2311.6 10.5627 2346.12 8.38356 2380.63 15.7387C2415.15 23.0949 2449.67 39.9864 2484.18 45.6542C2518.7 51.323 2553.21 45.769 2587.74 35.6824C2622.25 25.5967 2656.77 22.7313 2691.28 27.4906C2725.8 32.251 2760.32 56.387 2794.83 62.3931C2829.35 68.3981 2863.86 56.2732 2898.38 47.4343C2932.9 38.5964 2967.41 21.2916 3001.93 15.7387V0C2967.41 0 2932.9 0 2898.38 0C2863.86 0 2829.35 0 2794.83 0C2760.32 0 2725.8 0 2691.28 0C2656.77 0 2622.25 0 2587.74 0C2553.21 0 2518.7 0 2484.18 0C2449.67 0 2415.15 0 2380.63 0C2346.12 0 2311.6 0 2277.09 0C2242.57 0 2208.05 0 2173.54 0C2139.02 0 2104.5 0 2069.98 0C2035.47 0 2000.95 0 1966.44 0C1931.92 0 1897.4 0 1862.89 0C1828.37 0 1793.86 0 1759.34 0C1724.82 0 1690.3 0 1655.79 0C1621.27 0 1586.76 0 1552.24 0C1517.72 0 1483.21 0 1448.69 0C1414.17 0 1379.66 0 1345.14 0C1310.63 0 1276.11 0 1241.59 0C1207.07 0 1172.56 0 1138.04 0C1103.53 0 1069.01 0 1034.49 0C999.977 0 965.461 0 930.946 0C896.425 0 861.91 0 827.395 0C792.879 0 758.364 0 723.843 0C689.328 0 654.813 0 620.297 0C585.782 0 551.261 0 516.746 0C482.231 0 447.715 0 413.195 0C378.679 0 344.164 0 309.649 0C275.133 0 240.613 0 206.097 0C171.582 0 137.067 0 102.551 0C68.0307 0 33.5154 0 -1 0V43.1054Z" fill="#1E342C"/>
</svg>